<svg width="32" height="33" viewBox="0 0 32 33" fill="none" xmlns="http://www.w3.org/2000/svg">
<path d="M21.9997 8.10547H17.9997C17.2633 8.10547 16.6663 8.70243 16.6663 9.4388V13.4388H21.9997C22.1513 13.4354 22.2951 13.506 22.3853 13.628C22.4754 13.75 22.5007 13.9081 22.453 14.0521L21.4663 16.9855C21.3754 17.2547 21.1238 17.4367 20.8397 17.4388H16.6663V27.4388C16.6663 27.8069 16.3678 28.1055 15.9997 28.1055H12.6663C12.2982 28.1055 11.9997 27.8069 11.9997 27.4388V17.4388H9.99967C9.63149 17.4388 9.33301 17.1403 9.33301 16.7721V14.1055C9.33301 13.7373 9.63149 13.4388 9.99967 13.4388H11.9997V9.4388C11.9997 6.49328 14.3875 4.10547 17.333 4.10547H21.9997C22.3678 4.10547 22.6663 4.40395 22.6663 4.77214V7.4388C22.6663 7.80699 22.3678 8.10547 21.9997 8.10547Z" fill="#2E3A59"/>
</svg>
