<svg width="32" height="33" viewBox="0 0 32 33" fill="none" xmlns="http://www.w3.org/2000/svg">
<path fill-rule="evenodd" clip-rule="evenodd" d="M21.3333 4.10547H10.6667C6.98477 4.10547 4 7.09024 4 10.7721V21.4388C4 25.1207 6.98477 28.1055 10.6667 28.1055H21.3333C25.0152 28.1055 28 25.1207 28 21.4388V10.7721C28 7.09024 25.0152 4.10547 21.3333 4.10547ZM25.6667 21.4388C25.6593 23.8289 23.7235 25.7648 21.3333 25.7721H10.6667C8.27647 25.7648 6.34065 23.8289 6.33333 21.4388V10.7721C6.34065 8.38194 8.27647 6.44612 10.6667 6.4388H21.3333C23.7235 6.44612 25.6593 8.38194 25.6667 10.7721V21.4388ZM22.3333 11.1055C23.0697 11.1055 23.6667 10.5085 23.6667 9.77214C23.6667 9.03576 23.0697 8.4388 22.3333 8.4388C21.5969 8.4388 21 9.03576 21 9.77214C21 10.5085 21.5969 11.1055 22.3333 11.1055ZM16 10.1055C12.6863 10.1055 10 12.7918 10 16.1055C10 19.4192 12.6863 22.1055 16 22.1055C19.3137 22.1055 22 19.4192 22 16.1055C22.0036 14.5131 21.3725 12.9849 20.2465 11.8589C19.1205 10.7329 17.5924 10.1019 16 10.1055ZM12.3333 16.1055C12.3333 18.1305 13.9749 19.7721 16 19.7721C18.0251 19.7721 19.6667 18.1305 19.6667 16.1055C19.6667 14.0804 18.0251 12.4388 16 12.4388C13.9749 12.4388 12.3333 14.0804 12.3333 16.1055Z" fill="#2E3A59"/>
</svg>
