<svg width="32" height="33" viewBox="0 0 32 33" fill="none" xmlns="http://www.w3.org/2000/svg">
<path fill-rule="evenodd" clip-rule="evenodd" d="M6.66667 4.10547H25.3333C26.8061 4.10547 28 5.29938 28 6.77214V25.4388C28 26.9116 26.8061 28.1055 25.3333 28.1055H6.66667C5.19391 28.1055 4 26.9116 4 25.4388V6.77214C4 5.29938 5.19391 4.10547 6.66667 4.10547ZM10.6667 24.1055C11.0349 24.1055 11.3333 23.8069 11.3333 23.4388V14.1055C11.3333 13.7373 11.0349 13.4388 10.6667 13.4388H8.66667C8.29848 13.4388 8 13.7373 8 14.1055V23.4388C8 23.8069 8.29848 24.1055 8.66667 24.1055H10.6667ZM9.66667 12.1055C8.56209 12.1055 7.66667 11.21 7.66667 10.1055C7.66667 9.0009 8.56209 8.10547 9.66667 8.10547C10.7712 8.10547 11.6667 9.0009 11.6667 10.1055C11.6667 11.21 10.7712 12.1055 9.66667 12.1055ZM23.3333 24.1055C23.7015 24.1055 24 23.8069 24 23.4388V17.3055C24.0433 15.1865 22.4768 13.3782 20.3733 13.1188C18.9027 12.9845 17.4777 13.6713 16.6667 14.9055V14.1055C16.6667 13.7373 16.3681 13.4388 16 13.4388H14C13.6319 13.4388 13.3333 13.7373 13.3333 14.1055V23.4388C13.3333 23.8069 13.6319 24.1055 14 24.1055H16C16.3681 24.1055 16.6667 23.8069 16.6667 23.4388V18.4388C16.6667 17.3343 17.5621 16.4388 18.6667 16.4388C19.7712 16.4388 20.6667 17.3343 20.6667 18.4388V23.4388C20.6667 23.8069 20.9652 24.1055 21.3333 24.1055H23.3333Z" fill="#2E3A59"/>
</svg>
