<svg width="130" height="106" viewBox="0 0 130 106" fill="none" xmlns="http://www.w3.org/2000/svg">
<path d="M78 3.68951V51.5761C78 53.2648 76.6437 54.6328 74.9695 54.6328H20.0306C18.3562 54.6328 17 53.2648 17 51.5761V3.68951C17 2.00075 18.3563 0.632812 20.0306 0.632812H74.9695C76.6437 0.632812 78 2.00075 78 3.68951Z" fill="#EEF4F8"/>
<path d="M78.1557 2.96283V8.01545H17V2.96283C17 1.63674 18.3598 0.5625 20.0383 0.5625H75.1174C76.7959 0.5625 78.1557 1.63674 78.1557 2.96283Z" fill="#427760"/>
<path opacity="0.2" fill-rule="evenodd" clip-rule="evenodd" d="M21.309 17.2528L20.5381 17.2528L20.5381 17.0977L21.309 17.0977L21.309 17.2528ZM25.1637 17.2528L23.6218 17.2528L23.6218 17.0977L25.1637 17.0977L25.1637 17.2528ZM29.0184 17.2528L27.4765 17.2528L27.4765 17.0977L29.0184 17.0977L29.0184 17.2528ZM32.8731 17.2528L31.3312 17.2528L31.3312 17.0977L32.8731 17.0977L32.8731 17.2528ZM36.7277 17.2528L35.1859 17.2528L35.1859 17.0977L36.7277 17.0977L36.7277 17.2528ZM40.5824 17.2528L39.0405 17.2528L39.0405 17.0977L40.5824 17.0977L40.5824 17.2528ZM44.4371 17.2528L42.8952 17.2528L42.8952 17.0977L44.4371 17.0977L44.4371 17.2528ZM48.2918 17.2528L46.7499 17.2528L46.7499 17.0977L48.2918 17.0977L48.2918 17.2528ZM52.1464 17.2528L50.6046 17.2528L50.6046 17.0977L52.1464 17.0977L52.1464 17.2528ZM56.0011 17.2528L54.4592 17.2528L54.4592 17.0977L56.0011 17.0977L56.0011 17.2528ZM59.0849 17.2528L58.3139 17.2528L58.3139 17.0977L59.0849 17.0977L59.0849 17.2528Z" fill="#1D2125"/>
<path opacity="0.2" fill-rule="evenodd" clip-rule="evenodd" d="M21.309 21.3739L20.5381 21.3739L20.5381 21.2188L21.309 21.2188L21.309 21.3739ZM25.1637 21.3739L23.6218 21.3739L23.6218 21.2188L25.1637 21.2188L25.1637 21.3739ZM29.0184 21.3739L27.4765 21.3739L27.4765 21.2188L29.0184 21.2188L29.0184 21.3739ZM32.8731 21.3739L31.3312 21.3739L31.3312 21.2188L32.8731 21.2188L32.8731 21.3739ZM36.7277 21.3739L35.1859 21.3739L35.1859 21.2188L36.7277 21.2188L36.7277 21.3739ZM40.5824 21.3739L39.0405 21.3739L39.0405 21.2188L40.5824 21.2188L40.5824 21.3739ZM44.4371 21.3739L42.8952 21.3739L42.8952 21.2188L44.4371 21.2188L44.4371 21.3739ZM48.2918 21.3739L46.7499 21.3739L46.7499 21.2188L48.2918 21.2188L48.2918 21.3739ZM52.1464 21.3739L50.6046 21.3739L50.6046 21.2188L52.1464 21.2188L52.1464 21.3739ZM56.0011 21.3739L54.4592 21.3739L54.4592 21.2188L56.0011 21.2188L56.0011 21.3739ZM59.0849 21.3739L58.3139 21.3739L58.3139 21.2188L59.0849 21.2188L59.0849 21.3739Z" fill="#1D2125"/>
<path opacity="0.2" fill-rule="evenodd" clip-rule="evenodd" d="M21.309 25.4911L20.5381 25.4911L20.5381 25.3359L21.309 25.3359L21.309 25.4911ZM25.1637 25.4911L23.6218 25.4911L23.6218 25.3359L25.1637 25.3359L25.1637 25.4911ZM29.0184 25.4911L27.4765 25.4911L27.4765 25.3359L29.0184 25.3359L29.0184 25.4911ZM32.8731 25.4911L31.3312 25.4911L31.3312 25.3359L32.8731 25.3359L32.8731 25.4911ZM36.7277 25.4911L35.1859 25.4911L35.1859 25.3359L36.7277 25.3359L36.7277 25.4911ZM40.5824 25.4911L39.0405 25.4911L39.0405 25.3359L40.5824 25.3359L40.5824 25.4911ZM44.4371 25.4911L42.8952 25.4911L42.8952 25.3359L44.4371 25.3359L44.4371 25.4911ZM48.2918 25.4911L46.7499 25.4911L46.7499 25.3359L48.2918 25.3359L48.2918 25.4911ZM52.1464 25.4911L50.6046 25.4911L50.6046 25.3359L52.1464 25.3359L52.1464 25.4911ZM56.0011 25.4911L54.4592 25.4911L54.4592 25.3359L56.0011 25.3359L56.0011 25.4911ZM59.0849 25.4911L58.3139 25.4911L58.3139 25.3359L59.0849 25.3359L59.0849 25.4911Z" fill="#1D2125"/>
<path opacity="0.2" fill-rule="evenodd" clip-rule="evenodd" d="M21.309 29.6083L20.5381 29.6083L20.5381 29.4531L21.309 29.4531L21.309 29.6083ZM25.1637 29.6083L23.6218 29.6083L23.6218 29.4531L25.1637 29.4531L25.1637 29.6083ZM29.0184 29.6083L27.4765 29.6083L27.4765 29.4531L29.0184 29.4531L29.0184 29.6083ZM32.8731 29.6083L31.3312 29.6083L31.3312 29.4531L32.8731 29.4531L32.8731 29.6083ZM36.7277 29.6083L35.1859 29.6083L35.1859 29.4531L36.7277 29.4531L36.7277 29.6083ZM40.5824 29.6083L39.0405 29.6083L39.0405 29.4531L40.5824 29.4531L40.5824 29.6083ZM44.4371 29.6083L42.8952 29.6083L42.8952 29.4531L44.4371 29.4531L44.4371 29.6083ZM48.2918 29.6083L46.7499 29.6083L46.7499 29.4531L48.2918 29.4531L48.2918 29.6083ZM52.1464 29.6083L50.6046 29.6083L50.6046 29.4531L52.1464 29.4531L52.1464 29.6083ZM56.0011 29.6083L54.4592 29.6083L54.4592 29.4531L56.0011 29.4531L56.0011 29.6083ZM59.0849 29.6083L58.3139 29.6083L58.3139 29.4531L59.0849 29.4531L59.0849 29.6083Z" fill="#1D2125"/>
<path opacity="0.2" fill-rule="evenodd" clip-rule="evenodd" d="M21.309 33.7255L20.5381 33.7255L20.5381 33.5703L21.309 33.5703L21.309 33.7255ZM25.1637 33.7255L23.6218 33.7255L23.6218 33.5703L25.1637 33.5703L25.1637 33.7255ZM29.0184 33.7255L27.4765 33.7255L27.4765 33.5703L29.0184 33.5703L29.0184 33.7255ZM32.8731 33.7255L31.3312 33.7255L31.3312 33.5703L32.8731 33.5703L32.8731 33.7255ZM36.7277 33.7255L35.1859 33.7255L35.1859 33.5703L36.7277 33.5703L36.7277 33.7255ZM40.5824 33.7255L39.0405 33.7255L39.0405 33.5703L40.5824 33.5703L40.5824 33.7255ZM44.4371 33.7255L42.8952 33.7255L42.8952 33.5703L44.4371 33.5703L44.4371 33.7255ZM48.2918 33.7255L46.7499 33.7255L46.7499 33.5703L48.2918 33.5703L48.2918 33.7255ZM52.1464 33.7255L50.6046 33.7255L50.6046 33.5703L52.1464 33.5703L52.1464 33.7255ZM56.0011 33.7255L54.4592 33.7255L54.4592 33.5703L56.0011 33.5703L56.0011 33.7255ZM59.0849 33.7255L58.3139 33.7255L58.3139 33.5703L59.0849 33.5703L59.0849 33.7255Z" fill="#1D2125"/>
<path opacity="0.2" fill-rule="evenodd" clip-rule="evenodd" d="M21.309 37.8466L20.5381 37.8466L20.5381 37.6914L21.309 37.6914L21.309 37.8466ZM25.1637 37.8466L23.6218 37.8466L23.6218 37.6914L25.1637 37.6914L25.1637 37.8466ZM29.0184 37.8466L27.4765 37.8466L27.4765 37.6914L29.0184 37.6914L29.0184 37.8466ZM32.8731 37.8466L31.3312 37.8466L31.3312 37.6914L32.8731 37.6914L32.8731 37.8466ZM36.7277 37.8466L35.1859 37.8466L35.1859 37.6914L36.7277 37.6914L36.7277 37.8466ZM40.5824 37.8466L39.0405 37.8466L39.0405 37.6914L40.5824 37.6914L40.5824 37.8466ZM44.4371 37.8466L42.8952 37.8466L42.8952 37.6914L44.4371 37.6914L44.4371 37.8466ZM48.2918 37.8466L46.7499 37.8466L46.7499 37.6914L48.2918 37.6914L48.2918 37.8466ZM52.1464 37.8466L50.6046 37.8466L50.6046 37.6914L52.1464 37.6914L52.1464 37.8466ZM56.0011 37.8466L54.4592 37.8466L54.4592 37.6914L56.0011 37.6914L56.0011 37.8466ZM59.0849 37.8466L58.3139 37.8466L58.3139 37.6914L59.0849 37.6914L59.0849 37.8466Z" fill="#1D2125"/>
<path fill-rule="evenodd" clip-rule="evenodd" d="M48.3643 34.5802C48.8879 34.9656 49.4232 35.4838 49.9785 36.022L49.992 36.0351C50.6999 36.7211 51.4425 37.4409 52.1924 37.8828C53.3109 38.59 54.4794 38.5748 55.567 38.5606L55.5897 38.5603C56.2652 38.5515 56.9068 38.5442 57.5263 38.6843L57.532 38.6856L57.5378 38.6866C59.1731 38.9615 60.7145 40.1917 62.4129 41.5551L62.4137 41.5558C62.5536 41.6681 62.6944 41.7811 62.836 41.8942C64.5432 43.2847 66.4124 44.7793 68.2909 45.5686L68.292 45.569L68.2931 45.5695C69.1735 45.928 70.1023 46.1134 71.0401 45.9601C71.9795 45.8066 72.9111 45.316 73.7987 44.354C74.0342 44.126 74.2661 43.8701 74.4932 43.5944C74.5828 43.4856 74.5784 43.3143 74.4833 43.2117C74.3882 43.1092 74.2385 43.1143 74.1489 43.2231C73.93 43.4889 73.7093 43.7318 73.4882 43.9455L73.4829 43.9505L73.478 43.9559C72.6548 44.8499 71.8101 45.2875 70.9732 45.4242C70.1332 45.5615 69.2843 45.3984 68.4529 45.0599C66.6441 44.2996 64.8261 42.8506 63.1095 41.4524L63.1086 41.4517L63.1077 41.4509C62.966 41.3379 62.8251 41.2248 62.6846 41.1119L62.6534 41.0869C60.9949 39.7555 59.3678 38.4493 57.6124 38.152C56.9424 38.0013 56.2574 38.0102 55.5963 38.0188L55.5844 38.019C54.4732 38.0334 53.4203 38.042 52.4184 37.4072L52.4152 37.4052L52.412 37.4033C51.7141 36.9927 51.0089 36.3112 50.2844 35.6089L50.2769 35.6017C49.7299 35.0716 49.1725 34.5314 48.6203 34.1249C48.0673 33.7178 47.4899 33.4219 46.9037 33.4219C46.103 33.4219 45.3519 33.9048 44.6449 34.5759C43.9384 35.2467 43.2402 36.1409 42.5464 37.0295L42.5385 37.0396C42.1386 37.5517 41.7392 38.0633 41.334 38.54L41.3309 38.5436L41.328 38.5473C39.6377 40.6889 37.8178 42.1421 35.9953 43.2142L35.992 43.2161L35.9889 43.2182C34.2868 44.2964 32.5067 45.0294 30.8809 44.6615L30.8794 44.6612L30.8778 44.6608C30.1182 44.5013 29.377 44.1494 28.6112 43.7847L28.5886 43.7739C27.5866 43.2966 26.5375 42.7969 25.4349 42.7969C24.0101 42.7969 22.6747 43.6302 21.3701 44.4738C21.2563 44.5474 21.2162 44.7125 21.2805 44.8427C21.3448 44.9728 21.4891 45.0187 21.6029 44.9451C22.9275 44.0886 24.155 43.3383 25.4349 43.3383C26.4344 43.3383 27.4018 43.795 28.4294 44.2845L28.4413 44.2901C29.1938 44.6486 29.9776 45.0219 30.7907 45.193C32.5878 45.5988 34.4938 44.7836 36.2149 43.6938C38.0781 42.5973 39.9438 41.1078 41.6762 38.9139C42.0879 38.4292 42.4925 37.911 42.8896 37.4025L42.8913 37.4003C43.5942 36.5001 44.2704 35.6349 44.9471 34.9926C45.6261 34.348 46.2697 33.9632 46.9037 33.9632C47.3548 33.9632 47.8389 34.1934 48.3643 34.5802Z" fill="#F0AE4D"/>
<path fill-rule="evenodd" clip-rule="evenodd" d="M74.4018 27.9386C73.3913 27.5158 72.3547 27.3887 71.2814 27.8109L71.2748 27.8135L71.2684 27.8165C70.1369 28.3491 68.9788 29.561 67.8442 30.7482L67.8186 30.775C66.575 32.0762 65.3548 33.3475 64.15 33.8745C63.011 34.3565 61.8157 34.0352 60.5369 33.6829L60.5106 33.6756C59.4492 33.3832 58.3281 33.0743 57.2358 33.3308C56.0516 33.5901 54.9259 34.3945 53.8286 35.4567C52.7318 36.5185 51.6407 37.861 50.5305 39.2268L50.5241 39.2347C50.3448 39.4553 50.165 39.6765 49.9842 39.8978C49.7719 40.1576 49.561 40.4173 49.3514 40.6754L49.3494 40.6778C48.2501 42.0317 47.1905 43.3361 46.1299 44.4117C45.0688 45.488 44.0223 46.3186 42.955 46.7384L42.9484 46.741L42.9419 46.7441C40.7948 47.7546 38.4527 46.757 36.1978 45.2711L36.1946 45.269L36.1913 45.267C35.6298 44.9234 35.0769 44.5508 34.5241 44.1782L34.4901 44.1553C32.6977 42.9472 30.886 41.7261 28.9552 41.7261C27.5141 41.7261 26.1408 42.4065 24.8145 43.0636L24.7907 43.0754C23.7816 43.5753 22.7967 44.062 21.786 44.2829L21.7843 44.2832L21.7827 44.2836C21.6733 44.3094 21.5634 44.3312 21.4531 44.3493C21.3237 44.3706 21.2338 44.5084 21.2523 44.6572C21.2707 44.806 21.3905 44.9094 21.5199 44.8881C21.6389 44.8686 21.7576 44.845 21.8759 44.8172C22.9417 44.584 23.9701 44.0745 24.9653 43.5814L24.9778 43.5752C26.3312 42.9048 27.6205 42.2703 28.9552 42.2703C30.745 42.2703 32.4509 43.4117 34.2849 44.6478L34.2871 44.6493C34.8367 45.0197 35.3962 45.3968 35.9659 45.7455C38.2264 47.2346 40.7464 48.3613 43.1146 47.2508C44.2652 46.7965 45.3645 45.9137 46.4429 44.82C47.5223 43.7252 48.5964 42.4025 49.6902 41.0555L49.6952 41.0493C49.9055 40.7904 50.1166 40.5304 50.3289 40.2706C50.5097 40.0493 50.6895 39.8281 50.8683 39.6082L50.8697 39.6064C51.9871 38.2317 53.0603 36.9119 54.1333 35.8732C55.2074 34.8333 56.2587 34.0983 57.3258 33.8651L57.3274 33.8648L57.329 33.8644C58.3096 33.6336 59.3344 33.9113 60.4267 34.2122L60.4593 34.2212C61.6999 34.563 63.0292 34.9293 64.3147 34.3848L64.3158 34.3843L64.3169 34.3838C65.6153 33.8164 66.8984 32.4737 68.1118 31.204L68.1369 31.1776C69.3004 29.9602 70.3977 28.8169 71.4411 28.3233C72.3841 27.9545 73.3042 28.0586 74.2401 28.4501C74.3629 28.5015 74.4986 28.4286 74.5433 28.2874C74.588 28.1462 74.5246 27.99 74.4018 27.9386Z" fill="#EF5F50"/>
<path fill-rule="evenodd" clip-rule="evenodd" d="M25.5955 38.4355C26.4399 38.8528 27.3002 39.4122 28.1821 39.9859L28.193 39.993C29.3287 40.7319 30.5005 41.4944 31.6772 41.9595C33.4114 42.6962 35.2225 42.6804 36.9647 42.6652L36.9842 42.665C38.0556 42.6557 39.1001 42.647 40.1123 42.8008L40.1162 42.8013L40.1201 42.8018C42.7826 43.1022 45.2766 44.4431 47.9664 45.8927L47.9674 45.8932C48.1904 46.0134 48.4147 46.1343 48.6403 46.2552C51.3633 47.7441 54.3193 49.3294 57.2813 50.1649L57.2821 50.1651L57.2829 50.1653C60.043 50.9199 63.0477 50.9284 65.8442 48.8924C68.4492 47.2001 70.8786 43.982 72.4166 41.9447L72.4284 41.9291C72.6474 41.639 72.848 41.3733 73.0291 41.1383L73.0307 41.1362L74.5001 39.1467C74.5855 39.0311 74.5745 38.8566 74.4756 38.7568C74.3767 38.6571 74.2273 38.6699 74.1419 38.7855L72.6758 40.7706C72.4933 41.0074 72.2918 41.2743 72.0741 41.5627L72.0735 41.5634C70.522 43.6187 68.1383 46.7717 65.6092 48.4125L65.6039 48.4159L65.5988 48.4196C62.9453 50.3541 60.0813 50.3624 57.3916 49.6273C54.4829 48.8067 51.5684 47.2459 48.8401 45.754L48.8392 45.7536L48.8384 45.7532C48.6127 45.6322 48.3882 45.5112 48.1645 45.3907L48.144 45.3796C45.4783 43.943 42.9175 42.563 40.1694 42.252C39.1236 42.0935 38.0504 42.1029 36.9891 42.1121L36.9807 42.1122C35.2174 42.1276 33.4847 42.1398 31.8364 41.4389L31.8339 41.4378L31.8313 41.4368C30.6985 40.9894 29.5608 40.2502 28.4123 39.5029L28.4058 39.4988C27.531 38.9296 26.65 38.3564 25.7798 37.9264C24.9071 37.4951 24.0288 37.1992 23.1585 37.1992C22.5671 37.1992 21.987 37.3179 21.4166 37.5239C21.2918 37.569 21.2219 37.7238 21.2605 37.8696C21.2991 38.0155 21.4316 38.0972 21.5564 38.0521C22.0892 37.8596 22.6218 37.752 23.1585 37.752C23.9397 37.752 24.7514 38.0184 25.5955 38.4355Z" fill="#70B9EF"/>
<path d="M74.2063 4.53967C74.3435 3.95584 73.9837 3.37083 73.4025 3.233C72.8214 3.09517 72.2391 3.45672 72.1019 4.04055C71.9647 4.62437 72.3246 5.20939 72.9057 5.34721C73.4869 5.48504 74.0692 5.12349 74.2063 4.53967Z" fill="#EF5F50"/>
<path d="M70.7827 5.0571C71.2049 4.63292 71.2049 3.9452 70.7827 3.52103C70.3605 3.09685 69.6759 3.09685 69.2537 3.52103C68.8315 3.9452 68.8315 4.63292 69.2537 5.0571C69.6759 5.48127 70.3605 5.48127 70.7827 5.0571Z" fill="#F0AE4D"/>
<path d="M67.6479 5.0571C68.0701 4.63292 68.0701 3.9452 67.6479 3.52103C67.2257 3.09685 66.5412 3.09685 66.119 3.52103C65.6968 3.9452 65.6968 4.63292 66.119 5.0571C66.5412 5.48127 67.2257 5.48127 67.6479 5.0571Z" fill="#63B78F"/>
<rect x="20" y="10.6328" width="55" height="10" rx="4" fill="white"/>
<path fill-rule="evenodd" clip-rule="evenodd" d="M26.9618 13.5245C26.9245 13.6689 26.8163 13.8202 26.6848 13.9322C26.8114 13.9478 26.9508 13.957 27.1063 13.957L30.4661 13.9574C30.8841 13.9642 31.2238 14.045 31.4552 14.2597C31.6896 14.4771 31.769 14.7904 31.769 15.1573L31.6888 16.2413C31.7375 16.3143 31.769 16.4288 31.769 16.5574C31.769 16.7784 31.6762 16.9575 31.5618 16.9575C31.4474 16.9575 31.3545 16.7784 31.3545 16.5574C31.3545 16.4288 31.3858 16.3143 31.4347 16.2413L31.3545 15.1571C31.3545 14.8354 31.2835 14.6552 31.168 14.5481C31.0911 14.4767 30.9759 14.4203 30.8008 14.3877C31.0182 14.6492 31.1473 15.0315 31.1473 15.5574V18.9581C31.1473 19.0112 31.1255 19.0621 31.0866 19.0996C31.0477 19.1371 30.995 19.1582 30.9401 19.1582H30.3184C30.2318 19.1582 30.1474 19.132 30.077 19.0833C30.0067 19.0346 29.9539 18.9659 29.926 18.8868C29.8982 18.8076 29.8967 18.7221 29.9218 18.6421C29.9469 18.5621 29.9973 18.4917 30.066 18.4408L30.0245 17.9601C29.9341 18.0141 29.8372 18.0575 29.736 18.0891L29.74 18.1081C29.7504 18.1602 29.739 18.2142 29.7082 18.2582C29.6774 18.3022 29.6298 18.3325 29.5759 18.3426C29.5219 18.3527 29.466 18.3416 29.4204 18.3119C29.3749 18.2822 29.3434 18.2363 29.333 18.1842L29.3276 18.1572C29.1862 18.1616 29.045 18.1463 28.9082 18.1117L28.8909 18.1426C28.864 18.1875 28.82 18.2206 28.7682 18.2348C28.7164 18.249 28.6609 18.2432 28.6135 18.2186C28.5661 18.194 28.5304 18.1526 28.5141 18.1031C28.4978 18.0535 28.502 17.9998 28.526 17.9533L28.5266 17.9517C28.429 17.8917 28.3428 17.8203 28.2711 17.7397L28.2481 17.7489C28.1989 17.7686 28.1437 17.7692 28.094 17.7506C28.0443 17.7321 28.0039 17.6957 27.9812 17.6492C27.9585 17.6026 27.9553 17.5494 27.9722 17.5006C27.9891 17.4518 28.0248 17.4112 28.072 17.3872L28.0637 17.3578H27.4171V18.9581C27.4171 19.0112 27.3953 19.0621 27.3564 19.0996C27.3176 19.1371 27.2648 19.1582 27.2099 19.1582H26.5882C26.5016 19.1582 26.4172 19.1321 26.3468 19.0835C26.2764 19.0349 26.2235 18.9662 26.1956 18.8871C26.1677 18.808 26.1661 18.7224 26.1912 18.6424C26.2162 18.5624 26.2665 18.492 26.3351 18.441L26.2688 17.6708C25.9768 17.3156 25.7186 16.7822 25.4789 16.1561C25.4407 16.1385 25.404 16.117 25.3686 16.0915L24.966 15.7978C24.93 15.7716 24.8861 15.7574 24.841 15.7574H24.194C24.0593 15.7573 23.9283 15.715 23.8207 15.6368C23.713 15.5586 23.6346 15.4488 23.5972 15.3239L23.5371 15.1239C23.5116 15.0385 23.506 14.9487 23.5208 14.861C23.5355 14.7733 23.5703 14.6899 23.6225 14.6168C23.6748 14.5436 23.7432 14.4826 23.8229 14.438C23.9025 14.3935 23.9914 14.3666 24.0832 14.3593L24.5536 13.7912C24.5377 13.7801 24.5208 13.7687 24.5028 13.757H24.2048C24.1224 13.7578 24.043 13.7269 23.9841 13.6712C23.9252 13.6155 23.8917 13.5395 23.8908 13.4599C23.89 13.3803 23.922 13.3037 23.9797 13.2468C24.0374 13.19 24.1161 13.1576 24.1986 13.1568C24.8806 13.1246 25.3152 13.2152 25.6527 13.4473C25.7101 13.3924 25.7715 13.3417 25.8365 13.2955C25.9362 13.2244 26.0195 13.176 26.1076 13.1484C26.192 13.122 26.2686 13.1194 26.3329 13.1174L26.342 13.117C26.3981 13.1152 26.4614 13.113 26.5494 13.1022C26.6611 13.0886 26.8031 13.1004 26.899 13.2078C26.9929 13.3127 26.983 13.4425 26.9618 13.5245ZM29.8434 14.3573C30.0546 14.3601 30.2666 14.4237 30.4278 14.5839C30.5927 14.748 30.7328 15.0413 30.7328 15.5574V18.7581H30.3184C30.3696 18.7498 30.4158 18.7232 30.4477 18.6836C30.4796 18.644 30.4949 18.5942 30.4906 18.5442L30.4212 17.7413C30.4173 17.697 30.3984 17.6552 30.3672 17.6225C30.3361 17.5898 30.2945 17.568 30.2492 17.5606C29.7733 17.4834 29.4662 17.2832 29.1802 17.0145C29.1599 16.9953 29.1356 16.9804 29.109 16.9707C29.1207 16.9736 29.1321 16.9775 29.1432 16.9823C29.1347 16.9769 29.1125 16.9613 29.0746 16.9303C28.9715 16.8431 28.872 16.7521 28.7761 16.6576C28.5407 16.4288 28.2947 16.1657 28.2104 16.0455L27.8672 16.2695C27.976 16.425 28.2481 16.7122 28.4823 16.9397L28.5009 16.9577H27.2099C27.1549 16.9577 27.1022 16.9788 27.0633 17.0163C27.0245 17.0538 27.0026 17.1047 27.0026 17.1577V18.7581H26.5882C26.6395 18.7498 26.6857 18.7232 26.7176 18.6835C26.7495 18.6439 26.7647 18.5941 26.7604 18.544L26.6767 17.5758C26.6732 17.5344 26.6564 17.495 26.6286 17.4632C26.3559 17.1517 26.0943 16.622 25.8357 15.9327C25.8242 15.902 25.8052 15.8746 25.7802 15.8527C25.7553 15.8308 25.7252 15.8151 25.6925 15.807C25.6678 15.8012 25.6431 15.7896 25.6185 15.7722L25.2159 15.4786C25.108 15.3999 24.9764 15.3573 24.8412 15.3573H24.1942C24.1493 15.3573 24.1057 15.3432 24.0698 15.3172C24.0339 15.2911 24.0078 15.2545 23.9953 15.2129L23.9354 15.0128C23.9265 14.983 23.9248 14.9516 23.9306 14.9211C23.9364 14.8906 23.9495 14.8618 23.9688 14.837C23.9881 14.8122 24.0132 14.7921 24.0419 14.7782C24.0707 14.7644 24.1024 14.7572 24.1345 14.7572H24.1843C24.2154 14.7572 24.2461 14.7504 24.2741 14.7374C24.3021 14.7244 24.3267 14.7054 24.3461 14.682L25.006 13.8858C25.0388 13.8461 25.0548 13.7959 25.0507 13.7452C25.0466 13.6946 25.0226 13.6474 24.9838 13.6131L24.9604 13.5927C25.2231 13.6443 25.3933 13.7414 25.5365 13.872C25.5583 13.8919 25.5843 13.907 25.6127 13.9163C25.6411 13.9255 25.6713 13.9287 25.7012 13.9256C25.731 13.9225 25.7598 13.9132 25.7855 13.8983C25.8112 13.8834 25.8333 13.8633 25.8502 13.8394C25.8966 13.7732 25.9762 13.6929 26.0823 13.6175C26.1694 13.5557 26.2106 13.5369 26.2355 13.5289C26.2599 13.5213 26.2817 13.5195 26.3563 13.5169H26.3569C26.4 13.5155 26.4535 13.5137 26.521 13.5077C26.4819 13.5672 26.4318 13.6192 26.3733 13.6613C26.2914 13.7196 26.1573 13.7704 26.0158 13.7998C25.9715 13.809 25.9316 13.832 25.9021 13.8652C25.8726 13.8984 25.8552 13.94 25.8526 13.9837C25.85 14.0274 25.8622 14.0707 25.8875 14.107C25.9128 14.1432 25.9497 14.1705 25.9926 14.1847C26.2835 14.2805 26.6317 14.3573 27.1063 14.3573H29.8434ZM28.5049 17.3578C28.6114 17.5664 28.8796 17.7579 29.2822 17.7579C29.3592 17.7576 29.4311 17.7511 29.4979 17.7383C29.2905 17.6334 29.1146 17.503 28.9529 17.3578H28.5049Z" fill="#674521"/>
<path d="M35.1516 14.1837H62.914C62.9871 14.1837 63.0572 14.154 63.1089 14.1013C63.1606 14.0485 63.1896 13.977 63.1896 13.9024C63.1896 13.8278 63.1606 13.7562 63.1089 13.7035C63.0572 13.6507 62.9871 13.6211 62.914 13.6211H35.1516C35.0785 13.6211 35.0084 13.6507 34.9567 13.7035C34.905 13.7562 34.876 13.8278 34.876 13.9024C34.876 13.977 34.905 14.0485 34.9567 14.1013C35.0084 14.154 35.0785 14.1837 35.1516 14.1837Z" fill="#929197"/>
<path d="M35.1506 15.8868H56.7425C56.8156 15.8868 56.8857 15.8572 56.9373 15.8044C56.989 15.7517 57.0181 15.6801 57.0181 15.6055C57.0181 15.5309 56.989 15.4594 56.9373 15.4066C56.8857 15.3539 56.8156 15.3242 56.7425 15.3242H35.1506C35.0775 15.3242 35.0074 15.3539 34.9557 15.4066C34.904 15.4594 34.875 15.5309 34.875 15.6055C34.875 15.6801 34.904 15.7517 34.9557 15.8044C35.0074 15.8572 35.0775 15.8868 35.1506 15.8868Z" fill="#929197"/>
<path d="M35.1506 17.5743H54.5421C54.6152 17.5743 54.6853 17.5447 54.737 17.4919C54.7887 17.4392 54.8177 17.3676 54.8177 17.293C54.8177 17.2184 54.7887 17.1469 54.737 17.0941C54.6853 17.0414 54.6152 17.0117 54.5421 17.0117H35.1506C35.0775 17.0117 35.0074 17.0414 34.9557 17.0941C34.904 17.1469 34.875 17.2184 34.875 17.293C34.875 17.3676 34.904 17.4392 34.9557 17.4919C35.0074 17.5447 35.0775 17.5743 35.1506 17.5743Z" fill="#929197"/>
<path d="M35.8035 66.5794C35.5812 66.562 35.3576 66.5885 35.1455 66.6574C34.9335 66.7262 34.7371 66.8362 34.5676 66.9809C35.7058 67.1981 36.7149 67.8486 37.3818 68.7948C36.8905 68.9881 36.3544 68.6907 35.8928 68.4975C35.3241 68.2635 34.7132 68.1494 34.0982 68.1622C33.4833 68.1749 32.8776 68.3144 32.3192 68.5718C32.2769 68.5832 32.2376 68.6037 32.2041 68.632C32.1706 68.6603 32.1438 68.6955 32.1256 68.7354C32.1256 68.8394 32.2001 68.9584 32.2894 69.0476L34.8952 71.382C34.0733 71.132 33.2053 71.0717 32.3567 71.2057C31.508 71.3396 30.701 71.6642 29.9963 72.1551C29.4372 72.5368 28.9777 73.0467 28.6562 73.642C28.3568 74.2658 28.253 74.9655 28.3584 75.6492C28.954 74.5341 30.4282 74.2813 31.3365 73.4635C31.4954 75.1288 31.5402 76.8029 31.4705 78.4742C31.4081 78.7348 31.4108 79.0066 31.4783 79.2659C31.5458 79.5251 31.6761 79.7639 31.8576 79.9611C31.7429 78.8492 31.9994 77.7305 32.5872 76.7792C32.9052 76.1321 33.3629 75.5633 33.9273 75.114C34.7451 74.6267 35.6272 74.2563 36.548 74.0137C37.2329 73.7367 37.8708 73.3555 38.439 72.8837C38.7933 72.6034 39.087 72.2544 39.3026 71.8577C39.4888 71.384 39.5847 70.8798 39.5856 70.3709C39.784 69.34 39.5702 68.2725 38.99 67.3972C38.6018 67.123 38.1516 66.9493 37.6796 66.8917C37.0694 66.7113 36.4393 66.6064 35.8035 66.5794Z" fill="#FFA91C"/>
<path d="M49.2048 67.9647H49.4281C49.5473 67.4889 49.175 67.0429 49.0857 66.5671C49.0732 66.2812 49.1304 65.9966 49.2523 65.7376C49.3742 65.4787 49.5571 65.2531 49.7855 65.0802C50.7873 64.3747 51.8726 63.7954 53.0166 63.3555C52.6136 63.5339 52.2642 63.8143 52.003 64.1689C51.7419 64.5236 51.578 64.9402 51.5276 65.3776C51.3792 66.2007 51.4542 67.0485 51.7448 67.8329C52.0355 68.6174 52.5312 69.3097 53.1804 69.8381C53.1804 69.5408 53.5974 69.4367 53.8952 69.407C57.0072 69.0055 60.1192 70.0017 63.261 70.0314C63.3072 70.0363 63.3539 70.0308 63.3976 70.0153C63.4414 69.9999 63.4812 69.9749 63.5141 69.9422C63.5141 69.9422 63.5141 69.7489 63.5141 69.6746C63.5141 69.6002 62.9334 69.5259 62.6803 69.6746C61.9209 70.1653 61.7124 71.1614 61.1168 71.8603C60.724 72.2408 60.2568 72.5363 59.7444 72.7282C59.2319 72.92 58.6853 73.0042 58.1388 72.9754C57.1122 72.9548 56.0858 73.0245 55.0715 73.1836L49.2048 67.9647Z" fill="#FFA91C"/>
<path d="M50.6934 86.5531C51.2443 86.4342 51.7357 86.8951 52.1824 87.2668C52.8083 87.8115 53.5304 88.2351 54.3117 88.5158C54.4159 88.1738 54.0287 87.9062 53.7905 87.6385C53.607 87.4128 53.479 87.1473 53.417 86.8632C53.3549 86.5792 53.3604 86.2845 53.4331 86.003C53.5878 85.4487 53.8183 84.9183 54.1181 84.4269C54.9519 85.6908 56.6345 86.3152 57.0961 87.7277C57.2003 87.9954 58.5851 86.2409 58.5851 85.1406C58.6155 84.0257 58.3094 82.9274 57.7066 81.9885C58.8382 85.9138 62.9479 84.4269 62.9479 84.4269C62.6936 83.5987 62.3385 82.8048 61.8907 82.0628C61.678 81.8861 61.5346 81.6401 61.4856 81.3681C61.4365 81.0962 61.4851 80.8157 61.6227 80.576C61.6227 80.5016 61.7716 80.4124 61.8758 80.4273C61.9554 80.4366 62.0291 80.4734 62.0843 80.5314C62.7543 81.1261 64.5411 83.3267 64.5411 83.3267C64.7271 83.2101 64.8972 83.0702 65.0474 82.9103C65.6301 82.2436 65.971 81.4003 66.0153 80.5165C65.8638 79.7447 65.4854 79.0355 64.9283 78.4795C64.1448 77.3552 63.0688 76.4658 61.8163 75.9073C60.8773 75.6644 59.8966 75.6288 58.9425 75.8032C55.9645 76.1749 52.9864 76.8886 50.0084 76.3236C48.3639 75.9541 46.7901 75.3214 45.3478 74.4501C44.196 73.803 43.0869 73.0829 42.0273 72.2942C41.5727 71.8459 40.9682 71.5811 40.3299 71.5508C39.362 71.64 38.6473 72.7997 37.6943 72.6213L50.6934 86.5531Z" fill="#FFA91C"/>
<path d="M50.9912 82.6865C51.1276 83.1395 51.1472 83.6196 51.0483 84.0823C50.9494 84.5449 50.7351 84.9752 50.4254 85.3331C50.1424 85.6453 49.8 85.8981 49.4873 86.1955C48.7726 86.8943 47.2687 88.7975 47.2687 88.7975C47.2687 88.7975 45.4967 87.5485 46.822 84.1733C46.1668 85.4372 44.3502 88.4704 44.3502 88.4704C44.3502 88.4704 42.6974 86.9835 43.7397 83.534C42.7874 84.4665 42.1034 85.6373 41.7593 86.924C40.7987 85.5946 40.2781 83.9987 40.2703 82.3594C39.7243 82.9291 39.3613 83.6488 39.228 84.4261C38.6001 83.7184 38.1465 82.8739 37.9034 81.96C37.6604 81.0462 37.6347 80.0882 37.8283 79.1626L36.0862 82.5527C35.7586 80.7238 35.4459 78.9099 35.1332 77.0811C35.029 76.4714 34.6419 75.4604 34.8503 74.8954C35.2342 74.2859 35.8357 73.8448 36.5329 73.6613C36.5605 73.6613 36.5871 73.6503 36.6066 73.6308C36.6262 73.6113 36.6371 73.5848 36.6371 73.5572C36.6371 73.5296 36.6262 73.5031 36.6066 73.4836C36.5871 73.4641 36.5605 73.4531 36.5329 73.4531C36.1026 73.5468 35.6959 73.7269 35.3375 73.9825C34.9791 74.2381 34.6766 74.5639 34.4483 74.94C34.1804 75.3055 33.9962 75.7254 33.9087 76.1699C33.8212 76.6144 33.8326 77.0726 33.942 77.5122C33.942 77.5122 34.076 77.5122 34.0909 77.5122C34.046 76.7021 34.2373 75.8964 34.6419 75.1927L34.7461 75.0589L50.9912 82.6865Z" fill="#FFA91C"/>
<path d="M67.743 76.0363C67.3782 75.7837 66.9691 75.6021 66.5369 75.501L64.6161 74.8914C65.2654 74.4639 65.8647 73.9652 66.4029 73.4045C66.1101 73.6585 65.7648 73.8448 65.3916 73.9502C65.0183 74.0556 64.6264 74.0774 64.2438 74.0141C63.4695 73.8972 62.7315 73.6075 62.0848 73.1666L61.4296 72.7503C62.5612 72.9733 63.7971 73.5384 64.6458 72.8544C62.0232 71.6639 59.2621 70.8048 56.4265 70.297C57.6829 69.7048 58.8588 68.9553 59.9257 68.0667C60.0123 68.0148 60.08 67.9367 60.1193 67.8437C60.2235 67.5612 59.8512 67.3382 59.5534 67.2787C57.171 66.788 54.7439 68.4384 52.3466 67.9775C53.3291 67.1286 54.5915 66.6731 55.8905 66.6988C54.8235 66.1949 53.6469 65.9663 52.4685 66.0338C51.2902 66.1013 50.1475 66.4629 49.1453 67.0854C48.9759 65.4603 49.3475 63.8247 50.2025 62.4316C49.0344 62.9023 47.9741 63.6049 47.086 64.4969C46.1979 65.3889 45.5003 66.4516 45.0356 67.6207C44.5745 65.7047 44.5288 63.7124 44.9016 61.7773C44.3464 61.938 43.8427 62.2406 43.4406 62.6552C43.0384 63.0699 42.7516 63.5822 42.6085 64.1414C42.3282 65.2585 42.2475 66.4162 42.3703 67.5612C40.8431 65.5836 38.7741 64.091 36.4142 63.2642C37.1034 64.4752 37.6481 65.7627 38.0373 67.1003C38.21 67.4773 38.2841 67.8919 38.2529 68.3053C38.2217 68.7187 38.086 69.1175 37.8586 69.4644C36.3573 69.0515 34.9408 68.377 33.6745 67.472C33.1384 67.1003 32.4833 66.6691 31.9026 66.9665C33.0299 68.1057 33.8584 69.505 34.3147 71.0404H34.0169C33.3819 70.5436 32.6802 70.1382 31.9323 69.8361C31.4866 69.6562 31.0075 69.5737 30.5272 69.5942C30.0469 69.6147 29.5766 69.7378 29.1479 69.955C28.9245 70.0889 28.7012 70.3714 28.865 70.5795C28.9407 70.6474 29.0332 70.6936 29.133 70.7133L31.0091 71.2189C30.7467 71.5395 30.5494 71.9082 30.4284 72.3043C30.0278 73.5253 29.8022 74.7967 29.7584 76.0809C29.7584 76.3634 29.7584 76.7054 30.0264 76.8392H30.1306C30.6862 75.8225 31.4347 74.9236 32.3344 74.1926C32.3111 75.2469 32.5235 76.2931 32.9563 77.2551C33.389 78.217 34.0311 79.0705 34.8359 79.7534C34.8827 78.0807 35.148 76.4212 35.6251 74.817C35.5834 75.882 35.7674 76.9438 36.1651 77.9328C36.5629 78.9219 37.1653 79.8159 37.933 80.5563L38.1415 76.7946C38.0622 78.8404 38.5794 80.8652 39.6305 82.623C39.9207 83.1895 40.3852 83.6481 40.9557 83.9315C41.1195 82.4446 41.2982 80.9577 41.462 79.4709C41.3905 80.3959 41.5124 81.3256 41.82 82.201C42.1276 83.0764 42.6142 83.8784 43.2488 84.5559C43.4573 84.7938 43.7997 85.0169 44.0529 84.8236C44.1742 84.699 44.2479 84.5359 44.2613 84.3626C44.3804 83.5449 44.5145 82.7271 44.6336 81.9093C44.8569 82.4297 45.0952 82.9501 45.2738 83.5003C45.6344 84.5523 45.8547 85.6471 45.929 86.7565L48.6241 81.9985C48.3263 84.3775 49.8898 86.7713 49.726 89.2098C50.4407 87.0687 52.9274 85.8644 53.6123 83.7084C53.5375 85.0982 53.3281 86.4775 52.9869 87.827C53.9994 86.8606 54.9524 86.7416 55.7862 85.6116C56.2856 84.6829 56.6277 83.6781 56.7988 82.6379L56.5754 86.6524C58.1087 84.8905 59.3275 82.8788 60.1788 80.705C60.0976 81.8534 60.0976 83.0061 60.1788 84.1545C60.844 83.9095 61.4746 83.5797 62.055 83.1732C62.6045 82.5527 63.0203 81.8259 63.2765 81.0381C63.5327 80.2502 63.6237 79.4182 63.544 78.5937C63.6631 79.2181 64.6161 81.7458 64.6161 81.7458C64.6161 81.7458 65.5988 80.9429 65.7179 80.2589C65.9436 79.184 66.0337 78.0851 65.986 76.9879C65.9944 76.9187 65.9944 76.8488 65.986 76.7797C66.7708 76.6267 67.5844 76.7754 68.2641 77.196C68.296 76.9733 68.264 76.7461 68.1717 76.5408C68.0795 76.3355 67.9308 76.1606 67.743 76.0363Z" fill="#FFC61C"/>
<path d="M57.1268 68.1444C56.1888 68.531 55.3251 68.8878 55.0273 69.9435C55.0273 69.9435 55.0273 70.0178 55.1167 69.9435C55.3996 69.5569 55.5485 69.0811 55.9654 68.8135C56.3524 68.5903 56.7555 68.3965 57.1715 68.2336C57.1715 68.2336 57.2013 68.07 57.1268 68.1444Z" fill="#FFA91C"/>
<path d="M58.9133 78.2695C58.8936 78.2695 58.8746 78.2774 58.8607 78.2913C58.8467 78.3052 58.8389 78.3242 58.8389 78.3439C58.8389 78.3636 58.8467 78.3825 58.8607 78.3964C58.8746 78.4104 58.8936 78.4182 58.9133 78.4182C60.1939 78.5372 60.5661 79.9051 60.715 80.9161H60.8044C60.8597 80.6178 60.8542 80.3114 60.7884 80.0152C60.7226 79.719 60.5978 79.4391 60.4213 79.1921C60.2448 78.9451 60.0204 78.7362 59.7613 78.5777C59.5022 78.4192 59.2138 78.3144 58.9133 78.2695Z" fill="#FFA91C"/>
<path d="M52.957 80.6497C52.3784 80.972 51.9465 81.5045 51.7509 82.1366C51.5722 82.7016 51.4233 83.6234 51.9445 84.01C51.9445 84.01 52.0636 84.01 51.9445 84.01C51.6737 83.4385 51.6259 82.7868 51.8103 82.182C51.9948 81.5772 52.3983 81.0627 52.9421 80.7389C52.9421 80.7389 53.0314 80.6051 52.957 80.6497Z" fill="#FFA91C"/>
<path d="M40.6425 68.0706C40.4811 67.6754 40.2283 67.3238 39.9048 67.0447C39.5814 66.7656 39.1963 66.5669 38.7812 66.4648V66.5838C39.1491 66.6954 39.4879 66.8864 39.7735 67.1434C40.0591 67.4004 40.2846 67.7169 40.4341 68.0706C40.6065 68.4367 40.682 68.8408 40.6533 69.2443C40.6246 69.6478 40.4927 70.0372 40.2703 70.3753C40.2703 70.3753 40.2703 70.4645 40.3447 70.3753C40.6129 70.0614 40.7839 69.6764 40.8368 69.2672C40.8897 68.8579 40.8222 68.4422 40.6425 68.0706Z" fill="#FFA91C"/>
<path d="M43.889 68.1771C43.2934 68.7421 42.7574 69.5748 41.7895 69.322C41.7002 69.322 41.6704 69.4261 41.7895 69.441C42.2438 69.5264 42.7137 69.4553 43.1222 69.2392C43.5307 69.0231 43.8536 68.6748 44.0379 68.2515C44.0379 68.2515 43.9486 68.0731 43.889 68.1771Z" fill="#FFA91C"/>
<path d="M47.998 68.4579C47.5202 68.0877 47.1881 67.5613 47.0599 66.9711C47.0192 66.6296 47.057 66.2834 47.1705 65.9587C47.2841 65.6341 47.4703 65.3396 47.7151 65.0977C47.7151 65.0977 47.7151 65.0977 47.7151 65.0977C47.4647 65.332 47.2697 65.6192 47.1445 65.9382C47.0193 66.2573 46.9669 66.6002 46.9911 66.942C47.0154 67.2839 47.1157 67.616 47.2847 67.9142C47.4537 68.2125 47.6872 68.4693 47.9682 68.6661C47.9682 68.6364 48.0575 68.5323 47.998 68.4579Z" fill="#FFA91C"/>
<path d="M51.0507 67.4732C51.0507 67.3691 50.8571 67.4732 50.9018 67.5624C51.0638 67.9586 51.1294 68.3876 51.0932 68.8141C51.057 69.2406 50.9199 69.6524 50.6934 70.0157C50.6934 70.1198 50.7678 70.209 50.8423 70.1346C51.1534 69.7695 51.3411 69.3156 51.3786 68.8377C51.416 68.3597 51.3013 67.8821 51.0507 67.4732Z" fill="#FFA91C"/>
<path d="M58.3025 74.1986L60.9976 74.3622C60.7285 73.9846 60.3849 73.6659 59.9881 73.4256C59.5912 73.1853 59.1494 73.0284 58.6897 72.9645L57.8856 72.7861C57.9136 72.555 57.9956 72.3337 58.1249 72.14C58.2542 71.9463 58.4273 71.7857 58.6301 71.671C57.58 71.4787 56.4956 71.6409 55.5479 72.1319C55.3712 72.2647 55.1754 72.3699 54.9672 72.4441C54.6847 72.4663 54.4009 72.4663 54.1184 72.4441C53.5079 72.4441 52.8975 72.4441 52.287 72.5631C53.817 71.3945 55.5862 70.5772 57.4687 70.1693C56.5009 69.8303 55.4746 69.6899 54.4512 69.7563C53.4278 69.8228 52.4284 70.0947 51.5127 70.5558C52.069 69.3609 52.9783 68.3647 54.1184 67.7011C52.2253 67.9031 50.4591 68.7482 49.1154 70.0949C48.789 70.3726 48.5725 70.7575 48.5049 71.1803C48.4007 69.6605 48.4007 68.1354 48.5049 66.6157C48.0217 66.7336 47.569 66.9522 47.1764 67.2572C46.7837 67.5621 46.4601 67.9464 46.2267 68.385C45.8123 69.2275 45.5166 70.1231 45.3482 71.0465C44.6751 69.8265 44.3265 68.4546 44.3357 67.0617C43.4257 68.0081 42.8641 69.2346 42.7424 70.541C41.6267 69.4285 40.7812 68.0755 40.2707 66.5859C39.8686 67.9836 39.8389 70.7194 41.3279 71.4777C40.6063 71.7774 39.8068 71.8349 39.0497 71.6412C38.1908 71.4166 37.3612 71.0923 36.5779 70.6748L37.7691 73.247C37.2567 72.9387 36.7061 72.6988 36.1312 72.5334C35.6029 72.3087 35.0545 72.1345 34.4933 72.013C34.1325 71.9157 33.7523 71.9157 33.3915 72.013C33.1047 72.1774 32.8264 72.356 32.5576 72.5482C33.0525 72.755 33.5262 73.0089 33.9722 73.3065C34.4834 73.5345 34.9806 73.7927 35.4612 74.0797C35.6659 74.1958 35.8401 74.3588 35.9696 74.5553C36.099 74.7517 36.1799 74.976 36.2057 75.2097C36.3869 75.7938 36.5262 76.3901 36.6226 76.9939C36.6138 76.7115 36.6695 76.4308 36.7856 76.1732C36.9017 75.9156 37.0751 75.6877 37.2927 75.5071C37.5264 75.3054 37.8058 75.1634 38.1067 75.0935C38.4076 75.0236 38.721 75.0277 39.0199 75.1056C39.6006 75.2692 39.556 75.8342 39.556 76.3248C39.556 77.6481 39.6304 78.9714 39.6602 80.2947C39.7075 79.2971 39.9136 78.3134 40.2707 77.3805C40.3593 77.0985 40.5242 76.8464 40.7472 76.6519C40.8608 76.5536 41.0062 76.4995 41.1566 76.4995C41.307 76.4995 41.4524 76.5536 41.5661 76.6519C41.6736 76.8153 41.7305 77.0066 41.7299 77.2021C41.7299 78.1388 41.6108 79.0904 41.7299 80.0122C41.7428 80.4831 41.8753 80.9429 42.1149 81.3486C42.3545 81.7543 42.6934 82.0926 43.0998 82.3317C42.8542 81.406 42.8542 80.4324 43.0998 79.5067C43.2934 78.8079 43.9038 78.0198 44.5888 78.2726C45.2737 78.5254 45.244 79.0904 45.3184 79.6256C45.4971 80.8597 45.6609 82.1087 45.8247 83.3428C46.5563 82.2616 47.4052 81.2643 48.356 80.3691C48.8474 79.9081 49.5323 79.4324 50.1428 79.7297C50.6736 80.486 51.0348 81.3477 51.2018 82.256C51.3688 83.1643 51.3377 84.0979 51.1106 84.9932C51.8403 84.0862 52.7783 83.3576 53.5377 82.4507C53.9434 82.0278 54.2563 81.5251 54.4562 80.9747C54.6562 80.4242 54.739 79.8381 54.6991 79.2539C55.2796 79.7467 55.7523 80.3534 56.0878 81.0364C56.4234 81.7193 56.6147 82.4639 56.6497 83.2238C57.5515 81.7557 58.064 80.0825 58.1388 78.3618C58.1482 78.1887 58.2105 78.0226 58.3174 77.886C58.4321 77.7848 58.5814 77.7316 58.7344 77.7373C59.0523 77.7425 59.3647 77.8218 59.6465 77.969C59.9283 78.1161 60.1717 78.327 60.3574 78.5848C60.7056 79.1024 60.9625 79.6757 61.1168 80.2799L61.7868 82.0641C62.2486 81.1403 62.3287 80.0726 62.0102 79.0904C61.6668 78.1047 61.2016 77.1657 60.6254 76.2951L64.0054 77.3062C64.3628 77.4102 64.8244 77.4846 65.018 77.1723C62.6662 76.459 60.4109 75.4603 58.3025 74.1986Z" fill="#FFE11C"/>
<path d="M47.1501 69.8945C47.1506 70.9704 47.3422 72.0376 47.7159 73.0467C48.1328 72.0653 48.9369 71.0691 50.009 71.1138C49.6495 72.217 49.4294 73.3609 49.3538 74.5186C49.8766 73.9319 50.5879 73.5456 51.3652 73.4261C52.1425 73.3067 52.9372 73.4617 53.6124 73.8644C53.1073 74.2552 52.5513 74.5753 51.9596 74.816L56.7244 75.8865C55.7017 76.2141 54.6567 76.4675 53.5975 76.6448C54.5755 77.1112 55.3412 77.929 55.7417 78.9346C54.9882 78.9737 54.2365 78.829 53.5516 78.5129C52.8667 78.1969 52.2691 77.719 51.8107 77.1206C51.5786 78.2551 51.6557 79.431 52.034 80.5255C51.7755 79.5918 51.1608 78.7964 50.3217 78.3101C50.1897 78.2216 50.034 78.175 49.875 78.1763C49.6394 78.2272 49.4319 78.3653 49.2943 78.5629L48.0733 80.0497C47.9656 79.5012 48.0387 78.9326 48.2817 78.4291C48.3802 78.1838 48.4114 77.9167 48.3721 77.6554C48.3329 77.394 48.2246 77.1479 48.0584 76.9422C47.829 76.8211 47.5734 76.7578 47.3139 76.7578C47.0544 76.7578 46.7988 76.8211 46.5694 76.9422C45.6382 77.161 44.7648 77.5767 44.0083 78.1614C44.4203 77.1853 44.9942 76.2856 45.7058 75.5C44.1337 75.7018 42.5731 75.9847 41.0303 76.3475C41.477 76.4962 41.9088 76.1542 42.281 75.8568C43.2653 75.077 44.4348 74.5648 45.676 74.37C44.8759 74.2363 44.1485 73.8257 43.6211 73.2102C43.4722 73.0169 43.3233 72.7642 43.4425 72.556C43.5209 72.4288 43.6424 72.3338 43.7849 72.2884C44.455 72.0059 45.4526 72.2884 45.9887 71.9167C46.5247 71.5449 46.5545 70.4149 47.1501 69.8945Z" fill="#FFED4F"/>
<path d="M41.1344 74.7642C40.2708 74.4222 39.3625 74.1546 38.9902 73.2773C39.1515 73.7273 39.4344 74.1239 39.8076 74.4231C40.1809 74.7223 40.6298 74.9124 41.1046 74.9724C41.1791 74.9426 41.2089 74.8088 41.1344 74.7642Z" fill="#FFC61C"/>
<path d="M57.0366 74.6122C56.5597 74.0078 55.9027 73.5704 55.1604 73.3633C55.086 73.3633 55.0413 73.4525 55.1604 73.4822C55.6575 73.693 56.1058 74.0038 56.4772 74.3952C56.8487 74.7865 57.1354 75.2502 57.3195 75.7571C57.4386 76.0693 57.4684 76.4113 57.5726 76.7384C57.6769 77.0655 57.8109 76.8574 57.8407 76.7384C57.8411 75.9555 57.5552 75.1994 57.0366 74.6122Z" fill="#FFC61C"/>
<path d="M53.2694 81.065C53.2641 81.0384 53.2516 81.0137 53.2332 80.9937C53.2149 80.9737 53.1914 80.959 53.1653 80.9514C53.1393 80.9437 53.1116 80.9433 53.0853 80.9502C53.059 80.9572 53.0351 80.9712 53.0162 80.9907C52.9471 81.0865 52.892 81.1916 52.8524 81.3029C52.8109 81.4163 52.7505 81.5219 52.6738 81.6152C52.5173 81.8259 52.3197 82.0029 52.0931 82.1356C52.0037 82.1356 52.0931 82.3437 52.1675 82.2991C52.4577 82.2169 52.7202 82.0576 52.9269 81.8382C53.0365 81.7416 53.1238 81.6225 53.1829 81.4891C53.2421 81.3556 53.2715 81.211 53.2694 81.065Z" fill="#FFC61C"/>
<path d="M51.3931 69.0399C51.3931 68.9061 51.3931 69.0399 51.3931 69.0399C50.936 69.5267 50.6273 70.1336 50.5034 70.7893C50.3794 71.4451 50.4453 72.1225 50.6933 72.7422C50.6933 72.8314 50.8868 72.7422 50.857 72.7422C50.6509 72.1558 50.5698 71.5329 50.6188 70.9134C50.6876 70.2267 50.9568 69.5752 51.3931 69.0399Z" fill="#FFC61C"/>
<path d="M46.7632 77.543C46.7632 77.543 46.6738 77.543 46.6887 77.543C46.904 78.0673 46.9355 78.6489 46.7781 79.1934C46.7419 79.6661 46.5356 80.1097 46.1974 80.4423C46.0782 80.5464 46.1974 80.7694 46.376 80.6654C46.7775 80.2611 47.0334 79.7352 47.1034 79.1702C47.1735 78.6051 47.0538 78.0328 46.7632 77.543Z" fill="#FFC61C"/>
<path d="M34.7612 71.8921C34.315 71.4777 33.7388 71.2306 33.1307 71.1926C32.5226 71.1547 31.9201 71.3283 31.4258 71.6839C31.4258 71.6839 31.4258 71.7731 31.4258 71.6839C31.9089 71.5368 32.4099 71.4568 32.9148 71.446C33.4738 71.5165 34.0116 71.704 34.4931 71.9962C34.7314 72.13 34.8505 71.9813 34.7612 71.8921Z" fill="#FFA91C"/>
<path d="M41.5068 70.2695C41.8189 70.511 42.0692 70.8228 42.2374 71.1794C42.4056 71.5361 42.4869 71.9274 42.4747 72.3214C42.4747 72.3214 42.5938 72.4106 42.5938 72.3214C42.6091 71.9142 42.5167 71.5101 42.3259 71.1499C42.135 70.7897 41.8526 70.4861 41.5068 70.2695Z" fill="#FFC61C"/>
<path d="M47.6264 74.2955C47.4025 74.2479 47.1915 74.1527 47.0077 74.0164C46.824 73.88 46.6718 73.7057 46.5616 73.5054C46.4514 73.305 46.3857 73.0833 46.369 72.8553C46.3524 72.6273 46.3851 72.3984 46.465 72.1842C46.465 72.1842 46.465 72.095 46.3757 72.1842C46.2653 72.4117 46.2103 72.6621 46.2151 72.9148C46.22 73.1676 46.2845 73.4157 46.4035 73.6388C46.5225 73.862 46.6926 74.0539 46.8999 74.199C47.1073 74.3442 47.346 74.4383 47.5966 74.4739L47.6264 74.2955Z" fill="#FFC61C"/>
<path d="M35.5649 92.3398V95.4028C35.5577 95.9051 35.4876 96.4046 35.3564 96.8896V93.8713C35.4835 93.3858 35.5486 92.8862 35.55 92.3844L35.5649 92.3398Z" fill="#1C1C1D"/>
<path d="M35.3712 93.8633V96.9262C34.949 98.3726 34.1348 99.6744 33.0186 100.688V97.625C34.147 96.619 34.9677 95.3149 35.3861 93.8633H35.3712Z" fill="#212123"/>
<path d="M33.0038 97.6328V100.696C32.2174 101.433 31.348 102.077 30.4129 102.614C26.5473 104.661 22.2205 105.685 17.8457 105.587V102.554C22.2215 102.661 26.5506 101.637 30.4129 99.5806C31.348 99.0435 32.2174 98.3999 33.0038 97.6626V97.6328Z" fill="#272728"/>
<path d="M17.8463 102.55V105.613C15.5452 105.616 13.2515 105.352 11.0117 104.825V101.762C13.2516 102.288 15.5452 102.552 17.8463 102.55Z" fill="#212123"/>
<path d="M11.0116 101.761V104.824C9.01646 104.355 7.0969 103.609 5.30869 102.609C1.80952 100.587 0.0673828 97.94 0.0673828 95.2934V92.2305C0.0673828 94.8325 1.80952 97.5237 5.30869 99.5458C7.09503 100.55 9.01517 101.296 11.0116 101.761Z" fill="#1C1C1D"/>
<path d="M30.3387 85.0326C37.2923 89.0323 37.3221 95.5298 30.4131 99.5443C23.5041 103.559 12.2621 103.559 5.30845 99.5443C-1.64521 95.5298 -1.67499 89.0323 5.30845 85.0326C12.2919 81.033 23.385 81.0181 30.3387 85.0326Z" fill="#373737"/>
<path d="M24.5918 84.2656L24.6067 88.9789L30.7116 92.5176L30.6967 87.8043L24.5918 84.2656Z" fill="#CCBABA"/>
<path d="M30.6973 87.8033L30.7122 92.5166L41.299 86.3313L41.2841 81.6328L30.6973 87.8033Z" fill="#E4D6CF"/>
<path d="M24.5918 84.2642L30.6967 87.8029L41.2836 81.6325L35.1786 78.0938L24.5918 84.2642Z" fill="#FFF7F2"/>
<path d="M33.8229 82.7509V91.8653C33.8103 92.5041 33.6947 93.1367 33.4805 93.7387V84.5648C33.6983 83.9642 33.8092 83.3302 33.8081 82.6914L33.8229 82.7509Z" fill="#E4D6CF"/>
<path d="M33.4964 84.625V93.7989C32.9254 95.2358 31.9603 96.4829 30.7119 97.3971V88.2083C31.9627 87.3029 32.9287 86.0597 33.4964 84.625Z" fill="#F3E7E0"/>
<path d="M30.7115 88.2109V97.3997C30.2383 97.774 29.7409 98.1167 29.2225 98.4256C25.8949 100.21 22.1748 101.14 18.3975 101.132V91.9578C22.1736 91.9572 25.8915 91.0278 29.2225 89.2517C29.7445 88.9429 30.2423 88.595 30.7115 88.2109Z" fill="#EAEAEA"/>
<path d="M18.3524 91.9583V101.132C16.0874 101.169 13.8265 100.925 11.6221 100.404V91.2148C13.8245 91.7488 16.0863 91.9987 18.3524 91.9583Z" fill="#F3E7E0"/>
<path d="M11.6221 91.2111V100.4C9.85242 99.9735 8.14919 99.3082 6.5595 98.4223C3.37303 96.5935 1.80957 94.2145 1.80957 91.8653V82.6914C1.80957 85.0704 3.37303 87.4493 6.52972 89.2782C8.11719 90.1653 9.82129 90.8259 11.5923 91.2408L11.6221 91.2111Z" fill="#E4D6CF"/>
<path d="M29.1026 76.1584C35.3713 79.7715 35.4011 85.6297 29.177 89.2427C25.674 91.0236 21.7989 91.9519 17.868 91.9519C13.9372 91.9519 10.062 91.0236 6.55901 89.2427C0.290289 85.6297 0.260508 79.7715 6.48456 76.1584C9.98757 74.3776 13.8627 73.4492 17.7936 73.4492C21.7244 73.4492 25.5996 74.3776 29.1026 76.1584Z" fill="#C5C5C5"/>
<path d="M34.4475 82.0494V83.6255C34.4475 86.0639 32.8394 88.5023 29.6231 90.3758C23.1609 94.1226 12.6336 94.1226 6.12661 90.3758C2.8508 88.4726 1.21289 86.0044 1.21289 83.5214V81.9453C1.21289 84.4284 2.83591 86.9114 6.11172 88.7997C12.6336 92.5466 23.146 92.5466 29.6231 88.7997C32.8245 86.9263 34.4475 84.4284 34.4475 82.0494Z" fill="#FFA000"/>
<path d="M34.1055 84.0064C33.5135 85.497 32.5122 86.7906 31.2168 87.7384V89.3144C32.5122 88.3667 33.5135 87.0731 34.1055 85.5824C34.3277 84.9568 34.4434 84.2984 34.4479 83.6347V82.0586C34.4434 82.7224 34.3277 83.3807 34.1055 84.0064Z" fill="#212123"/>
<path d="M31.2173 87.7383V89.3143C30.7099 89.705 30.1777 90.0626 29.6241 90.3849C26.1611 92.2337 22.2941 93.199 18.3672 93.195V91.619C22.2941 91.6229 26.1611 90.6576 29.6241 88.8088C30.1777 88.4866 30.7099 88.129 31.2173 87.7383Z" fill="#272728"/>
<path d="M18.3672 91.6138V93.1898C16.017 93.2253 13.6714 92.9706 11.3838 92.4315V90.8555C13.6714 91.3945 16.017 91.6492 18.3672 91.6138Z" fill="#212123"/>
<path d="M11.3833 90.8594V92.4355C9.53485 91.9986 7.75595 91.3081 6.09732 90.3836C2.8215 88.4804 1.18359 86.0122 1.18359 83.5292V81.9531C1.18359 84.4362 2.80661 86.9192 6.08243 88.8075C7.74629 89.732 9.53012 90.4225 11.3833 90.8594Z" fill="#272728"/>
<path d="M34.4382 82.0392C34.453 76.7262 27.0253 72.3985 17.8478 72.3729C8.67036 72.3473 1.21852 76.6336 1.20366 81.9465C1.1888 87.2594 8.61656 91.5872 17.794 91.6127C26.9715 91.6383 34.4233 87.3521 34.4382 82.0392Z" fill="#FFD500"/>
<path d="M34.4382 82.0392C34.453 76.7262 27.0253 72.3985 17.8478 72.3729C8.67036 72.3473 1.21852 76.6336 1.20366 81.9465C1.1888 87.2594 8.61656 91.5872 17.794 91.6127C26.9715 91.6383 34.4233 87.3521 34.4382 82.0392Z" fill="#373737"/>
<path d="M35.2979 67.7427C35.3873 67.3424 35.4322 66.9335 35.4319 66.5234L35.2979 67.7427Z" fill="#FFA000"/>
<path d="M5.86014 60.1672C9.51623 58.2015 13.6209 57.2178 17.7722 57.3124C21.9222 57.2299 26.0238 58.2129 29.6843 60.1672C32.3942 61.7284 34.0024 63.691 34.3151 65.7875H35.3425C35.0447 63.4234 33.3323 61.1039 30.1905 59.2899C23.2964 55.32 12.1586 55.32 5.30921 59.2899C2.24186 61.1039 0.544388 63.4234 0.276367 65.7875H1.30378C1.55691 63.691 3.17993 61.7284 5.86014 60.1672Z" fill="#FF6667"/>
<path d="M29.7291 60.1696C26.0687 58.2153 21.967 57.2323 17.817 57.3148C13.6658 57.2202 9.56107 58.2039 5.90498 60.1696C2.92697 61.8943 1.28906 64.1246 1.28906 66.459C1.28906 68.7933 2.91208 71.0385 5.93476 72.8078C9.59894 74.7507 13.6989 75.7282 17.8468 75.6477C21.996 75.7395 26.0987 74.7613 29.7589 72.8078C32.7369 71.0831 34.3748 68.8528 34.3748 66.5184C34.3748 64.1841 32.8262 61.9092 29.7291 60.1696Z" fill="#2C2C2E"/>
<path d="M13.4683 60.2795C13.2142 60.1135 12.9989 59.8947 12.837 59.6382C12.6752 59.3816 12.5705 59.0932 12.5303 58.7927C12.5303 58.1831 13.1408 57.6924 13.1408 57.0977C13.7232 57.6022 14.2521 58.1652 14.7191 58.7778C15.1869 59.3955 15.4707 60.1325 15.5381 60.904C15.5578 60.9917 15.5544 61.0829 15.5283 61.1689C15.5022 61.2549 15.4543 61.3327 15.3892 61.3946C15.2849 61.3946 15.1509 61.4839 15.1211 61.6028L13.4683 60.2795Z" fill="#FFA91C"/>
<path d="M15.2853 58.9232C15.27 58.482 15.4126 58.0498 15.6873 57.704C15.9404 57.362 16.268 57.0646 16.5361 56.7227C17.0088 57.8484 17.2567 59.0555 17.2657 60.2762C17.2953 60.3883 17.2953 60.5061 17.2657 60.6182C17.2657 60.7074 17.0721 60.7818 16.9828 60.7223L15.2853 58.9232Z" fill="#FFA91C"/>
<path d="M5.3392 65.1992C4.00744 65.9735 2.96264 67.1576 2.36118 68.5744C2.72843 68.6649 3.1152 68.6336 3.46305 68.4852C2.97729 68.9574 2.59433 69.5247 2.33812 70.1515C2.08192 70.7783 1.95797 71.4511 1.97404 72.128C2.8301 71.8818 3.64716 71.5164 4.40112 71.0426C3.92076 72.1326 3.81602 73.351 4.10332 74.5069C4.20755 74.8043 4.44579 75.1314 4.75848 75.0571C4.90706 75.016 5.03792 74.9272 5.13074 74.8043C5.38387 74.5515 5.65189 74.3136 5.87524 74.046C5.90597 73.9927 5.94708 73.9461 5.99613 73.9089C6.04518 73.8717 6.10119 73.8447 6.16085 73.8295C6.22052 73.8142 6.28264 73.8111 6.34355 73.8202C6.40446 73.8293 6.46293 73.8504 6.51551 73.8824C6.60818 73.9265 6.68975 73.9908 6.75418 74.0706C6.81861 74.1504 6.86427 74.2436 6.88776 74.3434C6.91312 74.6118 6.87222 74.8824 6.76864 75.1314C6.66712 75.5045 6.61703 75.8897 6.61974 76.2763C6.60417 76.4913 6.6317 76.7072 6.70073 76.9115C6.76977 77.1157 6.87891 77.3042 7.02178 77.4658C7.02795 76.973 7.17025 76.4915 7.43298 76.0744C7.69571 75.6572 8.06868 75.3206 8.51078 75.1017L9.21062 74.834C9.40419 74.834 9.5382 74.6259 9.71688 74.5515C9.89556 74.4772 9.88067 74.5515 9.94023 74.5515C9.99979 74.5515 9.94023 74.6556 10.0296 74.7299C10.0363 75.0669 9.99113 75.4029 9.89556 75.7261C9.81598 76.1475 9.78105 76.5761 9.79133 77.0048C9.77528 77.3683 9.84676 77.7303 9.99979 78.0605C10.0239 78.1193 10.0602 78.1722 10.1065 78.2158C10.1527 78.2594 10.2077 78.2926 10.2678 78.3133C10.2678 78.3133 10.2678 78.2241 10.2678 78.1646C10.2213 77.6666 10.2565 77.1644 10.372 76.6777C10.5156 76.2468 10.7918 75.8721 11.1612 75.6072C11.6824 75.2355 12.3971 75.1165 12.8289 74.6407C13.1328 74.3345 13.3532 73.9557 13.4692 73.5405C13.4914 73.4967 13.503 73.4483 13.503 73.3992C13.503 73.3501 13.4914 73.3017 13.4692 73.258L5.3392 65.1992Z" fill="#FFA91C"/>
<path d="M8.22682 58.7767C8.04039 58.7647 7.85343 58.7901 7.67698 58.8514C7.50052 58.9127 7.33814 59.0086 7.19941 59.1335C8.1593 59.2948 9.01601 59.8295 9.58182 60.6204C9.1649 60.784 8.7033 60.5312 8.28638 60.3676C7.81605 60.1655 7.3094 60.0613 6.79738 60.0613C6.28535 60.0613 5.7787 60.1655 5.30837 60.3676C5.23921 60.3907 5.18093 60.4383 5.14458 60.5014C5.14458 60.6055 5.14458 60.6947 5.27859 60.7691L7.5121 62.8507C6.81714 62.6362 6.08194 62.5849 5.36389 62.701C4.64583 62.8171 3.96436 63.0973 3.37266 63.5198C2.90357 63.8366 2.51587 64.2594 2.24101 64.7539C1.97308 65.26 1.86902 65.8366 1.94321 66.4043C2.44948 65.4675 3.70024 65.2594 4.5043 64.5606C4.6111 65.9608 4.62105 67.3667 4.53409 68.7684C4.48911 68.9807 4.49536 69.2006 4.55232 69.41C4.60928 69.6194 4.71531 69.8123 4.86167 69.9727C4.74884 69.0255 4.96997 68.0687 5.48705 67.2666C5.73722 66.6903 6.1198 66.181 6.6038 65.7798C7.30093 65.3792 8.04653 65.0694 8.82242 64.8579C9.42237 64.6512 9.98537 64.35 10.4901 63.9658C10.795 63.7366 11.0443 63.4419 11.2197 63.1034C11.3801 62.7119 11.4611 62.2924 11.458 61.8694C11.5449 61.4412 11.5462 61.0001 11.4619 60.5714C11.3776 60.1428 11.2093 59.735 10.9666 59.3714C10.6434 59.1339 10.2635 58.9852 9.86473 58.9403C9.32836 58.8139 8.77762 58.7589 8.22682 58.7767Z" fill="#FFA91C"/>
<path d="M19.5285 59.905H19.7072C19.8114 59.5035 19.4838 59.1318 19.4242 58.7155C19.4106 58.4736 19.4563 58.2319 19.5575 58.0116C19.6587 57.7914 19.8123 57.5991 20.005 57.4517C20.8554 56.8485 21.7752 56.3493 22.7447 55.9648C22.3929 56.1043 22.0846 56.3348 21.8517 56.6327C21.6188 56.9307 21.4696 57.2852 21.4195 57.6599C21.2944 58.3582 21.3598 59.0772 21.6086 59.7417C21.8575 60.4061 22.2808 60.9915 22.8341 61.4365C22.8341 61.1837 23.1765 61.0945 23.4148 61.0647C24.1429 60.9977 24.8756 60.9977 25.6036 61.0647C26.2952 60.988 26.9815 60.8688 27.6585 60.7079C29.0793 60.6413 30.5032 60.686 31.917 60.8417C31.7383 61.3472 31.5448 61.8379 31.3363 62.3286C31.1761 62.7329 30.9606 63.1132 30.696 63.4586C30.4154 63.7809 30.0771 64.0481 29.6984 64.2466C28.5643 64.8289 27.3227 65.173 26.0503 65.2577L19.5285 59.905Z" fill="#FFA91C"/>
<path d="M20.8092 75.6523C21.2708 75.5334 21.6877 75.9349 22.0451 76.2471C22.5723 76.7111 23.184 77.0695 23.8468 77.3028C23.9361 77.0203 23.6085 76.7824 23.4001 76.5742C23.2457 76.38 23.1386 76.1528 23.0869 75.9103C23.0352 75.6678 23.0405 75.4167 23.1023 75.1766C23.2317 74.705 23.438 74.258 23.7127 73.8533C24.4126 74.9089 25.8271 75.4442 26.2738 76.6337C26.3632 76.8716 27.5246 75.3847 27.5842 74.448C27.6054 73.5021 27.3464 72.5711 26.8397 71.7717C27.6884 75.132 31.1727 73.8235 31.1727 73.8235C30.9588 73.1202 30.6587 72.4461 30.2793 71.8163C30.1096 71.6681 29.9951 71.467 29.9546 71.2456C29.914 71.0242 29.9497 70.7956 30.0559 70.5971C30.0763 70.5588 30.1061 70.5264 30.1426 70.5029C30.1791 70.4795 30.2211 70.4658 30.2644 70.4632C30.2987 70.4652 30.3322 70.4742 30.3629 70.4895C30.3936 70.5048 30.4209 70.5263 30.4431 70.5524C31.0089 71.058 32.5277 72.9165 32.5277 72.9165C32.6853 72.8212 32.8261 72.7006 32.9446 72.5597C33.4465 72.0024 33.7364 71.2866 33.7635 70.5376C33.634 69.885 33.3065 69.288 32.8255 68.8277C32.1873 67.848 31.2837 67.0694 30.2197 66.5826C29.4197 66.4118 28.5926 66.4118 27.7926 66.5826C25.3201 67.1251 22.7767 67.2706 20.2582 67.0137C18.8622 66.7028 17.525 66.1707 16.2975 65.4377C15.3167 64.8884 14.3717 64.2776 13.4684 63.6089C13.0674 63.2225 12.5363 62.9998 11.9794 62.9844C11.1753 62.9844 10.4904 64.04 9.76074 63.8913L20.8092 75.6523Z" fill="#FFA91C"/>
<path d="M21.0478 72.3653C21.1678 72.7479 21.1884 73.1547 21.1077 73.5475C21.0269 73.9402 20.8475 74.306 20.5862 74.6105C20.3479 74.8781 20.0501 75.0862 19.797 75.339C19.1865 75.9338 17.9209 77.5395 17.9209 77.5395C17.9209 77.5395 16.4319 76.4839 17.5337 73.6291C16.9828 74.6997 15.4491 77.2719 15.4491 77.2719C15.4491 77.2719 14.0494 75.9784 14.9131 73.0939C14.1068 73.8842 13.5261 74.8747 13.2305 75.9635C12.4233 74.835 11.9863 73.4844 11.9797 72.0977C11.53 72.5903 11.2394 73.207 11.1459 73.867C10.6177 73.265 10.2365 72.5489 10.0324 71.7749C9.8283 71.0009 9.80679 70.1902 9.96956 69.4065L8.48055 72.2761L7.67649 67.652C7.58715 67.1316 7.25957 66.2841 7.43825 65.7934C7.77853 65.2648 8.31335 64.891 8.92726 64.7526C9.0166 64.7526 8.92726 64.5742 8.92726 64.5742C8.56142 64.6585 8.21618 64.8151 7.91187 65.0347C7.60756 65.2543 7.35033 65.5325 7.15534 65.8529C6.90349 66.1574 6.72435 66.515 6.63147 66.8989C6.5386 67.2827 6.53444 67.6826 6.61929 68.0683C6.61929 68.0683 6.72352 68.0683 6.73841 68.0683C6.70599 67.3773 6.87126 66.6914 7.2149 66.0908V65.9867L21.0478 72.3653Z" fill="#FFA91C"/>
<path d="M35.0745 67.4893V66.5823C34.7946 66.4377 34.5001 66.3231 34.196 66.2403L32.5879 65.7348C33.1273 65.3501 33.6262 64.9117 34.0769 64.4264C33.8324 64.6504 33.5417 64.8184 33.2254 64.9185C32.909 65.0187 32.5746 65.0486 32.2454 65.0063C31.5871 64.9066 30.9605 64.6574 30.414 64.2777L29.8481 63.9655C30.8011 64.1588 31.8434 64.6494 32.573 64.0695C30.3522 63.0525 28.0104 62.323 25.6045 61.8987C26.6718 61.4136 27.6726 60.794 28.5825 60.055C28.6531 60.006 28.7095 59.9394 28.7463 59.8617C28.8356 59.6239 28.5229 59.4306 28.2698 59.3711C26.2596 58.9696 24.2048 60.3524 22.1797 59.9658C23.0061 59.2526 24.0656 58.8665 25.1578 58.8804C24.2548 58.4473 23.2582 58.245 22.2576 58.2917C21.2569 58.3384 20.2836 58.6327 19.4251 59.1481C19.2886 57.7756 19.6078 56.3964 20.3334 55.2228C19.3491 55.6158 18.4541 56.2027 17.702 56.9487C16.9499 57.6946 16.356 58.5842 15.9557 59.5644C15.5943 57.9603 15.5791 56.2979 15.911 54.6875C15.4425 54.8255 15.0172 55.0811 14.6758 55.4299C14.3343 55.7787 14.088 56.209 13.9604 56.6799C13.7239 57.6524 13.6584 58.6586 13.7668 59.6536C12.4747 57.9816 10.7274 56.7168 8.734 56.0108C9.31174 57.0015 9.77624 58.0538 10.1188 59.1481C10.2593 59.4669 10.3192 59.8154 10.2933 60.1628C10.2673 60.5102 10.1563 60.8459 9.96988 61.1404C8.69112 60.8013 7.4851 60.232 6.41115 59.4603C5.96445 59.1481 5.41352 58.7763 4.92214 59.0291C5.84957 59.9948 6.53351 61.167 6.91741 62.4489H6.66428C6.12421 62.0303 5.52769 61.6899 4.89236 61.4378C4.51665 61.2815 4.11105 61.2097 3.70442 61.2277C3.29779 61.2457 2.90012 61.353 2.53973 61.5419C2.36105 61.646 2.16748 61.8987 2.30149 62.0623C2.36694 62.1252 2.45005 62.1667 2.53973 62.1812L4.11808 62.5976C3.89386 62.8743 3.72685 63.1927 3.62671 63.5343C3.28012 64.5562 3.08449 65.623 3.04599 66.7013C3.04599 66.9243 3.04599 67.2217 3.26934 67.3406H3.35868C3.84007 66.4788 4.48192 65.7167 5.24972 65.0955C4.80302 65.2293 4.63923 67.0433 4.57967 67.4596C4.46178 68.3918 4.4468 69.3342 4.535 70.2697C4.9404 69.9116 5.3971 69.6159 5.89 69.3925C5.69381 70.3004 5.62367 71.231 5.68154 72.158C5.68535 72.613 5.80857 73.059 6.0389 73.4516C6.06331 73.4983 6.09704 73.5396 6.13801 73.5728C6.17898 73.6061 6.22633 73.6306 6.27714 73.6449C6.47071 73.6449 6.6345 73.4813 6.75362 73.3029C7.24735 72.5068 7.93343 71.8473 8.74889 71.3849C8.40597 72.698 8.45253 74.0824 8.8829 75.3696C8.90605 75.4266 8.94811 75.4738 9.00202 75.5034C9.12114 75.5034 9.19559 75.3845 9.24026 75.2804C9.67772 74.2025 10.417 73.2733 11.3695 72.6041C10.9302 73.9165 10.9302 75.3359 11.3695 76.6483C12.3213 75.6189 13.2019 74.526 14.0051 73.3772C13.6711 74.5227 13.7718 75.7509 14.288 76.8267C14.288 76.9606 14.4667 77.1092 14.6007 77.0944C14.7316 75.9429 15.2893 74.8821 16.1642 74.1207C15.8573 75.2524 15.9041 76.4508 16.2982 77.5553C16.9357 76.6052 17.6637 75.7189 18.4721 74.9087C18.6255 74.7715 18.7562 74.6109 18.8593 74.4329C18.9382 74.2535 18.9884 74.0629 19.0082 73.8679C19.0082 73.6746 19.0082 73.4665 19.0082 73.2434C19.4704 74.7319 19.7602 76.2685 19.8718 77.8229C20.4823 75.9941 22.5818 74.983 23.1625 73.1542C23.1017 74.328 22.9272 75.4932 22.6413 76.6334C23.4901 75.8305 24.2941 75.7265 25.0089 74.7749C25.4262 73.9782 25.7128 73.1198 25.8576 72.2324L25.664 75.6373C26.9647 74.1231 27.997 72.3984 28.7165 70.5374C28.6502 71.5275 28.6502 72.5209 28.7165 73.5111C29.2803 73.301 29.8155 73.0213 30.3097 72.6784C30.7754 72.155 31.1291 71.5421 31.3493 70.8774C31.5695 70.2127 31.6515 69.5101 31.5903 68.8126C31.6945 69.3181 32.4986 71.4741 32.4986 71.4741C32.4986 71.4741 33.3324 70.7901 33.4217 70.24C33.6027 69.34 33.6578 68.4193 33.5855 67.5042C33.5939 67.445 33.5939 67.3849 33.5855 67.3258C34.0854 67.1997 34.614 67.2578 35.0745 67.4893Z" fill="#FFC61C"/>
<path d="M26.2446 60.0539C25.4554 60.381 24.7556 60.6784 24.4727 61.5407H24.5471C24.7854 61.2136 24.9045 60.8271 25.2618 60.5892C25.5924 60.4019 25.9357 60.2379 26.2893 60.0985C26.2893 60.0985 26.3041 60.0242 26.2446 60.0539Z" fill="#FFA91C"/>
<path d="M27.7633 68.6328C27.674 68.6328 27.674 68.7518 27.7633 68.7666C28.8354 68.8558 29.1481 69.971 29.2523 70.878C29.2523 70.878 29.3268 70.878 29.3416 70.878C29.3886 70.6268 29.3849 70.3687 29.3306 70.119C29.2763 69.8693 29.1726 69.6329 29.0256 69.4237C28.8786 69.2146 28.6912 69.0369 28.4744 68.901C28.2576 68.7652 28.0159 68.674 27.7633 68.6328Z" fill="#FFA91C"/>
<path d="M22.7156 70.644C22.2227 70.9344 21.8603 71.4028 21.7031 71.9524C21.5542 72.4431 21.4202 73.1716 21.8669 73.5433C21.8669 73.5433 21.9563 73.5433 21.8669 73.5433C21.6373 73.0621 21.5971 72.5122 21.7543 72.0028C21.9115 71.4933 22.2546 71.0614 22.7156 70.7927C22.7156 70.7927 22.7752 70.6142 22.7156 70.644Z" fill="#FFA91C"/>
<path d="M12.307 60.0383C12.1892 59.7032 11.9924 59.4013 11.7333 59.1581C11.4741 58.9148 11.1602 58.7374 10.818 58.6406C10.818 58.6406 10.7287 58.715 10.818 58.7298C11.1319 58.821 11.421 58.982 11.6635 59.201C11.9059 59.4199 12.0954 59.6909 12.2177 59.9937C12.3511 60.311 12.3994 60.6575 12.3576 60.9991C12.3158 61.3407 12.1855 61.6655 11.9795 61.9414C12.208 61.6872 12.36 61.3737 12.4179 61.037C12.4759 60.7003 12.4375 60.3541 12.307 60.0383Z" fill="#FFA91C"/>
<path d="M15.0468 60.0814C14.5405 60.5572 14.0938 61.256 13.2748 61.0479C13.2748 61.0479 13.1706 61.1371 13.2748 61.152C13.658 61.2209 14.0533 61.1586 14.3966 60.9751C14.7398 60.7916 15.0109 60.4976 15.1659 60.1409C15.1659 60.1409 15.1063 60.0368 15.0468 60.0814Z" fill="#FFA91C"/>
<path d="M21.1074 59.4905C21.1074 59.4013 20.9436 59.4905 20.9883 59.5648C21.1297 59.9002 21.1873 60.265 21.1562 60.6276C21.125 60.9902 21.0061 61.3399 20.8096 61.6464C20.8096 61.6464 20.884 61.81 20.9436 61.7505C21.2077 61.44 21.366 61.0535 21.3954 60.6472C21.4249 60.2409 21.324 59.8357 21.1074 59.4905Z" fill="#FFA91C"/>
<path d="M27.2415 65.1849L29.5196 65.3187C29.289 65.002 28.9979 64.7338 28.6632 64.5297C28.3284 64.3256 27.9566 64.1895 27.569 64.1292L26.899 63.9806C26.9198 63.7875 26.9859 63.602 27.092 63.4392C27.198 63.2765 27.3411 63.141 27.5095 63.0438C26.6269 62.8803 25.7148 63.0163 24.9186 63.4304C24.7647 63.5366 24.6 63.6263 24.4272 63.6981C24.1895 63.7202 23.9502 63.7202 23.7125 63.6981C23.2146 63.7049 22.7175 63.7396 22.2235 63.8021C23.5083 62.8021 25.0061 62.1103 26.6012 61.78C25.7764 61.4799 24.8986 61.3527 24.0224 61.4064C23.1462 61.4602 22.2906 61.6936 21.5088 62.0923C21.981 61.0843 22.7497 60.244 23.7125 59.6836C22.0889 59.8313 20.5699 60.5475 19.4242 61.7057C19.1431 61.9387 18.9576 62.2668 18.903 62.6275C18.8136 61.3405 18.8136 60.0488 18.903 58.7617C18.5097 58.87 18.1428 59.0579 17.8252 59.3137C17.5076 59.5694 17.246 59.8877 17.0566 60.2486C16.6792 60.9729 16.4132 61.7498 16.2675 62.5532C15.7031 61.5079 15.4161 60.3357 15.4336 59.1483C14.658 59.9579 14.1804 61.0062 14.0786 62.122C13.1308 61.1826 12.4124 60.0379 11.9791 58.7766C11.6218 59.9661 11.6069 62.2856 12.8725 62.9249C12.2604 63.184 11.5789 63.2312 10.9368 63.0587C10.2064 62.8721 9.5014 62.5975 8.83733 62.241L9.84985 64.4266C9.43656 64.1667 8.99105 63.9618 8.52464 63.817C8.07305 63.6287 7.60433 63.4843 7.12497 63.3858C6.82373 63.2966 6.50303 63.2966 6.20179 63.3858C5.9598 63.5204 5.72611 63.6694 5.50195 63.8319C5.91206 64.0254 6.30988 64.2439 6.69316 64.4861C7.12501 64.6744 7.54297 64.8931 7.94392 65.1403C8.1139 65.2424 8.25934 65.3806 8.36998 65.545C8.48061 65.7095 8.55374 65.8961 8.5842 66.0919C8.7323 66.5791 8.84673 67.0759 8.92667 67.5787C8.88437 67.3198 8.9081 67.0544 8.99568 66.807C9.08326 66.5597 9.23185 66.3383 9.42774 66.1635C9.62363 65.9886 9.86049 65.8659 10.1164 65.8066C10.3724 65.7473 10.6392 65.7534 10.8922 65.8243C11.3835 65.973 11.3538 66.4339 11.3538 66.8651L11.4431 70.2253C11.5084 69.4207 11.6889 68.6296 11.9791 67.8761C12.0585 67.6339 12.2027 67.418 12.3961 67.2516C12.4923 67.1718 12.6134 67.1282 12.7385 67.1282C12.8636 67.1282 12.9848 67.1718 13.081 67.2516C13.1835 67.388 13.2313 67.5577 13.215 67.7274C13.215 68.5155 13.1257 69.3184 13.215 70.1064C13.2245 70.5056 13.3346 70.896 13.5349 71.2416C13.7353 71.5872 14.0196 71.8769 14.3615 72.0839C14.1532 71.2995 14.1532 70.4745 14.3615 69.6901C14.5253 69.0953 15.0316 68.4263 15.6123 68.6344C16.193 68.8426 16.1632 69.3332 16.2228 69.7793C16.3568 70.835 16.5057 71.8906 16.6546 72.9463C17.2653 72.0297 17.9798 71.1866 18.7839 70.4335C19.2008 70.0321 19.7815 69.6455 20.2729 69.8834C20.7173 70.5269 21.0201 71.2571 21.1612 72.026C21.3024 72.7948 21.2787 73.5849 21.0919 74.3439C21.7023 73.5708 22.4915 72.9612 23.1318 72.2029C23.4792 71.8568 23.7521 71.4436 23.9339 70.9885C24.1157 70.5334 24.2025 70.046 24.189 69.5563C24.6714 69.9717 25.0631 70.4817 25.3397 71.0546C25.6164 71.6276 25.7721 72.2512 25.7971 72.8868C26.5648 71.6446 27.0005 70.2266 27.0628 68.7682C27.071 68.6225 27.1229 68.4827 27.2117 68.3668C27.3149 68.2877 27.4393 68.2412 27.569 68.233C27.8367 68.2398 28.0993 68.3077 28.3368 68.4314C28.5742 68.5551 28.7802 68.7313 28.9389 68.9467C29.2605 69.3979 29.5022 69.9008 29.6537 70.4335L30.2195 71.9204C30.6201 71.1157 30.6843 70.1852 30.3982 69.3332C30.1151 68.4956 29.7194 67.7003 29.2218 66.9691L32.0956 67.8315C32.3934 67.9207 32.7806 67.9653 32.9444 67.7126C30.9479 67.1037 29.0329 66.255 27.2415 65.1849Z" fill="#FFE11C"/>
<path d="M17.8168 61.543C17.7904 62.453 17.9318 63.3602 18.2337 64.2193C18.591 63.3867 19.276 62.5392 20.1694 62.5689C19.8745 63.5059 19.6896 64.4738 19.6184 65.4534C20.063 64.9597 20.666 64.6361 21.3237 64.5384C21.9814 64.4407 22.6526 64.575 23.2218 64.9181C22.795 65.2375 22.3298 65.5022 21.8371 65.7062L25.8574 66.6131C24.9932 66.8994 24.1067 67.1133 23.207 67.2525C24.0377 67.6485 24.687 68.3446 25.0235 69.2003C24.3912 69.2367 23.7594 69.1207 23.1814 68.8619C22.6035 68.6031 22.0964 68.2092 21.7031 67.7134C21.5084 68.6739 21.57 69.6687 21.8817 70.5979C21.6532 69.7976 21.1183 69.1192 20.3927 68.7096C20.2796 68.6416 20.1521 68.6008 20.0205 68.5907C19.8193 68.6386 19.6438 68.7608 19.5291 68.9326L18.5017 70.137C18.4074 69.6739 18.4702 69.1925 18.6804 68.7691C18.8144 68.323 18.8591 67.758 18.4868 67.4755C18.2975 67.3801 18.0884 67.3304 17.8763 67.3304C17.6642 67.3304 17.4551 67.3801 17.2658 67.4755C16.4758 67.6576 15.7343 68.0075 15.0919 68.5014C15.4583 67.6926 15.9621 66.9532 16.5809 66.3158C15.2482 66.4789 13.9258 66.7171 12.6201 67.0295C12.9924 67.1633 13.3646 66.8659 13.6773 66.6131C14.5062 65.9571 15.4912 65.5268 16.5362 65.3642C15.8629 65.2403 15.2529 64.8884 14.809 64.368C14.6749 64.2193 14.5558 63.9963 14.6601 63.8179C14.6883 63.7625 14.7283 63.7139 14.7771 63.6755C14.8259 63.637 14.8825 63.6095 14.943 63.5948C15.5088 63.3569 16.3575 63.5948 16.8191 63.2826C17.2807 62.9703 17.3105 61.989 17.8168 61.543Z" fill="#FFED4F"/>
<path d="M12.7089 65.6592C11.9942 65.3619 11.2199 65.1537 10.9072 64.3359C11.0366 64.7255 11.2724 65.0712 11.5882 65.3339C11.9039 65.5967 12.287 65.766 12.694 65.8228C12.7685 65.8079 12.7834 65.689 12.7089 65.6592Z" fill="#FFC61C"/>
<path d="M26.1701 65.5283C25.79 65.0363 25.2716 64.6688 24.6811 64.4727C24.6811 64.4727 24.5769 64.547 24.6811 64.5767C25.2502 64.8193 25.7402 65.2158 26.0956 65.7216C26.2691 65.9592 26.4094 66.2194 26.5126 66.4948C26.6168 66.7773 26.6466 67.0598 26.721 67.3423C26.7295 67.365 26.7447 67.3847 26.7647 67.3985C26.7847 67.4124 26.8084 67.4198 26.8327 67.4198C26.857 67.4198 26.8808 67.4124 26.9007 67.3985C26.9207 67.3847 26.9359 67.365 26.9444 67.3423C26.9284 66.6609 26.6513 66.0117 26.1701 65.5283Z" fill="#FFC61C"/>
<path d="M22.9979 71.0364C22.9856 71.018 22.9691 71.0029 22.9496 70.9925C22.9301 70.982 22.9083 70.9766 22.8862 70.9766C22.8641 70.9766 22.8423 70.982 22.8228 70.9925C22.8033 71.0029 22.7867 71.018 22.7745 71.0364C22.7125 71.1158 22.6669 71.2068 22.6405 71.304C22.5946 71.3936 22.5397 71.4783 22.4767 71.5568C22.3529 71.7389 22.1902 71.8912 22.0002 72.0029C21.9805 72.0029 21.9615 72.0107 21.9476 72.0246C21.9336 72.0386 21.9258 72.0575 21.9258 72.0772C21.9258 72.0969 21.9336 72.1158 21.9476 72.1298C21.9615 72.1437 21.9805 72.1515 22.0002 72.1515C22.2447 72.075 22.4652 71.9367 22.6405 71.7501C22.8341 71.4825 23.0425 71.2148 22.9979 71.0364Z" fill="#FFC61C"/>
<path d="M17.488 68.0742C17.3987 68.0742 17.488 68.0742 17.488 68.0742C17.652 68.5206 17.652 69.0106 17.488 69.457C17.4579 69.8581 17.2895 70.2364 17.0115 70.5275C16.8924 70.6019 17.0115 70.7952 17.1604 70.7208C17.4932 70.3738 17.7049 69.9287 17.764 69.4518C17.823 68.9749 17.7262 68.4917 17.488 68.0742Z" fill="#FFC61C"/>
<path d="M7.33351 63.2237C6.95624 62.8816 6.47374 62.6776 5.96513 62.6452C5.45651 62.6128 4.95196 62.7539 4.53418 63.0453C4.53418 63.0453 4.53418 63.1345 4.53418 63.1197C4.9646 62.9914 5.41032 62.9214 5.8594 62.9115C6.3308 62.9709 6.78328 63.1333 7.18461 63.3873C7.19537 63.3971 7.20794 63.4046 7.22162 63.4095C7.2353 63.4144 7.24981 63.4166 7.26433 63.4159C7.27885 63.4152 7.29309 63.4117 7.30623 63.4055C7.31938 63.3993 7.33118 63.3906 7.34096 63.3799C7.35074 63.3691 7.3583 63.3566 7.36322 63.3429C7.36813 63.3293 7.37031 63.3148 7.36962 63.3003C7.36893 63.2858 7.36538 63.2715 7.35919 63.2584C7.35299 63.2453 7.34427 63.2335 7.33351 63.2237Z" fill="#FFA91C"/>
<path d="M13.0361 61.8711C13.298 62.0772 13.5074 62.3422 13.6472 62.6446C13.7869 62.9469 13.853 63.278 13.8402 63.6107H13.9295C13.9505 63.2674 13.8786 62.9248 13.7215 62.6187C13.5643 62.3126 13.3276 62.0544 13.0361 61.8711Z" fill="#FFC61C"/>
<path d="M18.2038 65.2608C18.0152 65.2199 17.8377 65.1388 17.6834 65.0231C17.5292 64.9074 17.4017 64.7599 17.3098 64.5904C17.2179 64.421 17.1637 64.2338 17.151 64.0416C17.1382 63.8493 17.1672 63.6566 17.2359 63.4766C17.2359 63.4766 17.2359 63.4766 17.2359 63.4766C17.1392 63.669 17.0898 63.8816 17.0919 64.0969C17.094 64.3122 17.1475 64.5238 17.2479 64.7143C17.3484 64.9048 17.4929 65.0686 17.6695 65.1921C17.8461 65.3156 18.0497 65.3952 18.2633 65.4243L18.2038 65.2608Z" fill="#FFC61C"/>
<path d="M3.0459 65.1719C3.06889 65.3795 3.02172 65.5888 2.91189 65.7666C2.79714 65.9405 2.65656 66.0959 2.49496 66.2275C1.9949 66.6694 1.43929 67.0443 0.842167 67.3427C0.842167 67.3427 0.723046 67.3427 0.752826 67.3427C0.883856 67.3662 1.00679 67.4225 1.11019 67.5062C1.34414 67.6874 1.61269 67.819 1.89936 67.8928C2.2484 67.9257 2.5996 67.8586 2.91189 67.6995L4.5349 67.0156C4.74071 66.9489 4.93617 66.8538 5.11562 66.7331C5.29382 66.6047 5.41629 66.4132 5.45809 66.1978L3.0459 65.1719Z" fill="#FFA91C"/>
<path d="M34.3142 65.7969C34.3295 66.0395 34.3295 66.2828 34.3142 66.5254C34.3142 68.8598 32.6763 71.0901 29.6983 72.8148C26.0381 74.7683 21.9354 75.7464 17.7862 75.6547C13.6383 75.7351 9.53836 74.7577 5.87418 72.8148C2.91105 71.0455 1.25826 68.8152 1.24337 66.466C1.22127 66.2435 1.22127 66.0194 1.24337 65.7969H0.275511C-0.052071 68.6219 1.67518 71.5213 5.42748 73.6921C12.3216 77.662 23.4594 77.662 30.3088 73.6921C34.0462 71.5213 35.7288 68.6219 35.3863 65.7969H34.3142Z" fill="#FF6667"/>
<path d="M35.0593 68.6187C34.4212 70.1818 33.3589 71.536 31.992 72.5291L30.6816 87.1449C31.929 86.2359 32.8941 84.9939 33.4661 83.5616C33.6819 82.9548 33.7975 82.3171 33.8086 81.6733L35.2976 67.7266C35.2425 68.0299 35.1628 68.3282 35.0593 68.6187Z" fill="#E01617"/>
<path d="M31.9916 72.5312L30.6813 87.147C30.2081 87.5213 29.7107 87.864 29.1923 88.1729C25.8671 89.9642 22.1453 90.8946 18.3672 90.879L18.4416 76.635C22.5975 76.643 26.6905 75.6212 30.3537 73.6613C30.9263 73.3245 31.4737 72.9469 31.9916 72.5312Z" fill="#FF3334"/>
<path d="M18.3974 76.6623L18.323 90.9063C16.0576 90.9509 13.7958 90.7061 11.5927 90.1778L10.9971 75.8594C13.4337 76.4463 15.9361 76.7161 18.4421 76.6623H18.3974Z" fill="#E01617"/>
<path d="M10.9967 75.8604C9.04698 75.4034 7.172 74.6725 5.42786 73.6896C4.21465 73.1066 3.13731 72.2761 2.26532 71.2517C1.39332 70.2273 0.746044 69.0317 0.365234 67.7422L1.85424 81.6591C1.85424 84.0381 3.4177 86.4319 6.5744 88.2459C8.16408 89.1318 9.86731 89.7971 11.637 90.2234L10.9967 75.8604Z" fill="#BC0304"/>
<path d="M57.4983 52.0446C57.4983 51.7621 57.3047 51.9108 57.0665 52.223C57.4113 52.988 57.4703 53.8511 57.2326 54.6558C56.9949 55.4604 56.4764 56.1535 55.7711 56.6092C54.5947 57.1891 53.9247 56.52 53.1206 55.8955C53.0651 56.2479 53.1383 56.6085 53.327 56.9115C53.5156 57.2145 53.807 57.4397 54.148 57.5459C54.6884 57.7729 55.2945 57.7887 55.8461 57.5905C56.3977 57.3922 56.8545 56.9942 57.1261 56.4754C57.4026 55.6978 57.6069 54.8965 57.7366 54.0816C57.7535 53.3948 57.6733 52.709 57.4983 52.0446Z" fill="#1B1B1B"/>
<path d="M51.0666 62.2005C51.0836 62.2241 51.1059 62.2431 51.1319 62.2561C51.1578 62.269 51.1865 62.2755 51.2155 62.2749C51.2155 62.2005 51.1113 62.1262 51.0518 62.1857H51.1858L51.0666 62.2005Z" fill="#F0FAFC"/>
<path d="M129.933 59.9949C129.933 60.3763 127.387 59.2631 127.315 59.2322C127.366 59.2734 128.727 60.3866 128.407 60.8092C128.407 60.8092 126.768 60.6443 125.325 58.8508C125.336 58.892 125.665 59.9331 125.325 59.7269C124.975 59.5105 123.882 57.3768 123.996 56.1295C124.109 54.872 123.552 56.0161 123.552 56.0161C123.552 56.0161 122.738 54.3875 123.068 51.8724C123.336 49.78 123.614 50.0274 123.449 49.3264C123.439 49.2774 123.425 49.2292 123.408 49.1821C123.377 49.0687 123.336 48.9244 123.284 48.7595C122.851 47.2855 122.903 44.0076 123.068 41.9976C123.233 39.9773 122.408 36.5964 122.408 36.5964L121.779 30.1747L120.718 19.3516C122.687 19.8463 123.233 20.238 123.882 21.8976C124.542 23.5571 125.521 24.9796 125.624 27.103C125.738 29.2264 125.026 39.7609 124.697 42.9769C124.645 43.4975 124.635 44.0214 124.666 44.5436C124.81 47.1515 125.841 49.3883 125.841 49.3883L125.078 48.9244C125.078 48.9244 126.222 51.5941 126.82 52.3054C127.418 53.0166 128.242 53.3052 128.026 53.6248C127.809 53.9443 126.933 53.8309 127.645 54.5937C128.356 55.3565 129.335 55.9543 129.17 56.7171C129.17 56.7171 128.84 56.3357 127.748 56.3872C126.655 56.4491 129.933 59.6135 129.933 59.9949Z" fill="#3D3939"/>
<path d="M123.542 49.3764L123.439 49.3248C123.429 49.2758 123.415 49.2276 123.398 49.1805C123.367 49.0671 123.326 48.9228 123.274 48.7579C122.842 47.2839 122.893 44.006 123.058 41.996C123.223 39.9757 122.398 36.5948 122.398 36.5948L121.77 30.1731L123.594 30.0391C124.666 34.3374 122.512 46.6448 123.542 49.3764Z" fill="#CCBDB6"/>
<path d="M83.3733 73.4039C83.0847 73.6513 83.1363 74.1461 83.1981 74.9192C83.2187 75.2799 83.229 75.6304 83.1672 75.8469C82.9507 76.5272 78.0855 76.4963 77.7144 76.1767C77.4052 75.919 78.2092 74.9295 78.8689 74.0018C79.0132 73.7956 79.1472 73.5895 79.2709 73.3936C79.9099 72.3216 79.5389 70.9404 79.5389 70.9404C79.3636 69.6932 79.1781 68.6727 78.9926 67.8378C78.4669 65.467 77.9206 64.5187 77.3949 63.859C77.2402 63.6631 77.0753 63.1477 76.931 62.519C76.9001 62.3747 76.8692 62.2304 76.8279 62.0757C76.529 60.643 76.2919 58.8391 76.2198 58.3237C76.1167 57.5094 75.2612 57.2105 72.375 57.695V56.1488L80.147 51.8711C80.147 51.8711 80.6727 54.8913 80.8273 55.7674C80.8479 55.8808 80.8686 55.9633 80.8686 55.9839C80.9201 56.2003 81.6726 60.5296 81.7756 62.1273C81.7963 62.3953 81.8066 62.6324 81.8272 62.8488C81.889 63.7456 81.889 64.6527 82.1158 65.5185C82.6518 67.5904 83.2703 70.6415 83.3733 71.3939C83.497 72.301 83.8269 73.0122 83.3733 73.4039Z" fill="#494448"/>
<path d="M80.817 55.7571C80.3532 57.9527 79.0647 60.5296 76.9207 62.519C76.5806 61.045 76.2919 58.8907 76.2198 58.3237C76.1167 57.5094 75.2612 57.2105 72.375 57.695V56.1488L80.147 51.8711C80.1367 51.8711 80.6624 54.8913 80.817 55.7571Z" fill="#353132"/>
<path d="M116.327 60.4085C115.904 63.1813 115.358 67.2838 115.708 67.9641C116.244 69.0052 115.296 70.273 115.245 70.572C115.111 71.3554 115.008 71.5718 114.616 72.0047C114.224 72.448 113.74 72.8912 113.43 73.0561C112.812 73.386 110.317 73.5509 109.833 73.0561C109.452 72.6747 110.245 71.7367 110.946 70.943C111.152 70.7163 111.348 70.4998 111.503 70.3143C112.194 69.5 111.956 68.799 112.08 66.6138C112.204 64.4286 111.709 61.5218 111.307 58.615C111.173 57.6998 110.981 56.7943 110.73 55.9041C110.07 53.5436 109.039 51.1522 107.957 50.3482L111.152 47.8125H116.719L116.76 57.8213C116.75 57.811 116.554 58.9242 116.327 60.4085Z" fill="#444041"/>
<path d="M116.75 57.8096C116.75 57.8096 116.554 58.9228 116.327 60.4071L116.234 60.5824C116.234 60.5824 112.657 55.6553 110.73 55.8923C110.07 53.5319 109.039 51.1405 107.957 50.3365L111.152 47.8008H116.719L116.75 57.8096Z" fill="#353132"/>
<path d="M108.802 50.0528C110.358 50.6507 110.729 52.5679 110.925 53.1039C111.121 53.6399 111.605 53.7945 111.904 53.3925C112.203 52.9905 112.028 52.1659 112.028 52.1659L112.08 50.3002L111.234 49.3828L108.802 50.0528Z" fill="#DBA9A9"/>
<path d="M102.875 50.151C107.905 51.3055 110.668 49.9346 111.224 50.4809C111.781 51.0375 111.966 53.5423 112.843 53.4701C113.708 53.3877 113.162 50.8829 113.162 50.5221C113.162 50.1613 116.007 49.347 116.007 49.347L116.718 40.7401L107.39 39.5547L102.875 50.151Z" fill="#EDBCBC"/>
<path d="M107.483 45.717C109.709 43.5421 111.327 42.9133 112.348 44.109C113.368 45.3047 114.605 46.9746 115.121 50.2833L116.749 48.4589L115.791 40.089L110.616 37.9141L106.4 43.5318L107.483 45.717Z" fill="#B28686"/>
<path d="M121.666 45.3866C120.645 48.9736 120.872 52.2515 121.79 55.0346C122.135 56.1035 122.114 57.2574 121.728 58.3125C121.637 58.5105 121.558 58.7136 121.491 58.9206C121.233 59.8586 120.398 68.9706 120.697 70.7951C120.893 72.0011 120.481 72.1557 120.233 72.4031C120.048 72.5887 119.378 73.0319 119.47 73.5267C119.475 73.5515 119.475 73.5772 119.47 73.602C119.464 73.6268 119.454 73.6503 119.439 73.671C119.171 74.1039 117.399 74.475 116.461 74.475C115.43 74.475 115.069 74.1657 115.069 74.0214C115.187 73.433 115.403 72.8685 115.708 72.3516C116.143 71.5833 116.495 70.7713 116.759 69.9293C117.048 69.0016 117.79 64.6105 117.357 62.6932C116.904 60.6729 116.193 56.9003 115.512 55.4984C115.429 55.3242 115.357 55.1452 115.296 54.9624C114.883 53.6534 115.069 52.1072 115.151 51.3238C115.224 50.5507 114.677 45.6855 113.234 43.5209C113.029 43.1852 112.75 42.8999 112.42 42.6859C111.08 41.9025 110.029 42.4179 109.039 43.5209C108.503 44.1187 107.998 44.8918 107.472 45.7267C107.348 45.9226 107.215 46.139 107.07 46.3658C106.112 47.9016 104.792 49.922 102.494 51.4166C101.195 52.2549 99.7513 52.8423 98.2365 53.1483C97.9788 53.1998 97.7211 53.2514 97.4531 53.2926C91.2066 54.2821 89.0626 51.9217 85.4961 51.767C84.3107 51.7155 82.3832 51.8701 80.6309 52.2618C80.4255 52.3024 80.2225 52.354 80.0227 52.4164C79.0847 52.6638 78.2395 52.9834 77.6313 53.3854C75.7862 54.6017 68.7358 62.2809 68.4677 62.6417C68.3544 62.7963 67.6431 64.1775 66.8701 65.8165C65.798 68.0842 64.6127 72.2897 64.6848 72.9082C64.7417 73.4289 64.7417 73.9543 64.6848 74.475C64.667 74.6399 64.6049 74.7969 64.5051 74.9294C64.4053 75.0618 64.2715 75.1648 64.1179 75.2274C63.7262 75.4027 63.3654 75.7634 63.4273 76.052C63.52 76.454 62.8397 77.1344 60.4586 77.2168C58.0776 77.3096 57.3972 77.5776 57.9848 76.4025C58.5723 75.2377 59.0156 75.279 59.8299 74.609C59.9396 74.5199 60.0397 74.4197 60.1288 74.31C60.7885 73.5782 61.0874 72.3825 61.4379 71.3208C61.8399 70.1045 63.2211 65.7855 63.4273 62.0645C63.4582 61.5903 63.9117 59.9308 64.2313 59.3948C64.5508 58.8588 67.3751 55.5294 67.3751 55.5294C67.3751 55.5294 65.798 53.6843 64.5405 54.313C63.6953 54.7357 62.0151 56.0551 61.005 57.0343C60.7188 57.297 60.463 57.5909 60.2422 57.9104C60.208 57.9631 60.1868 58.0232 60.1803 58.0857C60.1803 58.5289 58.3043 64.1157 56.6242 67.1359C56.2634 67.7852 55.9129 68.3109 55.5934 68.6511C54.4183 69.8777 54.0988 70.1766 53.9648 70.558C53.9347 70.6526 53.9106 70.749 53.8926 70.8466C53.7999 71.4342 53.6555 72.4237 53.2535 72.733C53.2535 72.733 52.9855 72.9185 52.1403 72.9082C51.2951 72.8876 51.8002 72.3928 51.8723 72.1145C51.9445 71.8362 51.9135 71.1146 51.9135 71.1146C51.8052 71.4145 51.6707 71.7042 51.5115 71.9805C51.354 72.2588 51.144 72.5038 50.8931 72.702C50.254 73.1556 48.8728 73.5163 47.4709 73.3102C46.0691 73.104 45.5846 71.898 45.9247 71.1971C46.2649 70.4962 46.3989 68.8573 46.4298 68.3831C46.4504 68.1254 46.368 67.0946 46.4092 65.9299C46.4092 65.7649 46.4195 65.6 46.4298 65.4351V65.3629C46.459 64.7474 46.5488 64.1363 46.6978 63.5385C46.8215 63.0643 46.9555 61.8068 46.8834 61.4254C46.7288 60.5389 47.0483 59.0443 47.0483 59.0443L48.3368 54.5295L51.1714 52.7875C54.14 51.9114 55.8923 44.9227 58.1703 41.2429C59.6237 38.8927 60.5102 35.1098 62.4687 31.5433C63.5716 29.5333 65.0147 27.6057 67.0865 26.0287C68.8182 24.7196 70.3747 23.8434 71.7662 23.2662C75.0028 21.9159 77.3324 22.1323 78.7961 22.0086C80.4659 21.8746 98.4529 20.1842 107.709 19.3286C110.111 19.1019 111.925 18.9369 112.709 18.8648C113.399 18.8029 114.152 18.6999 114.914 18.6277C118.378 18.2669 122.202 18.2875 123.202 23.5857C123.717 26.2863 123.604 30.2445 123.274 34.0584C122.851 39.3875 121.944 44.4279 121.666 45.3866Z" fill="#444041"/>
<path opacity="0.5" d="M109.049 43.5117C108.513 44.1096 108.008 44.8826 107.483 45.7176C107.359 45.9134 107.225 46.1299 107.081 46.3567C106.122 47.8925 104.803 49.9128 102.504 51.4074C101.202 52.2376 99.7591 52.8244 98.247 53.1391C97.9893 53.1907 97.7316 53.2422 97.4636 53.2834C91.2171 54.273 89.0731 51.9125 85.5066 51.7579C84.3212 51.7064 82.3937 51.861 80.6414 52.2527C80.436 52.2933 80.233 52.3449 80.0332 52.4073L82.002 51.4384L82.5174 50.2117L82.3318 49.3665L81.9092 48.6656L81.4041 47.7997C84.1872 49.6654 104.277 48.5213 109.049 43.5117Z" fill="#353132"/>
<path d="M70.0148 50.9028C69.252 53.2426 67.3966 55.531 67.3966 55.531C67.3966 55.531 65.8195 53.6859 64.562 54.3147C63.7168 54.7373 62.0366 56.0567 61.0264 57.0359C60.7403 57.2986 60.4845 57.5925 60.2637 57.912C61.614 51.9336 70.4374 46.1406 70.4374 46.1406C70.4374 46.1406 70.7776 48.5526 70.0148 50.9028Z" fill="#353132"/>
<path d="M51.5428 71.9803C51.3853 72.2586 51.1752 72.5036 50.9243 72.7019C50.2852 73.1554 48.904 73.5162 47.5022 73.31C46.1003 73.1039 45.6158 71.8979 45.956 71.1969C46.2962 70.496 46.4301 68.8571 46.4611 68.3829C46.4817 68.1252 46.3992 67.0945 46.4405 65.9297C46.4095 68.1046 47.2548 69.2797 48.0588 69.5786C48.9349 69.9085 49.4503 70.5785 50.0276 70.4754C50.6048 70.3723 51.316 69.0323 51.316 69.0323L51.5428 71.9803Z" fill="#353132"/>
<path d="M63.974 37.7084C62.4278 40.3781 61.4589 42.4603 62.1598 44.7589C62.8504 47.0575 63.0669 46.5215 61.3043 50.6961C59.5623 54.8192 60.995 56.9942 61.026 57.0457C60.5312 57.5199 60.2013 57.9219 60.2013 58.0971C60.2013 58.5403 58.3253 64.1271 56.6452 67.1473C55.3567 66.4979 56.6452 64.859 56.8616 63.2509C57.0781 61.6429 56.2226 62.3954 56.2741 61.7563C56.3256 61.1173 56.439 59.6226 54.831 58.8702C53.223 58.1177 53.759 56.6746 53.7075 55.4995C53.6559 54.3245 52.2644 52.7783 51.1924 52.7989C54.161 51.9228 55.9133 44.9341 58.1913 41.2543C59.6447 38.9041 60.5312 35.1212 62.4896 31.5547C62.7473 31.9361 63.0257 32.369 63.273 32.7813C64.0461 34.0595 65.5304 35.0284 63.974 37.7084Z" fill="#444041"/>
<path d="M80.6417 52.2484C79.4666 52.5164 78.374 52.8875 77.6421 53.372C75.797 54.5883 68.7466 62.2675 68.4785 62.6283C68.3652 62.7829 67.6539 64.1642 66.8809 65.8031C66.3345 65.2671 65.5615 64.4322 65.6336 64.0405C65.7367 63.4529 66.1696 59.7628 68.6847 58.5877C71.1998 57.4126 70.4473 55.8046 70.5195 53.9904C70.5916 52.1763 72.2615 50.6198 73.0655 51.0527C73.8695 51.4753 74.8281 51.5372 75.529 51.1558C76.2197 50.795 78.3534 50.3106 80.6417 52.2484Z" fill="#444041"/>
<path d="M60.4689 77.2154C58.0878 77.3081 57.4075 77.5761 57.995 76.4011C58.5826 75.2363 59.0258 75.2775 59.8401 74.6075C59.9498 74.5185 60.05 74.4183 60.139 74.3086C62.4995 74.4735 63.4272 76.0403 63.4272 76.0403C63.5303 76.4526 62.8603 77.1226 60.4689 77.2154Z" fill="#353132"/>
<path d="M83.1675 75.8417C82.9511 76.5221 78.0858 76.4911 77.7148 76.1716C77.4055 75.9139 78.2095 74.9244 78.8692 73.9967C79.9928 73.2854 80.3226 73.4194 80.6421 73.6462C80.9101 73.842 82.3945 74.5327 83.1985 74.9141C83.2294 75.2851 83.2294 75.6253 83.1675 75.8417Z" fill="#353132"/>
<path d="M114.616 72.0037C114.225 72.4469 113.74 72.8902 113.431 73.0551C112.812 73.3849 110.318 73.5499 109.833 73.0551C109.452 72.6737 110.246 71.7357 110.947 70.942C112.163 70.3442 113.019 70.5091 113.905 71.0451C114.25 71.2679 114.503 71.6085 114.616 72.0037Z" fill="#353132"/>
<path d="M119.451 73.6617C119.183 74.0946 117.41 74.4657 116.472 74.4657C115.441 74.4657 115.08 74.1565 115.08 74.0122C115.161 73.4505 115.354 72.9108 115.647 72.4248C116.657 71.8991 117.296 72.2186 118.131 72.6721C118.616 72.938 119.06 73.2711 119.451 73.6617Z" fill="#353132"/>
<path d="M78.8273 22.0199C80.4971 21.8859 98.4841 20.1954 107.74 19.3398C106.627 20.216 105.669 21.2262 105.421 21.6385C104.896 22.5043 104.164 22.5043 104.226 23.6279C104.287 24.7514 103.236 26.1429 101.772 27.7406C100.319 29.328 95.8763 29.194 95.0104 28.5343C94.1446 27.8746 94.4847 29.06 93.155 30.0599C91.8253 31.0494 90.1039 38.337 89.6401 39.2647C89.1762 40.1924 87.3827 40.5222 85.5995 42.6456C83.8059 44.769 82.1567 44.0372 80.4147 43.7692C78.6727 43.5012 78.5799 38.8008 76.1267 37.3371C73.6734 35.8837 73.9517 34.2242 73.9517 34.2242C73.1683 34.1624 73.2096 31.8431 73.828 30.9773C74.4465 30.1114 72.4777 31.1731 73.4776 28.256C74.3022 25.8337 73.6631 24.0917 71.7871 23.2774C75.0444 21.9271 77.3636 22.1435 78.8273 22.0199Z" fill="#444041"/>
<path d="M101.917 30.0475C100.123 29.7177 98.474 32.0369 96.4228 32.8306C94.3715 33.6243 92.9078 36.4074 94.4334 37.0052C95.9589 37.6031 98.5462 35.9435 99.5357 36.4795C100.525 37.0052 101.525 36.3455 101.587 35.8198C101.649 35.2942 101.917 33.9026 101.917 33.0368C101.917 32.1709 102.906 31.4494 102.875 30.9855C102.844 30.5114 101.917 30.0475 101.917 30.0475Z" fill="#444041"/>
<path d="M123.316 34.0701C122.677 33.1424 121.264 31.3798 120.935 30.0192C120.471 28.1328 121.8 27.267 121.532 25.8754C121.264 24.4839 120.667 24.2159 120.203 21.9688C119.79 19.9897 117.997 19.0311 114.956 18.6394C118.419 18.2787 122.244 18.2993 123.243 23.5974C123.759 26.2981 123.645 30.2562 123.316 34.0701Z" fill="#353132"/>
<path d="M109.73 21.8906C110.232 22.389 110.781 22.8378 111.369 23.2306C111.937 23.6021 112.546 23.9065 113.184 24.1377C113.503 24.2614 113.833 24.3748 114.163 24.4882C114.503 24.6016 114.843 24.7253 115.194 24.8696C115.561 25.013 115.913 25.1925 116.245 25.4056C116.598 25.6269 116.917 25.8977 117.193 26.2096C117.466 26.5223 117.699 26.8687 117.884 27.2403C117.925 27.3331 117.977 27.4259 118.008 27.5186C118.049 27.6114 118.09 27.7042 118.121 27.797C118.19 27.9824 118.249 28.1717 118.296 28.3639C118.505 29.1368 118.54 29.9465 118.399 30.7347C118.262 31.4966 117.971 32.2226 117.544 32.8684C117.339 33.1824 117.104 33.4758 116.843 33.7445C116.591 34.0146 116.307 34.2533 115.998 34.4557C116.378 33.8612 116.69 33.2248 116.925 32.5591C117.151 31.933 117.28 31.276 117.307 30.611V30.2502L117.296 30.1265C117.286 29.9719 117.265 29.807 117.245 29.6523C117.195 29.3408 117.119 29.0339 117.018 28.735C116.967 28.5803 116.905 28.436 116.843 28.2917C116.771 28.1474 116.719 28.0031 116.637 27.8691C116.496 27.6015 116.323 27.3522 116.121 27.127C115.92 26.9073 115.695 26.7102 115.451 26.5394C115.186 26.3589 114.907 26.2003 114.616 26.0653C114.018 25.7663 113.338 25.488 112.678 25.1273C112.013 24.7664 111.408 24.3039 110.885 23.7563C110.629 23.4841 110.401 23.1872 110.205 22.8699C110.04 22.5503 109.875 22.2205 109.73 21.8906Z" fill="#353132"/>
<path d="M129.933 59.9889C129.933 60.3703 127.387 59.2571 127.315 59.2262C127.366 59.2674 128.727 60.3806 128.407 60.8032C128.407 60.8032 126.768 60.6383 125.325 58.8448C125.336 58.886 125.665 59.9271 125.325 59.7209C124.975 59.5045 123.882 57.3708 123.996 56.1235C124.109 54.866 123.552 56.0102 123.552 56.0102C123.552 56.0102 122.738 54.3815 123.068 51.8664C123.357 49.64 123.645 50.0626 123.408 49.1761L123.552 49.372C123.552 49.372 124.542 50.0523 124.429 48.5267C124.336 47.197 124.119 45.5787 124.676 44.5273C124.82 47.1352 125.851 49.372 125.851 49.372L125.088 48.9081C125.088 48.9081 126.232 51.5778 126.83 52.2891C127.428 53.0003 128.253 53.2889 128.036 53.6085C127.82 53.928 126.944 53.8146 127.655 54.5774C128.366 55.3401 129.345 55.938 129.18 56.7008C129.18 56.7008 128.851 56.3194 127.758 56.3709C126.655 56.4431 129.933 59.6075 129.933 59.9889Z" fill="#353132"/>
<path d="M53.996 70.5665C53.9659 70.6611 53.9418 70.7575 53.9239 70.8551C53.8311 71.4427 53.6868 72.4322 53.2848 72.7415C53.2848 72.7415 53.0168 72.927 52.1716 72.9167C51.3263 72.8961 51.8314 72.4013 51.9036 72.123C51.9757 71.8447 51.9448 71.1231 51.9448 71.1231C51.9448 71.1231 51.5634 72.257 50.9243 72.7105C50.2852 73.1641 48.904 73.5248 47.5022 73.3187C46.1003 73.1125 45.6158 71.9065 45.956 71.2056C46.5229 70.3398 47.2342 69.6697 48.5226 70.4841C49.8111 71.2984 50.1409 71.319 50.4811 70.6593C50.8109 69.9996 51.718 67.5257 52.8622 68.5771C54.0063 69.6182 53.996 70.5562 53.996 70.5665Z" fill="#353132"/>
<path d="M48.2919 55.1533C46.5234 55.1244 44.2457 55.1052 44.8352 55.5662C45.4247 56.0272 48.2249 56.6899 48.2249 56.6899L48.6135 55.1533H48.2919Z" fill="#444041"/>
<path d="M51.6149 53.2796L51.2129 53.8052L50.8521 54.2691C49.7183 55.0422 45.3684 54.5989 44.4614 54.2691C44.1727 54.166 44.0903 54.0526 44.1521 53.9392C44.2861 53.7125 45.0592 53.5166 45.8426 53.4548C46.9867 53.362 49.3266 51.8468 50.2749 51.8674C51.2335 51.8777 51.6149 53.2796 51.6149 53.2796Z" fill="#444041"/>
<path d="M48.4405 55.9757L48.0347 55.8204V54.6593C48.0347 54.467 47.8966 54.3339 47.7325 54.3635L47.1541 54.4596C47.0604 54.4896 46.9804 54.5446 46.926 54.6166C46.8716 54.6885 46.8456 54.7735 46.8519 54.859V56.0201L46.4461 56.3085C46.3977 56.3444 46.3588 56.3886 46.332 56.4384C46.3052 56.4881 46.2912 56.5422 46.2907 56.597V57.98C46.2867 58.0138 46.2915 58.0481 46.3048 58.0802C46.3181 58.1122 46.3396 58.1414 46.3677 58.1655C46.3958 58.1895 46.4299 58.208 46.4673 58.2194C46.5048 58.2308 46.5447 58.2349 46.5843 58.2314L48.311 57.943C48.3984 57.9207 48.475 57.8748 48.5294 57.8121C48.5839 57.7495 48.6132 57.6735 48.6132 57.5954V56.2124C48.6149 56.1628 48.5994 56.1138 48.5687 56.0717C48.5379 56.0296 48.4933 55.9962 48.4405 55.9757Z" fill="#FFB800"/>
<path d="M48.8219 72.3094C48.8219 72.3094 48.6983 72.2991 48.5127 72.2682C47.9973 72.1857 47.0593 71.959 47.3479 71.4126C47.3479 71.4113 47.3482 71.41 47.3487 71.4087C47.3492 71.4075 47.35 71.4063 47.351 71.4054C47.3519 71.4044 47.3531 71.4036 47.3543 71.4031C47.3556 71.4026 47.3569 71.4023 47.3582 71.4023C47.5541 71.0519 48.0489 71.1446 48.8219 72.3094Z" fill="#997568"/>
<path d="M48.5127 72.267C47.9973 72.1846 47.0593 71.9578 47.3479 71.4115C47.585 71.3084 47.9767 71.5146 48.5127 72.267Z" fill="#EDBCBC"/>
<path d="M51.9449 69.0469C51.9144 69.2169 51.904 69.3898 51.914 69.5623C51.9286 69.7318 51.9527 69.9005 51.9861 70.0673C52.0226 70.2404 52.0433 70.4163 52.048 70.593C52.0507 70.7769 52.0156 70.9593 51.9449 71.129C51.9243 70.9538 51.9037 70.7786 51.8728 70.6137C51.8315 70.4487 51.7903 70.2735 51.7594 70.0983C51.7215 69.9187 51.7145 69.7339 51.7388 69.552C51.7572 69.3672 51.8288 69.1918 51.9449 69.0469Z" fill="black"/>
<path d="M60.6234 75.5625C60.4585 75.6862 60.3039 75.8099 60.1493 75.9336C59.9994 76.0543 59.8614 76.1889 59.7369 76.3356C59.612 76.4839 59.495 76.6387 59.3865 76.7994C59.2731 76.9644 59.17 77.1293 59.0566 77.3045C59.0849 77.0976 59.1439 76.8961 59.2319 76.7067C59.3158 76.5164 59.4269 76.3393 59.5617 76.181C59.6984 76.0196 59.8623 75.8835 60.0462 75.779C60.228 75.6812 60.4221 75.6083 60.6234 75.5625Z" fill="#30211A"/>
<path d="M80.0327 74.6133C79.9503 74.7679 79.8575 74.9122 79.7647 75.0565L79.4864 75.4688L79.2081 75.8914C79.1153 76.0357 79.0123 76.1697 78.9092 76.3141C78.9318 76.1394 78.9805 75.9692 79.0535 75.809C79.1235 75.648 79.2062 75.4929 79.3009 75.3451C79.3994 75.2022 79.5098 75.0677 79.6307 74.9431C79.7481 74.8144 79.8835 74.7033 80.0327 74.6133Z" fill="#30211A"/>
<path d="M111.956 71.5469C111.833 71.6912 111.699 71.8252 111.575 71.9592C111.454 72.0909 111.343 72.2323 111.245 72.3818C111.142 72.5364 111.039 72.6807 110.936 72.8353C110.833 72.99 110.73 73.1446 110.616 73.2992C110.646 73.1116 110.698 72.9282 110.771 72.7529C110.843 72.574 110.937 72.4044 111.049 72.2478C111.08 72.2066 111.111 72.1653 111.132 72.1344C111.163 72.0932 111.193 72.0623 111.224 72.021C111.297 71.9489 111.369 71.887 111.441 71.8252C111.599 71.7086 111.772 71.6149 111.956 71.5469Z" fill="#30211A"/>
<path d="M116.77 72.875C116.708 73.0193 116.646 73.1533 116.574 73.2873L116.368 73.6687C116.296 73.8027 116.223 73.9264 116.151 74.0501C116.069 74.1738 115.986 74.2975 115.894 74.4212C115.907 74.2704 115.939 74.1217 115.986 73.9779C116.038 73.836 116.1 73.6981 116.172 73.5656C116.246 73.4308 116.332 73.3031 116.43 73.1842C116.522 73.0605 116.638 72.9556 116.77 72.875Z" fill="#30211A"/>
<path d="M116.749 53.2834C116.512 53.871 115.852 54.5101 115.316 54.9533C114.904 53.6442 115.09 52.0981 115.172 51.3147C115.244 50.5416 114.698 45.6763 113.255 43.5117C115.914 43.656 118.337 48.9439 116.76 50.119C115.162 51.3147 117.172 52.2217 116.749 53.2834Z" fill="#444041"/>
<path d="M51.2129 53.8083L50.8521 54.2721C49.7183 55.0452 45.3684 54.602 44.4614 54.2721C44.1727 54.169 44.0903 54.0557 44.1521 53.9423C44.482 54.602 48.6463 54.3237 49.3988 53.9423C50.1512 53.5609 51.1305 53.231 51.1923 53.6846C51.2091 53.7235 51.2162 53.766 51.2129 53.8083Z" fill="#444041"/>
<g style="mix-blend-mode:multiply" opacity="0.31">
<path d="M70.5611 28.8008C70.2577 28.9865 69.9891 29.2237 69.7674 29.5017C69.5503 29.7731 69.3572 30.0628 69.1901 30.3676C69.0225 30.6755 68.8711 30.992 68.7366 31.3159C68.5923 31.6354 68.4686 31.9653 68.3449 32.2951C67.8604 33.6248 67.4481 34.9957 66.974 36.3563C66.8606 36.6965 66.7266 37.047 66.5926 37.3871C66.4586 37.7273 66.3143 38.0674 66.1493 38.4076C66.0669 38.5725 65.9741 38.7477 65.8814 38.9127C65.7783 39.0879 65.6855 39.2322 65.5824 39.3868C65.3763 39.696 65.1701 39.995 64.9537 40.2939C64.5207 40.8814 64.0569 41.4484 63.5724 41.9947C63.0929 42.5411 62.5836 43.0607 62.0469 43.5511C62.82 42.3142 63.593 41.0979 64.3043 39.861C64.4795 39.5517 64.6547 39.2425 64.8197 38.9333C64.9021 38.7787 64.9949 38.6137 65.0567 38.4694C65.1289 38.3148 65.1907 38.1602 65.2526 38.0056C65.5103 37.3665 65.7267 36.6862 65.9535 36.0059L66.1287 35.4905L66.304 34.9751C66.4173 34.635 66.541 34.2948 66.675 33.9546C66.7987 33.6145 66.943 33.2743 67.077 32.9342C67.2214 32.594 67.376 32.2642 67.5409 31.9343C67.8643 31.2609 68.2656 30.6278 68.7366 30.048C68.8557 29.9034 68.983 29.7657 69.118 29.6357C69.2526 29.5012 69.3973 29.3771 69.5509 29.2646C69.8522 29.0423 70.1961 28.8844 70.5611 28.8008Z" fill="#444041"/>
</g>
<path d="M78.982 67.848C78.4563 65.4772 77.91 64.5289 77.3843 63.8692C77.2297 63.6733 77.0648 63.1579 76.9205 62.5292C76.8895 62.3849 76.8586 62.2406 76.8174 62.0859C78.1058 63.6218 78.7449 62.7456 78.8789 63.8279C79.0129 64.9103 78.6109 65.5184 78.9511 66.1575C79.2294 66.6626 79.0542 67.5387 78.982 67.848Z" fill="#444041"/>
</svg>
