<svg width="114" height="112" viewBox="0 0 114 112" fill="none" xmlns="http://www.w3.org/2000/svg">
<path d="M14.0864 33.6223C12.6215 32.1234 10.7388 31.0861 8.67608 30.6414C5.50454 30.2847 1.95987 30.715 0.670736 30.3601C-0.618402 30.0052 1.68564 35.5459 7.31046 36.2539C12.9353 36.9618 12.9316 35.1119 13.2207 35.1836C13.5099 35.2553 14.0864 33.6223 14.0864 33.6223Z" fill="#C1AE99"/>
<path d="M11.8824 34.1109C11.5578 34.0189 11.25 32.1101 6.74079 32.956C4.7222 33.333 1.64208 31.6063 0.783902 31.0178C0.0693719 30.5323 2.64951 35.4882 7.99263 35.9719C13.1063 36.439 11.8824 34.1109 11.8824 34.1109Z" fill="#E2967F"/>
<path d="M22.3442 24.8419C26.0586 21.2412 30.926 26.0243 31.6629 28.1244C35.021 37.8155 31.3029 42.8358 29.5044 49.0422C27.8142 54.8716 29.0324 54.3622 28.6052 57.7293C28.303 60.1199 26.7396 61.2233 26.0885 70.0796C26.0381 70.7361 24.9411 71.4147 24.5307 71.9093C24.5307 71.9093 24.762 72.4776 22.2266 71.8652C18.7883 71.0322 19.8704 69.0848 19.7099 69.3477C19.5495 69.6107 22.1912 60.861 20.7528 58.9099C19.3144 56.9588 21.0215 52.7955 20.8965 51.9477C20.6595 50.3791 18.2492 37.6519 19.1876 32.8228C19.711 29.9876 20.7827 27.2781 22.3442 24.8419Z" fill="#AF9C89"/>
<path d="M21.7117 59.2335C20.2733 57.2843 22.3945 52.9444 21.8535 52.2732C19.4413 49.2555 19.5289 42.0469 19.5289 42.0469C19.3327 45.5076 19.7856 48.9743 20.8647 52.2732C20.9916 53.1191 19.2845 57.2843 20.7229 59.2335C22.1613 61.1828 19.4636 69.9417 19.6259 69.6768C19.7883 69.412 23.1445 61.1847 21.7117 59.2335Z" fill="#F9F2EA"/>
<path d="M26.0882 70.1731C25.5994 70.7082 24.8363 70.9583 21.9651 70.7707C21.6965 70.7523 19.8589 69.3639 19.6816 69.5386C19.1466 70.3638 18.5544 71.1515 17.9093 71.8961C16.4429 73.6615 16.1295 75.5556 16.7433 75.9087C17.6108 76.4034 23.1741 76.3078 23.6666 75.2283C24.8942 72.5398 25.9147 72.7457 26.0042 72.0083C26.2132 70.2797 26.0882 70.1731 26.0882 70.1731Z" fill="#514A3F"/>
<path d="M26.088 70.1758C25.9958 70.2795 25.8897 70.3705 25.7727 70.4461C25.754 70.63 25.7335 70.8268 25.7037 71.064C25.6141 71.7996 24.5843 71.5954 23.3661 74.2858C22.8754 75.3597 17.3551 75.4609 16.454 74.9699C16.4167 75.4388 16.5155 75.779 16.7431 75.9114C17.6107 76.4061 23.1739 76.3105 23.6664 75.231C24.894 72.5425 25.9145 72.7485 26.0041 72.011C26.213 70.2824 26.088 70.1758 26.088 70.1758Z" fill="#514A3F"/>
<path d="M16.9277 75.9823C16.9395 75.2446 17.2023 74.5323 17.674 73.9595C18.1203 73.3521 18.6671 72.8231 19.2915 72.3945C19.2915 72.3945 17.1777 74.6767 17.5527 76.0853C17.5658 76.1441 16.9277 75.9823 16.9277 75.9823Z" fill="#CCBCAB"/>
<path d="M69.2757 20.5425C69.6067 17.8264 70.112 15.1337 70.7887 12.4806C71.4212 10.2194 71.6919 7.87479 71.5909 5.53132C69.078 4.46841 67.4082 1.88656 64.315 1.99138C61.5435 2.26868 58.857 3.09362 56.4161 4.41693C55.7892 4.82518 55.1661 5.24997 54.5411 5.67476C54.2438 5.90579 53.8686 6.01684 53.4914 5.98542C53.1142 5.95401 52.7632 5.78248 52.5095 5.50557C52.2147 5.95906 51.9943 6.45555 51.8565 6.97672C50.6121 11.8333 50.5711 21.1549 51.9461 22.4017C58.6623 28.4922 62.6677 27.775 63.5763 29.7464C65.1848 34.7457 65.0733 40.1287 63.2591 45.0592C64.6552 45.9398 66.1424 46.6715 67.6956 47.242C68.2403 47.1225 69.5723 45.7617 69.7477 45.6642C69.9475 45.0546 70.0495 44.418 70.0499 43.7775C70.0499 43.5384 70.8074 42.7605 70.8074 42.7605C70.5919 41.3982 70.4803 40.0219 70.4734 38.6432C70.535 37.0304 72.1712 32.2529 72.4118 30.4636C72.6525 28.6743 72.9584 27.1204 71.8671 26.1035C70.4708 24.5391 69.5699 22.6059 69.2757 20.5425Z" fill="#AF9C89"/>
<path d="M65.0315 28.7298C63.8524 26.9019 53.7016 25.7158 51.0674 20.793C51.2016 21.4101 51.5276 21.9706 52.0002 22.3965C58.7164 28.4871 62.7237 27.7699 63.6304 29.7412C65.2389 34.7405 65.1275 40.1236 63.3133 45.054C63.3133 45.054 67.8822 33.1469 65.0315 28.7298Z" fill="#F4AB42"/>
<path d="M69.76 45.3879C69.2712 45.923 68.5063 46.1731 65.6389 45.9837C65.3684 45.9672 63.5307 44.5788 63.3554 44.7535C62.8193 45.5783 62.2265 46.366 61.5812 47.111C60.1148 48.8764 59.8014 50.7723 60.4152 51.1217C61.2827 51.6201 66.8459 51.5208 67.3385 50.4431C68.5679 47.7528 69.5865 47.9624 69.6761 47.2213C69.885 45.4964 69.76 45.3879 69.76 45.3879Z" fill="#514A3F"/>
<path d="M60.543 51.1834C60.5562 50.446 60.8188 49.734 61.2892 49.1605C61.7366 48.5535 62.2832 48.024 62.9067 47.5938C62.9067 47.5938 60.7948 49.8759 61.168 51.2882C61.1829 51.3562 60.543 51.1834 60.543 51.1834Z" fill="#CCBCAB"/>
<path d="M69.7307 45.4805C69.6384 45.5836 69.5324 45.6739 69.4154 45.7489C69.3986 45.9328 69.3763 46.1296 69.3483 46.3668C69.2587 47.1024 68.2289 46.8983 67.0088 49.5886C66.5181 50.6626 60.9996 50.7637 60.106 50.2727C60.0668 50.7416 60.1657 51.0855 60.3933 51.2143C61.2608 51.7126 66.8241 51.6133 67.3166 50.5357C68.5442 47.8453 69.5647 48.0531 69.6542 47.3139C69.8576 45.5798 69.7307 45.4805 69.7307 45.4805Z" fill="#514A3F"/>
<path d="M77.916 38.2383C78.6436 36.9686 78.9008 35.489 78.6436 34.0529C78.1035 32.2554 76.9087 30.7179 75.2887 29.7359C73.6687 28.7539 71.7376 28.3965 69.8666 28.7324C67.9955 29.0684 66.3163 30.0739 65.1516 31.5559C63.9869 33.0379 63.4187 34.8919 63.5564 36.7616C63.7275 37.6351 64.0813 38.4639 64.5952 39.1953C65.1091 39.9266 65.7719 40.5445 66.5413 41.0096C66.3398 41.4165 66.1726 41.839 66.0414 42.2729C65.9835 42.8926 66.4816 44.6985 67.295 44.772C68.1085 44.8456 68.9293 43.1574 68.989 42.5396C68.9876 42.3531 68.9613 42.1676 68.9107 41.9879C69.59 42.1468 70.2871 42.2203 70.9852 42.2067C71.0039 42.9276 71.4871 44.4815 72.2408 44.5495C73.0542 44.6231 73.8769 42.9349 73.9348 42.3171C73.9305 42.0978 73.8966 41.8801 73.834 41.6697C74.3714 41.4673 74.886 41.2103 75.3694 40.9029C75.5243 41.6753 75.9552 42.7087 76.569 42.7639C77.3824 42.8356 78.2033 41.1493 78.2611 40.5296C78.2928 40.1931 77.9589 39.2295 77.9794 38.9978C77.9988 38.7429 77.9774 38.4866 77.916 38.2383Z" fill="#F4B7A8"/>
<g opacity="0.5">
<path opacity="0.5" d="M77.9156 38.1884C78.643 36.9192 78.9002 35.4403 78.6432 34.0048C78.103 32.2079 76.9085 30.671 75.2889 29.6892C73.6694 28.7074 71.739 28.3498 69.8684 28.6852C67.9977 29.0206 66.3187 30.0253 65.1537 31.5064C63.9886 32.9875 63.4196 34.8406 63.556 36.7099C63.5653 36.7651 63.5821 36.8147 63.5952 36.8662C66.1297 35.943 68.9303 36.035 71.3968 37.1226C73.8634 38.2102 75.7996 40.2068 76.7907 42.6846C77.522 42.4694 78.2011 41.0424 78.2514 40.4779C78.2832 40.1413 77.9492 39.1777 77.9697 38.946C77.9918 38.6922 77.9736 38.4366 77.9156 38.1884Z" fill="#CE8980"/>
</g>
<path d="M70.9774 42.2151C70.1398 41.8646 69.2631 41.6128 68.3656 41.4648C68.4153 41.6446 68.4404 41.8302 68.4402 42.0165C68.3842 42.6344 67.5615 44.3225 66.7481 44.249C66.6837 44.2419 66.6208 44.2252 66.5615 44.1993C66.6287 44.3442 66.7288 44.4719 66.8539 44.5727C66.9791 44.6734 67.1261 44.7445 67.2835 44.7804C68.0988 44.854 68.9178 43.1659 68.9775 42.548C68.9761 42.3615 68.9497 42.176 68.8991 41.9963C69.5685 42.213 70.2768 42.2875 70.9774 42.2151Z" fill="#E5A193"/>
<path d="M65.9943 40.4833C65.664 40.2725 65.352 40.0351 65.0615 39.7734C65.333 40.0738 65.6301 40.3506 65.9495 40.601C65.9607 40.5605 65.9813 40.52 65.9943 40.4833Z" fill="#E5A193"/>
<path d="M75.3612 40.9081C75.2698 40.6653 73.837 40.9375 73.2885 41.1434C73.3496 41.3541 73.3828 41.5717 73.3874 41.7907C73.3295 42.4086 72.5068 44.0949 71.6934 44.0232C71.6285 44.0102 71.5658 43.9885 71.5068 43.9588C71.5743 44.1067 71.6754 44.2373 71.8022 44.3406C71.9289 44.4439 72.0781 44.5171 72.2382 44.5547C73.0516 44.6282 73.8743 42.9401 73.9321 42.3222C73.9279 42.103 73.894 41.8853 73.8314 41.6749C74.3579 41.4528 74.8689 41.1966 75.3612 40.9081Z" fill="#E5A193"/>
<path d="M77.9188 38.2444C78.6382 37.0045 78.9012 35.5578 78.6633 34.1488C78.4253 32.7398 77.701 31.455 76.6128 30.5117C77.3813 31.3632 77.8977 32.4065 78.1054 33.5276C78.3626 34.9637 78.1054 36.4432 77.3777 37.713C77.4462 37.9602 77.4646 38.2183 77.4318 38.4725C77.4094 38.7042 77.7452 39.6678 77.7117 40.0043C77.6557 40.6222 76.833 42.3121 76.0196 42.2386C75.9549 42.2309 75.8919 42.2129 75.833 42.1853C75.8989 42.3311 75.9982 42.4598 76.1231 42.5613C76.2481 42.6628 76.3954 42.7342 76.5532 42.77C77.3666 42.8418 78.1874 41.1555 78.2452 40.5357C78.277 40.1992 77.943 39.2356 77.9635 39.0039C77.989 38.75 77.9739 38.4937 77.9188 38.2444Z" fill="#E5A193"/>
<path d="M80.142 10.912C80.0842 10.649 80.0357 10.3879 79.9834 10.1249C79.6215 8.27495 79.3379 7.10538 78.0917 6.34591C76.5787 5.42644 75.0153 5.94502 72.9706 6.79277L72.1348 4.82879C74.0414 4.04357 76.6533 2.96411 79.2241 4.53456C80.0651 5.1344 80.7596 5.91175 81.2569 6.80986C81.7543 7.70797 82.042 8.70421 82.099 9.72587C82.1457 9.97229 82.1942 10.2242 82.2483 10.4743L80.142 10.912Z" fill="#AF9C89"/>
<path d="M16.5527 42.6314C16.5616 42.6209 16.5722 42.5965 16.5527 42.6314V42.6314Z" fill="#EFD0A8"/>
<path d="M81.7797 9.69294C81.7517 9.56973 81.6417 9.49433 81.4868 9.44284C81.5319 9.45479 81.5761 9.46953 81.6193 9.48698C76.1026 6.32769 69.5152 -2.48447 57.0585 1.73588C55.8576 2.01062 54.7319 2.54028 53.7601 3.28793C51.3814 5.16548 49.8609 7.84298 47.4039 9.60468C44.7305 11.5282 41.8537 13.1906 39.0087 14.8585C31.7477 20.1197 25.2722 21.714 22.5745 23.8399C20.486 25.5454 18.6987 27.5805 17.2855 29.8624C17.1931 30.0475 17.0871 30.2257 16.9683 30.3957C21.4458 31.4677 18.834 34.8716 22.4047 37.7992C25.2815 39.9268 9.09731 49.0296 14.1326 50.0925C19.1679 51.1554 24.5632 56.5912 24.5632 56.5912C27.8896 65.5137 35.4398 61.8635 37.1524 60.1956C42.3761 55.1128 50.5177 54.1547 52.9187 53.2242C57.373 50.9757 61.1858 47.6643 64.0098 43.5918C65.4956 41.114 67.5651 39.0256 70.0432 37.5032C72.5213 35.9808 75.3351 35.0693 78.2463 34.8459C78.6474 34.8017 73.446 30.7064 75.015 30.2614C76.3812 29.8689 77.7246 29.403 79.0391 28.8657L79.2835 28.7167C81.8265 26.5533 83.6028 23.6466 84.3543 20.4194C85.5557 12.1461 81.7797 9.69294 81.7797 9.69294ZM80.1772 9.47228L80.2406 9.4594C80.6159 9.36276 81.0079 9.34708 81.3898 9.41342C80.9851 9.36731 80.5754 9.3872 80.1772 9.47228Z" fill="#CCBCAB"/>
<path d="M83.1644 22.3475C83.477 20.768 83.4706 19.1433 83.1457 17.5663C83.0748 16.8712 83.0394 16.1742 82.9592 15.4883C81.4421 19.9962 79.5126 24.3589 77.1944 28.5226C74.2833 28.7465 71.4698 29.6582 68.9918 31.1806C66.5137 32.7029 64.4441 34.7911 62.9579 37.2686C60.1345 41.341 56.3215 44.6519 51.8668 46.8991C49.4658 47.8314 42.8037 50.9447 36.0987 53.8723C26.6288 58.0081 26.3975 46.3603 21.5021 44.8027C15.6068 42.9288 12.3196 49.3872 14.1572 50.1522C17.7441 52.1428 21.2261 54.3119 24.5897 56.651C27.9161 65.5716 35.4662 61.9213 37.1789 60.2553C42.4026 55.1706 50.5441 54.2125 52.9452 53.2839C57.3991 51.0348 61.2118 47.7236 64.0363 43.6515C65.5227 41.1738 67.5926 39.0853 70.071 37.5627C72.5493 36.04 75.3631 35.128 78.2746 34.9037C80.2822 31.3387 81.9905 27.6178 83.3827 23.7782C83.2351 23.5733 83.1385 23.337 83.1005 23.0885C83.0626 22.84 83.0845 22.5862 83.1644 22.3475Z" fill="#C1AE99"/>
<path d="M33.7374 41.602C35.0079 37.218 31.1965 33.4629 28.6555 31.5853C25.5101 28.9998 21.0662 31.1072 17.1092 30.1602C16.889 30.4638 16.5935 30.7069 16.251 30.8663C14.7585 31.6626 12.9396 31.2102 11.3296 31.6718C10.965 31.8063 10.6098 31.9641 10.2662 32.1444C10.018 32.3154 9.24941 34.4725 8.63936 35.4011C8.36885 35.8222 8.10578 36.2434 7.87818 36.6884C7.65058 37.1334 8.01997 41.0246 7.72147 41.7914C6.57751 45.0695 5.11164 48.2297 3.34473 51.227C4.04247 51.4973 3.44547 52.4922 4.11709 52.8029C4.52566 53.0052 4.63946 54.6621 5.60025 55.2028C8.56098 56.8578 7.9957 53.0402 9.71766 54.64C9.71766 54.6216 9.73632 54.5996 9.74191 54.5793C9.74191 54.6014 9.72326 54.6235 9.71766 54.64C10.7941 55.6441 10.9788 59.2962 11.2568 59.1638C12.8084 58.3427 14.1828 57.2315 15.3033 55.8924C15.4787 55.8004 24.5661 54.6143 24.3553 47.5215C24.3459 47.2144 27.8458 46.5506 27.982 46.3428C27.982 46.3446 31.8308 47.8599 33.7374 41.602Z" fill="#CCBCAB"/>
<path d="M81.8764 26.4727C83.4958 26.4727 84.8091 27.1917 84.8091 28.078C84.7431 28.3846 84.6112 28.6736 84.4221 28.9255C84.2331 29.1775 83.9914 29.3865 83.7134 29.5385C83.4354 29.6905 83.1276 29.7819 82.8107 29.8066C82.4938 29.8313 82.1752 29.7887 81.8764 29.6816C79.9684 29.1618 77.9937 28.9196 76.0146 28.9626C77.826 27.8384 79.8035 26.9985 81.8764 26.4727Z" fill="#A36D1F"/>
<path d="M78.6895 27.4304C79.6582 27.5191 80.6138 27.7147 81.5383 28.0133C82.0378 28.1787 82.5794 28.1726 83.075 27.996C83.5706 27.8194 83.991 27.4826 84.2677 27.0405C83.5656 26.5656 82.7269 26.3264 81.8759 26.3583C80.7574 26.5255 79.6782 26.8886 78.6895 27.4304Z" fill="#BC8235"/>
<path d="M81.8764 29.2379C80.2272 28.7601 78.5171 28.518 76.7982 28.5189C76.3225 28.7781 76.0146 28.9602 76.0146 28.9602C77.9937 28.9182 79.9684 29.1611 81.8764 29.6811C82.1752 29.7881 82.4938 29.8308 82.8107 29.8061C83.1276 29.7814 83.4354 29.69 83.7134 29.538C83.9914 29.386 84.2331 29.1769 84.4221 28.925C84.6112 28.673 84.7431 28.384 84.8091 28.0775C84.8041 28.0102 84.7916 27.9436 84.7718 27.8789C84.5664 28.4344 84.1478 28.8882 83.6062 29.1424C83.0646 29.3966 82.4434 29.4309 81.8764 29.2379Z" fill="#725024"/>
<path d="M39.7309 33.9434C43.4453 30.3428 48.3127 35.1258 49.0496 37.2277C52.4077 46.9171 48.6896 51.9392 46.8893 58.1456C45.2102 63.9713 46.4191 63.4638 45.9919 66.8309C45.6878 69.2215 44.1263 70.3248 43.4733 79.1811C43.4248 79.8395 42.326 80.518 41.9155 81.0201C41.9155 81.0201 42.1469 81.5901 39.6134 80.9759C36.175 80.1447 37.2571 78.1918 37.0948 78.4584C36.9325 78.7251 39.5779 69.9699 38.1395 68.0207C36.7011 66.0714 38.4082 61.9044 38.2832 61.0584C38.0481 59.4862 35.6359 46.7608 36.5724 41.9225C37.0972 39.088 38.1694 36.3792 39.7309 33.9434Z" fill="#CCBCAB"/>
<path d="M39.1269 68.251C37.6866 66.2999 39.722 62.0189 39.2687 61.2888C37.1531 57.8592 36.9441 51.0625 36.9441 51.0625C36.7474 54.5234 37.2009 57.9903 38.2817 61.2888C38.4067 62.1329 36.6978 66.2999 38.1381 68.251C39.5784 70.2021 36.8788 78.9591 37.0411 78.6943C37.2034 78.4295 40.5653 70.2003 39.1269 68.251Z" fill="#CCBCAB"/>
<path d="M43.4794 79.2749C42.9925 79.8082 42.2276 80.0583 39.3583 79.8708C39.0878 79.8524 37.252 78.464 37.0748 78.6405C36.5393 79.4647 35.9471 80.2518 35.3025 80.9962C33.8361 82.7616 33.5227 84.6557 34.1346 85.0087C35.0021 85.5034 40.5653 85.4078 41.0597 84.3283C42.2873 81.6398 43.3078 81.8458 43.3955 81.1084C43.5988 79.3816 43.4794 79.2749 43.4794 79.2749Z" fill="#514A3F"/>
<path d="M43.4798 79.2773C43.3875 79.3804 43.2814 79.4707 43.1645 79.5458C43.1478 79.7297 43.1254 79.9265 43.0974 80.1637C43.006 80.8993 41.978 80.697 40.7598 83.3855C40.2672 84.4594 34.7488 84.5606 33.857 84.0696C33.8178 84.5367 33.9167 84.8806 34.1424 85.0111C35.01 85.5058 40.5732 85.4102 41.0676 84.3307C42.2952 81.6422 43.3156 81.8482 43.4033 81.1107C43.5992 79.384 43.4798 79.2773 43.4798 79.2773Z" fill="#514A3F"/>
<path d="M34.3135 85.0839C34.3267 84.3465 34.5893 83.6345 35.0597 83.061C35.5076 82.4544 36.0549 81.9255 36.6791 81.4961C36.6791 81.4961 34.5653 83.7782 34.9403 85.1905C34.9515 85.2457 34.3135 85.0839 34.3135 85.0839Z" fill="#C1AE99"/>
<path d="M17.7195 39.4463C16.7138 39.8533 15.8209 40.4903 15.1143 41.3047C14.4078 42.1192 13.908 43.0876 13.6562 44.13C13.5344 44.4011 13.4395 44.6832 13.3726 44.9723C13.3129 45.169 13.2513 45.3639 13.186 45.5589C13.1152 45.695 13.048 45.831 12.9696 45.9671C12.3491 46.9033 11.8931 47.9359 11.6208 49.0216C11.0611 51.9841 14.2327 52.8245 16.3371 51.357C19.018 49.4795 22.1932 48.0911 23.1577 44.667C23.3182 43.9358 23.2875 43.1763 23.0685 42.46C22.8494 41.7437 22.4492 41.094 21.9055 40.572C21.3617 40.0501 20.6923 39.6729 19.9601 39.4759C19.2278 39.279 18.4568 39.2688 17.7195 39.4463Z" fill="#C1AE99"/>
<path d="M24.1825 47.3137C24.3915 54.4046 15.2444 55.4326 15.1231 55.5889C14.0016 56.9237 12.7149 58.1148 11.293 59.1344C12.9242 58.4343 14.3258 57.301 15.3413 55.8611C15.5148 55.7728 24.6023 54.583 24.3915 47.4939C25.3749 47.0412 26.4122 46.7125 27.479 46.5156C26.348 46.6301 25.2386 46.8987 24.1825 47.3137Z" fill="#C1AE99"/>
<path d="M3.84807 52.6211H3.83691C3.86669 52.6559 3.90041 52.6873 3.93741 52.7147C3.91345 52.6785 3.8832 52.6469 3.84807 52.6211Z" fill="#7F5217"/>
<path d="M3.29723 51.2031L3.28418 51.2215C3.30094 51.2215 3.3084 51.2398 3.32144 51.2472C3.31522 51.2316 3.30709 51.2168 3.29723 51.2031Z" fill="#7F5217"/>
<path d="M10.6651 54.0599C8.94501 52.4619 8.19316 54.4645 6.0477 53.3685C3.90225 52.2725 4.88355 51.8293 3.34442 51.2188C3.30524 51.3272 3.26609 51.4394 3.21945 51.5479C2.58601 52.7136 2.14038 53.9692 1.89858 55.2699C1.7961 55.9503 1.93869 56.6446 2.30156 57.2321C3.46042 58.41 4.95298 59.2158 6.58402 59.5439C8.21506 59.872 9.9086 59.7072 11.4431 59.071C11.693 58.9164 11.8891 58.6902 12.0048 58.4226C12.1205 58.155 12.1504 57.8589 12.0904 57.5741C11.6934 56.3734 11.2173 55.1995 10.6651 54.0599Z" fill="#514A3F"/>
<path d="M79.3303 54.3944C80.7256 55.2755 82.2129 56.0061 83.7667 56.5735C84.3115 56.454 85.6435 55.1024 85.8189 54.9994C86.02 54.3895 86.1226 53.7522 86.123 53.1108C86.123 52.8717 86.8805 52.0957 86.8805 52.0957C86.6649 50.7322 86.5533 49.3546 86.5465 47.9747C86.6062 46.3638 88.2423 41.5862 88.4848 39.7951C88.7274 38.004 89.0296 36.4519 87.9401 35.4368C86.5383 33.8765 85.6304 31.946 85.3283 29.8833C85.207 28.094 84.6827 24.7122 84.3208 14.1953C84.2542 12.907 83.6951 11.6913 82.7562 10.7926C81.8172 9.89404 80.5679 9.37917 79.2594 9.35156C76.8584 9.70464 65.6181 10.5009 63.7301 17.5936C62.4391 22.4356 66.6311 30.4919 68.006 31.7351C74.7222 37.8256 78.7277 37.1084 79.6363 39.0779C81.2474 44.0774 81.1399 49.4613 79.3303 54.3944Z" fill="#CCBCAB"/>
<path d="M81.0655 38.0945C79.8864 36.2684 69.4614 35.04 66.8271 30.1172C67.2211 30.7842 67.6751 31.415 68.1835 32.0021C74.8997 38.1055 78.7522 37.1364 79.6607 39.1059C81.2712 44.1056 81.1597 49.4898 79.3435 54.4205C79.3435 54.4205 83.9162 42.5116 81.0655 38.0945Z" fill="#CCBCAB"/>
<path d="M85.8284 54.7296C85.3396 55.2629 84.5747 55.513 81.7072 55.3236C81.4367 55.307 79.5991 53.9186 79.4218 54.0933C78.8873 54.9187 78.2951 55.7065 77.6495 56.4508C76.1832 58.218 75.8697 60.1103 76.4835 60.4615C77.3492 60.9581 82.9143 60.8624 83.4068 59.7811C84.6325 57.0926 85.6455 57.3023 85.7444 56.5612C85.9515 54.8362 85.8284 54.7296 85.8284 54.7296Z" fill="#514A3F"/>
<path d="M76.6094 60.5349C76.621 59.7972 76.8838 59.0848 77.3556 58.5121C77.8029 57.9051 78.3496 57.3756 78.9731 56.9453C78.9731 56.9453 76.8594 59.2293 77.2343 60.6397C77.2455 60.6967 76.6094 60.5349 76.6094 60.5349Z" fill="#CCBCAB"/>
<path d="M79.2568 34.0219C79.2568 34.0219 84.0813 34.3382 85.4134 33.61C88.445 31.9549 88.6688 28.0159 84.8033 25.2244L84.6168 21.7305C87.4954 23.2825 92.2172 32.5452 85.876 34.4504C83.6755 34.9595 81.3709 34.8103 79.2568 34.0219Z" fill="#AF9C89"/>
<path d="M6.77169 58.164C6.81647 58.4913 8.13919 58.5152 8.6373 58.4453C9.13542 58.3755 9.50294 58.0518 9.4563 57.7245C9.40966 57.3971 8.96753 57.1857 8.46568 57.2555C7.96383 57.3254 6.72692 57.8366 6.77169 58.164Z" fill="#050505"/>
<path d="M3.64737 57.179C3.85259 56.9179 3.01306 55.8752 2.61009 55.5736C2.41044 55.4173 2.16165 55.3347 1.90675 55.3401C1.87551 55.7717 1.90946 56.2055 2.0075 56.6273C2.48696 56.9381 3.46454 57.4199 3.64737 57.179Z" fill="#050505"/>
<path d="M82.4544 32.9453C84.0737 32.9453 85.3872 33.6643 85.3872 34.5507C85.3211 34.8572 85.1891 35.1462 85.0001 35.3982C84.8111 35.6502 84.5695 35.8593 84.2916 36.0115C84.0137 36.1636 83.7058 36.2553 83.3889 36.2802C83.072 36.3052 82.7533 36.2628 82.4544 36.1561C80.546 35.6349 78.5706 35.3914 76.5908 35.4334C78.403 34.3101 80.3811 33.4707 82.4544 32.9453Z" fill="#514A3F"/>
<path d="M79.2656 33.901C80.2349 33.9887 81.1911 34.1836 82.1163 34.4821C82.6157 34.6479 83.1575 34.6417 83.6529 34.4647C84.1483 34.2877 84.5682 33.9502 84.8438 33.5074C84.1419 33.0338 83.304 32.7952 82.4539 32.827C81.3345 32.9938 80.2545 33.3576 79.2656 33.901Z" fill="#514A3F"/>
<path d="M82.4544 35.7144C80.805 35.2381 79.095 34.9966 77.3762 34.9973C76.9005 35.2547 76.5908 35.4349 76.5908 35.4349C78.5707 35.3939 80.546 35.638 82.4544 36.1595C82.7534 36.2662 83.0722 36.3084 83.3892 36.2834C83.7063 36.2583 84.0142 36.1665 84.2922 36.0142C84.5701 35.8619 84.8117 35.6526 85.0006 35.4003C85.1895 35.1481 85.3213 34.8589 85.3872 34.5522C85.3823 34.4855 85.3698 34.4195 85.3498 34.3555C85.1444 34.911 84.7258 35.3647 84.1842 35.6189C83.6426 35.8731 83.0214 35.9074 82.4544 35.7144Z" fill="#514A3F"/>
<path d="M5.63965 47.0701C8.65075 44.7292 10.1899 40.2458 7.80937 37.2852C7.87802 38.8461 7.8481 40.4098 7.71982 41.9671C7.21797 43.2525 6.46425 45.2018 5.63965 47.0701Z" fill="#C1AE99"/>
<path d="M38.0534 22.4165C38.2285 21.3174 38.1572 20.1939 37.8445 19.1249C37.1281 17.3006 35.4752 17.6647 33.7924 18.2054C28.7552 21.0006 24.5669 22.3209 22.5334 23.9226C20.4453 25.6277 18.6575 27.6614 17.2425 29.9415C17.1884 30.0518 17.1325 30.1493 17.0802 30.2394H17.0634C16.8439 30.5442 16.5483 30.788 16.2053 30.9474C14.7016 31.7436 12.8938 31.2912 11.2838 31.7528C10.9199 31.8881 10.5653 32.0465 10.2222 32.2272C10.1566 32.2888 10.1039 32.3625 10.0674 32.4442V32.4773C10.4785 33.2636 10.8206 34.083 11.0897 34.9268C11.1569 35.7433 10.9704 36.5598 11.0468 37.3708C11.0569 38.003 11.2432 38.6204 11.5854 39.1552C11.9276 39.6901 12.4125 40.1218 12.9871 40.4032C14.4292 40.5337 15.8881 39.2097 17.5093 38.5642C18.0843 38.3459 18.6756 38.1719 19.2779 38.0438C20.3396 38.3879 21.3826 38.7857 22.4028 39.2354C22.9922 39.5415 23.6421 39.7173 24.3075 39.7507C24.9728 39.784 25.6375 39.6741 26.2553 39.4285C28.4399 38.1652 28.7384 36.1331 28.8672 33.954C29.3737 32.4017 30.2725 31.0019 31.479 29.8863C32.8876 28.9061 35.0237 29.2776 36.2792 28.0474C37.0427 27.2036 37.5965 26.1963 37.8967 25.1051C37.9937 24.1543 37.9937 23.1576 38.0534 22.4165Z" fill="#C1AE99"/>
<path d="M13.3992 32.3477C13.3912 32.267 13.3698 32.1881 13.3357 32.1142C13.0559 31.6563 12.9234 31.1065 12.6697 30.632C12.002 29.4625 11.0427 28.4802 9.88248 27.778C8.41672 26.8638 7.01609 25.8519 5.69043 24.7493C4.51961 23.5854 3.63614 22.1715 3.10842 20.6172C2.7894 20.8011 3.2353 21.864 3.33231 22.2115C3.58086 23.5456 4.11788 24.8113 4.90688 25.9225C6.22 27.1541 7.66717 28.2389 9.22205 29.1572C9.95221 29.6923 10.571 30.361 11.0448 31.1267C11.2313 31.4393 12.2742 33.1734 11.8451 33.418C12.263 33.1808 13.1081 32.8884 13.3768 32.4985C13.3927 32.4511 13.4002 32.4013 13.3992 32.3514V32.3477Z" fill="#514A3F"/>
<path d="M2.97365 20.6953C3.29185 22.3963 3.85738 24.0432 4.65272 25.585C5.63228 26.713 6.80719 27.6607 8.12276 28.3839C8.38768 28.5678 8.6731 28.7388 8.93242 28.9356C12.7066 31.9073 12.0163 33.4244 11.7103 33.4501C11.4954 33.4491 11.2857 33.3851 11.1077 33.2663C10.8969 33.1465 10.7077 32.993 10.548 32.812C10.528 32.7936 10.5099 32.7733 10.4939 32.7514C10.4204 32.6648 10.3577 32.5697 10.3074 32.4682C10.285 32.3983 10.2664 32.3321 10.2458 32.2696C10.1934 31.7914 10.04 31.3294 9.79551 30.9132C9.55099 30.497 9.22077 30.1359 8.8261 29.8532C8.57051 29.6693 8.30933 29.4946 8.03881 29.3015C6.62731 28.5196 5.38449 27.4733 4.38032 26.2213C3.39003 24.5478 2.90222 22.6314 2.97365 20.6953Z" fill="#6E685F"/>
<path d="M20.6713 36.3153C21.1918 36.3889 23.7981 34.8111 26.8427 35.7637C29.8874 36.7162 32.9414 38.5221 34.2735 38.7059C35.6055 38.8898 31.2101 43.0385 25.7775 41.4349C20.3448 39.8314 21.1135 38.1396 20.8168 38.0881C20.5202 38.0366 20.6713 36.3153 20.6713 36.3153Z" fill="#C1AE99"/>
<path d="M22.145 37.6062C22.479 37.6503 23.5461 36.0266 27.3221 38.5974C29.0142 39.7504 32.5458 39.3936 33.5663 39.2006C34.417 39.0387 30.0216 42.5419 24.9379 40.8556C20.0686 39.2336 22.145 37.6062 22.145 37.6062Z" fill="#E2967F"/>
<path d="M17.4209 36.1409L18.8612 35.3171C18.8757 35.3083 18.8914 35.3015 18.9078 35.2969L17.4675 36.1207L17.4209 36.1409Z" fill="#726F6B"/>
<path d="M17.4678 36.1168L18.908 35.293H18.923L17.4808 36.1186H17.4678V36.1168Z" fill="#77736F"/>
<path d="M18.9577 37.527L20.3979 36.7031C20.3827 36.7154 20.3665 36.7265 20.3494 36.7362L18.9092 37.5601C18.927 37.5516 18.9434 37.5405 18.9577 37.527Z" fill="#726F6B"/>
<path d="M20.6939 36.0284L20.7107 35.9971C20.7406 35.9389 20.7749 35.883 20.8133 35.8298L20.8376 35.8004C20.8774 35.7465 20.9282 35.7014 20.9868 35.668L19.5447 36.4918C19.4904 36.5265 19.442 36.5693 19.4011 36.6187C19.388 36.6337 19.3761 36.6497 19.3656 36.6665L19.3395 36.6996C19.3208 36.7309 19.3022 36.764 19.2854 36.7989C19.2686 36.8338 19.2593 36.8412 19.2481 36.8651C19.2387 36.8817 19.2313 36.9037 19.2219 36.9203C19.1604 37.06 19.0969 37.2145 19.0205 37.3782C19.0018 37.4242 18.9776 37.4664 18.957 37.5106L20.3973 36.6867L20.4439 36.5893L20.4589 36.5562C20.5242 36.4238 20.5745 36.2987 20.6249 36.1884C20.6473 36.1314 20.6697 36.0762 20.6939 36.0284Z" fill="#514A3F"/>
<path d="M25.8289 36.2999C24.9142 36.3485 24.0092 36.0941 23.2581 35.5772C22.4961 35.1671 21.7019 34.8178 20.8832 34.5327C19.6967 34.1833 18.9467 34.8269 17.9561 35.3933C18.3056 35.2631 18.6809 35.2143 19.0528 35.2506C19.4246 35.287 19.7829 35.4076 20.0996 35.6029C21.0754 36.0167 21.997 36.5555 22.9876 36.9233C23.4503 37.0961 24.4036 37.4657 24.8738 37.1973C25.3439 36.9288 25.5267 36.4985 26.0043 36.2263C25.9446 36.2484 25.8886 36.2741 25.8289 36.2999C25.8886 36.2815 25.7207 36.3275 25.8289 36.2999Z" fill="#514A3F"/>
<path d="M26.252 34.2932C26.2016 35.3966 26.2258 37.2944 25.1064 37.9362C25.7333 37.5794 26.5001 37.3201 26.7855 36.636C27.153 35.7699 26.2687 33.8942 26.252 34.2932Z" fill="#514A3F"/>
<path d="M26.3142 34.2031C26.2638 35.632 26.1444 37.6971 24.8982 38.0226C23.8236 38.315 22.4729 37.5058 21.2341 36.9395C20.9636 36.8162 20.7043 36.6967 20.4468 36.5882C19.3816 36.1359 19.3424 36.6894 19.0178 37.3808C18.9991 37.4268 18.9749 37.4691 18.9544 37.5132C18.9031 37.5589 18.8369 37.585 18.7678 37.5868H18.7118C18.5129 37.5711 18.3208 37.508 18.1521 37.4029C17.9203 37.2716 17.7153 37.0988 17.5477 36.8935C17.2417 36.5257 17.4246 34.3043 20.3461 35.5511C20.6148 35.6669 20.8927 35.792 21.1576 35.9188C22.277 36.4319 23.7452 37.3164 24.637 37.0774C25.5829 36.8181 26.2787 34.3392 26.3142 34.2031Z" fill="#6E685F"/>
<path d="M25.9488 45.1584L27.1104 44.7138V41.3899C27.1104 40.8394 27.5058 40.4583 27.9754 40.543L29.6313 40.8183C29.8996 40.9041 30.1286 41.0616 30.2843 41.2675C30.4401 41.4733 30.5144 41.7167 30.4963 41.9615V45.2854L31.6579 46.1111C31.7964 46.2136 31.9078 46.3404 31.9845 46.4828C32.0613 46.6252 32.1016 46.7799 32.1028 46.9368V50.8958C32.1144 50.9928 32.1006 51.0908 32.0625 51.1826C32.0244 51.2745 31.9628 51.3579 31.8824 51.4268C31.8019 51.4958 31.7045 51.5485 31.5973 51.5811C31.49 51.6138 31.3757 51.6256 31.2625 51.6157L26.3195 50.79C26.0694 50.7261 25.8501 50.5947 25.6942 50.4154C25.5383 50.2361 25.4542 50.0185 25.4545 49.7949V45.8359C25.4495 45.6937 25.4939 45.5536 25.5818 45.433C25.6698 45.3124 25.7975 45.2169 25.9488 45.1584Z" fill="#FFB800"/>
<g clip-path="url(#clip0_4255_36368)">
<rect x="52.7627" y="50.1914" width="60.915" height="60.915" rx="30.4575" fill="#FFF9F1"/>
<path d="M74.6408 112.029C74.6649 112.002 74.6895 111.975 74.7123 111.947C75.1161 111.466 75.4205 110.911 75.6078 110.312C75.7951 109.714 75.8616 109.084 75.8035 108.46C75.7454 107.835 75.5638 107.228 75.2693 106.674C74.9748 106.121 74.5732 105.631 74.0877 105.233C73.6022 104.835 73.0424 104.537 72.4409 104.357C71.8394 104.176 71.2081 104.117 70.5834 104.182C69.9587 104.247 69.3531 104.435 68.8017 104.735C68.2503 105.035 67.7639 105.441 67.3709 105.931C67.3476 105.959 67.3278 105.988 67.3028 106.017L67.2855 106.039L67.2514 106.086L67.2109 106.139C66.6295 106.902 65.7941 108.029 64.8431 109.43C63.0317 112.1 61.2569 115.091 60.4249 116.465C59.3312 118.271 55.5832 123.974 55.4543 124.131C54.2643 125.579 53.4669 127.582 54.9173 128.771C55.301 129.086 55.7493 129.313 56.2306 129.437C56.7118 129.56 57.2142 129.576 57.7024 129.484C58.1905 129.392 58.6525 129.194 59.0557 128.904C59.4588 128.614 59.7933 128.239 60.0355 127.806C61.7325 125.312 63.7101 123.02 65.9295 120.976C67.1173 119.893 69.5023 117.401 71.7709 115.107C72.9842 113.88 73.9408 112.824 74.5769 112.106L74.6244 112.054L74.6438 112.032L74.6408 112.029Z" fill="#FFB294"/>
<path d="M85.6427 84.1365C85.6587 86.9689 84.21 89.6536 83.645 90.7186C83.645 90.7186 83.5363 90.7217 82.9166 91.9365C82.3227 93.0967 81.2643 95.3667 79.3852 99.8016C77.7329 103.705 76.2367 107.984 75.7403 109.648C75.7015 109.777 75.6691 109.887 75.6428 109.982C72.641 108.975 69.744 107.808 66.7422 106.8C66.7728 106.745 66.8039 106.691 66.8345 106.638C66.9285 106.473 67.0199 106.311 67.1131 106.152L67.1153 106.147C67.6915 105.146 68.2284 104.22 68.6468 103.324C68.6593 103.298 68.6731 103.267 68.6873 103.235C69.3183 101.812 69.8709 100.355 70.3426 98.8718C70.4069 98.6866 70.472 98.4864 70.5436 98.2741C70.5523 98.2452 70.5618 98.2159 70.573 98.1836C71.1129 96.539 71.8078 94.1841 72.4396 91.5425C72.8278 89.9129 73.0628 88.7264 73.3453 87.6666C73.6265 86.5592 74.0355 85.4882 74.5641 84.475C75.2257 83.2313 76.0211 82.0633 76.9362 80.9918C77.9976 79.7429 78.6252 79.0177 79.7159 78.5065C81.0482 77.8855 83.2957 77.476 84.4261 78.5815C84.8966 79.0453 85.6363 82.9643 85.6427 84.1365Z" fill="#FFB294"/>
<path d="M108.795 144.304C108.849 144.154 108.348 141.985 107.349 137.649C107.116 136.639 106.926 135.807 106.8 135.255C106.639 134.562 106.369 133.307 106.125 131.6C105.935 130.372 105.846 129.131 105.861 127.888C105.824 127.4 105.805 126.883 105.803 126.342C105.803 126.148 105.803 125.948 105.803 125.75C105.812 125.189 105.835 124.607 105.874 124.003C106.119 119.953 106.952 115.02 107.704 110.321C107.709 110.293 107.713 110.267 107.717 110.24C108.422 105.819 109.056 101.615 109.054 98.5632C109.006 97.9703 108.952 97.4219 108.892 96.9181C108.812 96.2488 108.719 95.6515 108.607 95.1184C108.431 94.0723 108.079 93.0636 107.565 92.1348C106.722 90.7106 105.538 90.0177 103.939 88.8187C103.335 88.4634 102.614 87.9548 101.85 87.4927C100.716 86.8127 99.4895 86.1495 98.4268 85.532C92.3417 82.0165 85.8762 78.7982 85.557 78.6415C85.5531 78.6403 85.5492 78.6389 85.5454 78.6371C85.0784 78.4421 84.5958 78.2866 84.1027 78.1721C83.3625 77.9626 82.595 77.8659 81.8259 77.8852C80.4665 78.0084 79.509 79.0049 79.007 79.5432C76.703 82.0075 75.8525 87.6176 75.3716 90.2924C73.6465 99.8818 71.5974 100.461 72.3526 105.373C72.827 108.443 73.3777 108.03 74.2817 112.366C75.2771 117.272 75.4425 122.31 74.7712 127.271C74.0812 132.075 72.3043 138.329 73.7094 141.446C74.0612 142.235 74.532 142.965 75.1055 143.611C76.0631 144.452 77.1082 145.189 78.2229 145.807C78.6973 146.08 79.0781 146.261 79.3382 146.386C79.3382 146.386 80.1331 146.765 81.0246 147.092C82.6839 147.67 84.3866 148.115 86.1164 148.423C88.7835 148.869 91.4911 149.026 94.192 148.889C96.4976 148.777 98.7873 148.446 101.03 147.899C103.052 147.289 105.017 146.501 106.899 145.542C107.066 145.435 107.561 145.221 107.981 144.951C108.275 144.766 108.548 144.548 108.795 144.304Z" fill="#2A7AAD"/>
<path d="M73.8105 96.8556L73.8135 96.8586C73.9429 96.9878 74.0757 97.111 74.2125 97.2359C78.6177 101.315 84.8503 104.339 91.4668 105.971C92.3346 106.184 93.2092 106.376 94.086 106.54C98.7444 107.46 103.524 107.593 108.227 106.933C108.303 106.422 108.376 105.914 108.446 105.418C108.561 104.572 108.668 103.751 108.757 102.963C108.763 102.911 108.769 102.859 108.775 102.808C108.924 101.433 109.025 100.158 109.046 99.024C109.049 98.8693 109.049 98.7139 109.049 98.5619C109.028 98.2822 109.004 98.0115 108.976 97.7496C108.952 97.4611 108.921 97.1807 108.89 96.9163C108.81 96.2471 108.717 95.6511 108.607 95.1157C108.458 94.2935 108.212 93.4919 107.874 92.7278C107.825 92.6214 107.776 92.5215 107.724 92.4237C107.7 92.372 107.673 92.3234 107.645 92.2747C107.617 92.226 107.593 92.1774 107.566 92.1317C107.46 91.9552 107.35 91.7872 107.234 91.633V91.6296C107.118 91.4745 106.995 91.3256 106.868 91.1856C106.807 91.1122 106.742 91.0423 106.673 90.9763C105.815 90.1906 104.9 89.4677 103.938 88.8131C103.456 88.5276 102.896 88.1439 102.299 87.7666C102.153 87.6727 102.003 87.5784 101.851 87.4867C101.348 87.1852 100.827 86.8876 100.31 86.5956C99.6605 86.2309 99.0179 85.8717 98.427 85.5281C95.7642 83.9889 93.032 82.5074 90.7685 81.3184C90.7685 81.3184 90.7685 81.3149 90.7655 81.3149C90.4455 81.1427 90.1319 80.9808 89.83 80.8253C89.5281 80.6698 89.2361 80.5122 88.9558 80.3688C88.8191 80.296 88.6815 80.2262 88.5504 80.1595C88.4641 80.1138 88.3744 80.0678 88.2886 80.0256C88.1821 79.9704 88.079 79.9158 87.9776 79.8641C87.9172 79.8335 87.856 79.8029 87.7987 79.7723C87.643 79.6901 87.4937 79.6139 87.3505 79.5411C87.1163 79.4226 86.9028 79.3128 86.7079 79.2155C86.6216 79.1698 86.5354 79.1294 86.4552 79.0863C86.3512 79.0316 86.2538 78.9829 86.1654 78.9373C86.1412 78.9282 86.1196 78.9162 86.0985 78.9067C86.0467 78.8796 85.998 78.855 85.9523 78.8339C85.9523 78.8331 85.952 78.8324 85.9514 78.8318C85.9508 78.8312 85.95 78.8309 85.9492 78.8309C85.7336 78.7211 85.5956 78.6513 85.5563 78.6332C85.5533 78.6332 85.5499 78.6332 85.5438 78.6268C85.0772 78.4332 84.5952 78.2786 84.1029 78.1647C83.9963 78.1406 83.8105 78.0915 83.5759 78.0432C83.5366 78.0368 83.4965 78.0282 83.4542 78.0187C82.9204 77.8941 82.3714 77.846 81.8239 77.8757C80.4654 78.0006 79.5058 78.9954 79.0063 79.5337C76.7006 82.0001 75.7626 87.5271 75.2808 90.2007C74.9144 92.4444 74.4236 94.6662 73.8105 96.8556Z" fill="#F4F3FF"/>
<g style="mix-blend-mode:multiply">
<path d="M99.874 100.258C99.7126 103.379 99.8546 106.509 100.298 109.603C101.075 114.958 102.039 114.99 102.043 118.781C102.043 121.488 105.699 124.972 105.838 124.759C105.857 124.231 105.887 123.686 105.929 123.123C105.978 122.469 106.04 121.84 106.115 121.237C104.641 116.94 103.167 112.643 101.693 108.345L99.874 100.258Z" fill="#C6C6C6"/>
</g>
<path d="M113.562 112.791C112.677 109.266 112.106 106.402 111.913 105.408C111.913 105.408 111.749 104.571 110.818 99.4704C110.656 98.2749 110.269 95.25 108.606 92.9568C107.916 92.0072 105.032 89.2497 104.379 89.1489C102.815 88.9073 101.225 90.5459 100.505 91.8254C99.9156 92.8741 99.8267 93.8284 99.6926 95.4615C99.5765 96.8647 99.61 98.2763 99.7927 99.6724C100.291 103.296 101.118 106.867 102.265 110.341C103.265 113.274 103.518 113.35 104.794 116.994C105.771 119.787 106.45 122.107 106.869 123.626C107.731 123.362 115.456 121.879 116.11 121.679C114.988 118.203 114.161 115.182 113.562 112.791Z" fill="#FFB294"/>
<path opacity="0.51" d="M64.8439 98.923L68.3374 109.831L56.9642 103.275L53.4707 92.3672L64.8439 98.923Z" fill="#86DFF7"/>
<path opacity="0.51" d="M81.9679 108.806L85.4614 119.714L74.0882 113.158L70.5947 102.25L81.9679 108.806Z" fill="#86DFF7"/>
<path opacity="0.51" d="M74.3434 99.4028L79.3947 115.178L62.9478 105.697L57.8965 89.9219L74.3434 99.4028Z" fill="#86DFF7"/>
<path d="M58.6943 102.022L59.757 101.41C60.1107 101.163 60.7149 101.233 61.4994 101.685L76.6715 110.431C78.4976 111.615 79.8982 113.35 80.67 115.383L85.0662 129.112C85.3513 130.002 85.2792 130.62 84.9368 130.902C84.8852 130.943 84.8283 130.976 84.7677 131.001L83.8115 131.561L83.391 130.781C83.3125 130.741 83.2336 130.701 83.1508 130.651L67.9788 121.906C66.1526 120.722 64.7521 118.987 63.9803 116.953L59.5845 103.225C59.5095 102.996 59.4569 102.76 59.4275 102.521L59.4254 102.528L58.6943 102.022Z" fill="#CCCCCC"/>
<path d="M60.3707 102.344L75.5427 111.09C77.3687 112.274 78.7692 114.009 79.5412 116.042L83.937 129.771C84.5089 131.558 83.6463 132.252 82.019 131.314L66.847 122.569C65.0208 121.384 63.6202 119.65 62.8485 117.616L58.4523 103.887C57.88 102.101 58.7426 101.406 60.3707 102.344Z" fill="#D7D9DD"/>
<path d="M75.6162 111.139C77.1998 112.197 78.4667 113.664 79.2822 115.383C79.3802 115.6 79.4658 115.822 79.5384 116.048L83.9346 129.777C84.2218 130.667 84.1502 131.284 83.8052 131.568V131.571L84.7622 131.008C84.8237 130.984 84.8812 130.951 84.9326 130.909C85.2776 130.626 85.3496 130.008 85.0619 129.118L80.6658 115.389C80.5931 115.165 80.5088 114.946 80.4131 114.731C79.5991 113.011 78.3336 111.543 76.751 110.484L75.6162 111.139Z" fill="#F2F2F2"/>
<path d="M75.6162 111.139C77.1998 112.197 78.4668 113.663 79.2822 115.383L80.4131 114.731C79.5992 113.011 78.3336 111.543 76.751 110.484L75.6162 111.139Z" fill="#E6E6E6"/>
<path d="M94.2082 108.598C94.1349 107.898 94.0982 107.211 94.0892 106.538C93.9598 96.8412 100.038 89.9791 102.296 87.7681L102.299 87.7647C102.153 87.6708 102.003 87.5765 101.851 87.4848C101.348 87.1833 100.827 86.8857 100.31 86.5938C100.309 86.5938 100.308 86.5941 100.308 86.5946C100.307 86.5952 100.307 86.5959 100.307 86.5967C93.3456 92.7982 91.8072 102.152 91.4695 105.969C91.372 107.049 91.3721 107.685 91.3721 107.685L94.2082 108.598Z" fill="#2A7AAD"/>
<path d="M86.6635 78.6146C86.6635 78.6146 76.4035 87.1313 77.7448 100.211L74.9082 99.299C74.9082 99.299 74.9207 85.2303 84.8094 77.3984L86.6635 78.6146Z" fill="#2A7AAD"/>
<path d="M85.5074 81.4819C85.2249 82.8269 84.185 84.2679 84.3243 86.733C84.4675 89.2738 91.3811 91.5959 94.2812 89.5671C96.2983 88.1563 97.5159 86.3049 98.425 85.5336C97.1972 83.4324 96.8409 81.8196 96.7779 80.7343C96.7453 78.9734 97.0077 77.2195 97.5542 75.5449C97.656 75.2198 97.7069 75.0281 97.8079 74.6492C97.902 74.3896 97.9625 74.1191 97.9881 73.8443C97.9152 73.8163 97.3468 74.9282 96.6722 76.5019C96.4092 77.1888 96.0769 77.8472 95.6803 78.4669C95.6035 78.51 95.4888 78.5746 95.3503 78.6517C93.8692 79.4614 92.3233 80.147 90.7286 80.7016C88.0524 81.6547 87.2148 81.6822 86.6718 81.649C86.2796 81.6268 85.89 81.5709 85.5074 81.4819Z" fill="#FFB294"/>
<g style="mix-blend-mode:multiply">
<path d="M85.7237 81.667C85.5633 82.0207 85.4731 82.4021 85.458 82.7901C85.4485 83.0425 85.4114 84.0265 85.8639 84.3973C86.8506 85.2061 90.0159 82.9783 91.2657 82.0985C91.8842 81.6631 91.9226 81.5912 93.5369 80.4026C94.5798 79.636 95.2832 79.1778 95.8603 78.7695C94.715 79.2566 93.5456 79.685 92.3565 80.0529C90.1963 80.781 87.9771 81.321 85.7237 81.667Z" fill="#C6C6C6"/>
</g>
<path d="M82.0778 73.3579C82.5315 72.3484 82.8373 71.6676 82.6096 70.9303C82.4216 70.3209 82.058 70.2843 81.8294 69.4553C81.7329 68.9875 81.68 68.5117 81.6715 68.0341C81.631 67.4867 81.6017 67.0324 81.5818 66.7137C81.4701 65.3253 81.5749 63.411 82.6997 61.7844C84.8778 58.6346 94.4072 53.1972 98.7904 58.6923C101.287 61.8215 101.38 69.6904 99.0699 73.7989C98.3847 74.6567 97.7648 75.5644 97.2153 76.5146C96.5498 77.6662 96.2548 78.5817 96.0853 78.754C95.5186 79.3289 89.4391 82.1222 85.9741 82.5403C85.431 82.5728 84.8924 82.4239 84.4434 82.117C83.8552 81.6907 83.6451 81.0464 83.0387 78.3014C82.8843 77.6029 82.7549 76.9956 82.6527 76.5081C81.3291 76.5176 80.9323 76.2308 80.8172 75.9621C80.605 75.466 81.3459 74.9892 82.0778 73.3579Z" fill="#FFB294"/>
<path d="M108.115 59.9392C107.298 58.8057 106.678 57.5432 106.28 56.2046C106.182 55.6305 105.564 52.3226 102.743 50.8321C102.118 50.5042 101.439 50.2888 100.739 50.1956C99.972 50.1648 99.2077 50.3021 98.4996 50.5979C97.2824 51.1358 96.2997 52.0935 95.7316 53.2955C95.0567 53.2064 94.3757 53.1734 93.6954 53.1969C93.5911 53.2016 93.4039 53.2098 93.165 53.2305C91.0883 53.451 89.0941 54.1621 87.3472 55.3049C86.7892 55.6598 86.2561 56.0521 85.7515 56.4793C84.8 57.2765 83.9658 58.2036 83.2737 59.2334C82.1286 60.9762 80.5221 64.5218 81.9013 66.1846C82.0756 66.3926 82.2876 66.5659 82.5263 66.6954C83.0573 66.9118 83.604 67.0877 84.1617 67.2216C84.5754 67.3198 84.9941 67.3957 85.4159 67.449C86.5419 67.6045 87.6794 67.6613 88.8153 67.6187C89.2465 67.6198 89.6731 67.7077 90.0696 67.8771C92.5072 68.9421 92.7108 72.9481 93.4432 72.8809C93.868 72.8425 93.7252 71.5028 94.95 70.0683C95.7794 69.0971 96.4165 69.0429 96.5549 69.0347C97.095 69.0386 97.612 69.254 97.9946 69.6346C99.1384 70.7612 97.1687 76.2357 97.3274 76.3227C98.0218 76.7034 101.904 72.5178 103.218 69.3865C104.762 65.7014 104.094 61.9426 103.967 61.2945C103.962 61.2682 103.957 61.2407 103.951 61.2135C104.413 61.8347 105.044 62.3104 105.769 62.5843C107.885 63.3673 109.736 61.9603 109.849 61.8716C109.205 61.29 108.624 60.6424 108.115 59.9392Z" fill="#634E42"/>
<path d="M91.8428 54.3276C90.5102 54.6902 89.2479 55.2735 88.1086 56.0533C87.5386 56.3875 86.9961 56.7664 86.4861 57.1863C85.5277 57.995 84.7043 58.951 84.0471 60.0183C83.4325 60.9731 83.0478 61.5851 82.8969 62.5217C82.8054 63.0954 82.6778 63.8404 83.1414 64.4769C83.4936 64.8932 83.9609 65.1965 84.4849 65.349C84.4849 65.349 84.5544 65.3744 84.6613 65.4058C84.6613 65.4058 84.7088 65.4201 84.7829 65.4394C84.7829 65.4394 84.9222 65.4752 85.0624 65.5036C85.175 65.526 87.8253 65.6444 90.1086 63.0919C91.3779 61.6707 91.1695 60.9516 92.4992 60.0502C92.9922 59.7164 93.8168 59.275 94.2019 59.0687C94.9705 58.6622 95.4527 58.4283 96.1673 57.9895C97.2124 57.3474 97.384 57.1067 97.4772 56.8775C97.5577 56.6309 97.5877 56.3706 97.5655 56.1121C97.5433 55.8536 97.4692 55.6022 97.3478 55.3729C96.7951 54.8554 96.1358 54.4648 95.4161 54.2286C94.042 53.788 92.8675 54.0761 91.8428 54.3276Z" fill="#6D574E"/>
<path d="M97.3472 52.1588C97.679 51.5781 98.1877 51.1184 98.7994 50.8466C99.3878 50.5821 100.034 50.4732 100.677 50.5305C101.634 50.5639 102.546 50.9439 103.243 51.5994C104.084 52.431 104.53 53.7169 104.253 53.9249C103.821 54.254 102.177 51.5322 100.36 51.8699C99.0232 52.1188 98.0312 53.9456 97.5533 53.6597C97.4041 53.5493 97.2901 53.398 97.2251 53.2243C97.1671 53.0886 97.1468 52.9398 97.1665 52.7936C97.1966 52.5746 97.2575 52.3609 97.3472 52.1588Z" fill="#6D574E"/>
</g>
<defs>
<clipPath id="clip0_4255_36368">
<rect x="52.7627" y="50.1914" width="60.915" height="60.915" rx="30.4575" fill="white"/>
</clipPath>
</defs>
</svg>
