<svg width="106" height="108" viewBox="0 0 106 108" fill="none" xmlns="http://www.w3.org/2000/svg">
<path d="M89.2469 28.5543L37.23 0.84956C36.6173 0.522659 35.9355 0.568062 35.4019 0.84956H35.3821L30.6982 3.32855L34.4631 8.66792V47.342C34.4631 49.6122 35.7774 51.7098 37.9217 52.8449L82.2705 76.4634L86.9445 83.0922L91.7272 80.5678C92.2904 80.2863 92.7055 79.7506 92.7055 79.0695V34.0481C92.7055 31.778 91.3912 29.6803 89.2469 28.5453V28.5543Z" fill="#DFDAEF"/>
<path d="M32.5071 3.33948L84.524 31.0443C86.6584 32.1793 87.9826 34.277 87.9826 36.5471V81.5685C87.9826 82.8761 86.441 83.6934 85.2157 83.0396L33.1988 55.3348C31.0644 54.1997 29.7402 52.1021 29.7402 49.832V4.81053C29.7402 3.50293 31.2818 2.68568 32.5071 3.33948Z" fill="url(#paint0_linear_4255_36849)"/>
<path d="M56.5687 31.8985V59.8122L34.9971 48.3707V20.457L56.5687 31.8985Z" fill="#D5C9F1"/>
<path d="M81.3118 45.0092V55.6879L59.7402 44.2464V33.5586L81.3118 45.0092Z" fill="#D5C9F1"/>
<path d="M81.3118 61.6068V72.2856L59.7402 60.8441V50.1562L81.3118 61.6068Z" fill="#D5C9F1"/>
<path d="M92.7055 34.0494C92.7055 31.7792 91.3912 29.6816 89.2469 28.5465L37.23 0.841747C36.6173 0.514847 35.9355 0.56025 35.4019 0.841747H35.3821L30.6982 3.32074L87.9722 42.8575L92.6956 40.3513V34.0494H92.7055Z" fill="url(#paint1_linear_4255_36849)"/>
<path d="M32.5071 3.34212L84.524 31.0469C86.6584 32.182 87.9826 34.2796 87.9826 36.5497V42.8607L29.7402 11.8597V4.82225C29.7402 3.51465 31.2818 2.6974 32.5071 3.3512V3.34212Z" fill="url(#paint2_linear_4255_36849)"/>
<path d="M84.3168 36.4194C84.3168 37.836 83.378 38.4898 82.2219 37.8814C81.0657 37.2639 80.127 35.6203 80.127 34.1947C80.127 32.769 81.0657 32.1243 82.2219 32.7327C83.378 33.3411 84.3168 34.9938 84.3168 36.4194Z" fill="#FF7A85"/>
<path d="M66.3525 26.107C66.3525 20.3903 68.3002 16.2666 71.4321 14.2736C71.8245 14.0245 72.2383 13.8082 72.6663 13.6246L77.0539 11.3169C79.9289 9.76976 83.6958 9.90088 87.8122 12.084C96.8584 16.8829 104.192 29.7586 104.192 40.838C104.192 46.7907 102.081 51.0127 98.7205 52.9074C98.5492 53.0057 93.6694 55.5297 93.6694 55.5297C90.7729 57.1818 86.9347 57.09 82.7327 54.861C81.0847 53.9891 79.4938 52.8484 77.9956 51.4978L70.9969 42.5753C68.1218 37.4355 66.3525 31.5549 66.3525 26.107Z" fill="url(#paint3_linear_4255_36849)"/>
<path d="M92.5768 56.0548C99.8061 53.228 101.26 41.4188 95.8231 29.6781C90.3867 17.9374 80.119 10.7112 72.8897 13.538C65.6604 16.3647 64.2069 28.174 69.6434 39.9147C75.0798 51.6554 85.3474 58.8815 92.5768 56.0548Z" fill="url(#paint4_linear_4255_36849)"/>
<path d="M72.7034 30.1984C73.9019 29.4183 75.8424 30.3951 77.041 32.4995L79.488 36.6887L87.8707 30.8278L90.8956 29.2085C92.1013 28.5529 93.9348 29.5822 95.0834 31.6014C96.2819 33.7058 96.2819 36.0856 95.0834 36.9182L81.8708 46.1882C81.7567 46.2669 81.6354 46.3193 81.5141 46.3652L78.475 47.9976L69.8711 31.6997C69.8711 31.6997 72.6891 30.1984 72.6962 30.1919L72.7034 30.1984Z" fill="url(#paint5_linear_4255_36849)"/>
<path d="M76.4913 47.8468C77.2761 48.2664 78.0609 48.3123 78.6601 47.8993L91.8727 38.6293C93.0712 37.7967 93.0712 35.4169 91.8727 33.3125C90.6741 31.2081 88.7336 30.1788 87.5351 31.0114L76.4913 38.7735L73.8303 34.2041C72.6317 32.0997 70.6912 31.0704 69.4927 31.903C68.2941 32.7356 68.2941 35.1154 69.4927 37.2198L74.3225 45.5982C74.9218 46.6471 75.7066 47.4338 76.4913 47.8468Z" fill="url(#paint6_linear_4255_36849)"/>
<path d="M15.1601 50.7346C10.1212 51.3753 7.44277 57.2477 6.61419 61.2784C5.48694 66.7683 6.79725 72.8721 3.22279 77.757C2.87595 78.2285 3.70453 78.6734 4.05137 78.2019C7.07666 73.9843 7.08629 68.7525 7.51985 63.9299C7.77035 61.1449 8.38697 58.5112 9.85144 56.0466C11.1232 53.8933 12.5684 51.7579 15.3625 51.393C15.8346 51.3308 15.6322 50.6723 15.1698 50.7346H15.1601Z" fill="#CCBCAB"/>
<path d="M1.62405 79.3203C1.33501 79.8097 0.997801 80.2724 0.641318 80.7173C0.670222 80.744 0.679857 80.655 0.641318 80.6728C0.535337 80.744 0.438989 80.8063 0.333008 80.8774C0.438989 80.8063 1.10378 80.9664 1.14232 81.0999C1.18086 81.2067 1.0267 81.4647 1.00743 81.5804C0.968896 81.7316 0.939992 81.8918 0.930357 82.0519C0.930357 82.2655 0.949626 82.479 0.97853 82.7015C1.00743 82.9417 1.04597 83.1731 1.11342 83.4044C1.2483 83.8404 1.51807 84.2319 1.78784 84.6145C2.33702 83.7781 2.54898 82.7993 2.95364 81.9007C3.08852 81.5982 3.26194 81.2956 3.56062 81.1266C3.85929 80.9575 4.32176 81.002 4.48555 81.2956C4.50482 80.5571 4.6108 79.8186 4.79386 79.0979C4.87093 78.7954 4.91911 78.5996 5.17924 78.4039C5.24668 78.3505 5.91148 78.0035 5.97892 78.1636C5.82476 77.7721 5.72842 77.3539 5.69951 76.9358C5.68024 76.651 5.77659 76.3218 5.57426 76.0905C5.1407 75.6011 4.21578 75.6367 3.72441 76.0104C2.99217 76.5709 2.25031 77.0781 1.41209 77.4963C1.73003 77.6565 2.09615 77.7188 2.45263 77.6832C2.2214 78.2437 1.942 78.7954 1.62405 79.3203Z" fill="#AF9C89"/>
<path d="M24.5547 85.7304C24.5547 85.7304 24.5355 85.7393 24.5258 85.7482C24.3621 85.8461 23.9767 85.8105 23.7936 85.8016C23.0517 85.766 22.3291 85.4368 21.8378 84.8406C21.4717 84.4135 21.2501 83.8619 21.1055 83.2924C20.9899 82.8475 20.7972 82.1713 21.0574 81.7264C21.2693 81.3705 21.7029 81.2637 22.0401 81.1659C22.6471 80.9879 23.2637 80.8633 23.89 80.8367C24.1694 80.8189 24.5066 80.8811 24.7763 80.7922C24.8631 80.7655 24.9016 80.6587 25.0076 80.6498C25.1714 80.632 25.2773 80.7922 25.3641 80.9256C25.9614 81.9133 26.578 82.9988 26.5106 84.2089C26.5106 84.3601 26.4817 84.5203 26.4142 84.6538C26.2119 85.1165 25.7302 85.1342 25.3159 84.8495C25.0847 84.6894 24.9401 84.4313 24.8149 84.1822C24.8823 84.3068 24.8052 84.6271 24.7956 84.7694C24.7763 84.9741 24.7571 85.1876 24.7089 85.3923C24.68 85.5257 24.6704 85.6503 24.5644 85.7304H24.5547Z" fill="#7A593D"/>
<path d="M21.0377 62.3642C21.3461 63.4853 21.9338 64.9178 21.2304 66.9643C20.9318 67.8274 20.5367 68.3434 20.6138 69.2599C20.6813 70.0607 20.6909 70.8259 20.9125 71.6C21.269 72.8101 20.9318 79.8037 20.8643 81.0583C20.8354 81.5921 20.8451 82.1883 21.2979 82.5709C21.7218 82.9268 22.3288 83.0958 22.8876 83.1759C24.4002 83.3806 25.383 82.3751 25.4504 81.0583C25.5275 79.6702 24.882 78.8071 24.9976 75.0167C25.065 72.8991 24.9301 72.036 25.3155 71.4576C25.8069 70.728 26.9342 69.8027 27.493 69.1175C28.0614 68.4146 28.6202 67.7028 29.1598 66.9821C34.6804 59.6682 34.2083 58.6716 34.7671 56.5362C35.2778 54.5698 33.5821 52.4699 32.5415 50.8505C32.0791 50.1387 31.9634 49.765 31.1252 49.3824C28.0132 47.9588 23.3886 48.8663 22.1554 50.3256C21.7989 50.7527 21.5387 51.242 21.2882 51.7314C19.9972 54.3028 20.1514 55.1214 20.4404 58.0399C20.5849 59.5614 20.6235 60.9138 21.0281 62.3909L21.0377 62.3642Z" fill="#AF9C89"/>
<path d="M25.2383 65.2827C23.9087 64.7933 22.3286 64.2862 20.9798 64.9802C19.9296 65.5229 19.0721 66.1369 18.8409 67.2936C18.706 67.952 18.7734 68.6371 18.8794 69.3045C19.0143 70.132 18.9757 70.9327 19.2744 71.7335C19.602 72.6144 20.1223 73.433 20.6811 74.2071C21.0665 74.741 21.4711 75.2659 22.001 75.6841C22.4539 76.04 22.9838 76.3159 23.5233 76.5472C24.9974 77.1878 26.6449 77.606 28.2539 77.4014C29.1981 77.2857 30.123 76.9209 30.8553 76.3604C31.7224 75.693 32.0403 74.91 32.233 73.9135C32.5221 72.3742 32.3968 70.7281 31.5779 69.3579C30.3061 67.2313 27.6855 66.1725 25.2383 65.2827Z" fill="#EE8A8A"/>
<g style="mix-blend-mode:multiply" opacity="0.3">
<path d="M32.233 73.9057C32.5221 72.3664 32.3968 70.7203 31.5779 69.35C30.3061 67.2235 27.6855 66.1647 25.2383 65.2749C23.9087 64.7855 22.3286 64.2783 20.9798 64.9724C19.9296 65.5151 19.0721 66.1291 18.8409 67.2858C18.706 67.9442 18.7734 68.6293 18.8794 69.2967C19.0143 70.1152 18.9757 70.9071 19.2648 71.699C19.6791 71.1118 20.103 70.6491 20.71 70.7915C23.8509 72.2418 25.614 75.6585 28.62 77.3313C29.439 77.1711 30.2194 76.8419 30.8553 76.3436C31.7224 75.6763 32.0403 74.8933 32.233 73.8968V73.9057Z" fill="#CE8C8C"/>
</g>
<path d="M18.9756 75.6869C18.9756 75.7403 18.9756 75.8026 19.0238 75.8471C19.1105 75.9361 19.2646 75.8827 19.3802 75.8204C19.6885 75.6424 19.968 75.4111 20.2281 75.1798C20.5268 74.9128 20.8062 74.6103 20.9218 74.2455C21.0181 73.9074 20.9411 73.5337 20.7291 73.2401C20.3822 72.7507 20.1799 72.9553 19.8716 73.3468C19.3417 74.032 18.9467 74.8416 18.9852 75.6958L18.9756 75.6869Z" fill="#EE8A8A"/>
<path d="M22.4146 76.5758C22.3568 77.0295 22.3568 77.5456 22.694 77.8837C22.7904 77.9905 22.9638 78.0706 23.0891 77.9994C23.1276 77.9727 23.1565 77.946 23.1854 77.9104C23.6286 77.3677 23.8598 76.6825 23.8406 76.0063C23.8406 75.8284 23.802 75.6326 23.696 75.4813C23.513 75.2233 22.8482 74.8318 22.6459 75.161C22.5784 75.2678 22.6073 75.6415 22.5784 75.775C22.5206 76.0419 22.4532 76.3088 22.4146 76.5847V76.5758Z" fill="#EE8A8A"/>
<path d="M26.1342 78.2136C26.1342 78.445 26.1438 78.7208 26.3558 78.8454C26.5099 78.9343 26.7123 78.9076 26.8664 78.8187C27.0206 78.7297 27.1169 78.5784 27.1843 78.4183C27.3192 78.1157 27.3578 77.7865 27.3674 77.4573C27.3674 77.1103 27.3289 76.7544 27.1554 76.4519C26.9242 76.0604 26.3172 75.9002 26.1823 76.4163C26.0475 76.9412 26.1534 77.662 26.1438 78.2047L26.1342 78.2136Z" fill="#EE8A8A"/>
<path d="M55.1824 101.14C54.9801 101.256 54.6428 101.256 54.4309 101.256C53.6986 101.273 52.9568 101.015 52.4172 100.49C52.0222 100.108 51.7524 99.6005 51.5598 99.0756C51.4152 98.6574 51.1647 98.0256 51.3767 97.5897C51.5501 97.2337 51.974 97.1003 52.292 96.9846C52.8701 96.7711 53.4674 96.6109 54.0744 96.5308C54.3442 96.4952 54.691 96.5308 54.9415 96.4241C55.0282 96.3885 55.0475 96.2906 55.1535 96.2728C55.3173 96.2461 55.4329 96.3885 55.5292 96.513C56.2037 97.4117 56.907 98.3993 56.9455 99.556C56.9455 99.6984 56.9455 99.8497 56.8974 99.9831C56.7528 100.384 56.3963 100.624 55.9917 100.348C55.8664 100.259 55.7605 100.152 55.6545 100.037C55.5196 99.8942 55.3943 99.7518 55.2595 99.6005C55.3558 99.7073 55.3269 100.117 55.3365 100.259C55.3462 100.464 55.3654 100.686 55.3365 100.9C55.3269 101.015 55.2595 101.095 55.1631 101.149L55.1824 101.14Z" fill="#7A593D"/>
<path d="M52.6292 68.1645C53.3133 67.9154 54.0937 67.8175 54.8933 67.8086C55.6159 67.8086 56.3193 67.9687 56.9841 68.1912C57.5814 68.3869 58.1595 68.6361 58.6316 69.0009C60.1153 70.122 60.1731 71.777 59.9034 73.3341C59.4505 75.9322 58.0439 78.1388 57.0611 80.5768C56.8106 81.1996 56.4927 81.8403 56.2904 82.4631C56.0784 83.1482 56.1651 83.9668 56.1169 84.6698C56.0591 85.5862 56.011 86.5116 55.8761 87.4191C55.6737 88.8784 55.2787 90.3198 55.2691 91.7879C55.2691 93.8344 56.2326 97.2511 55.5389 97.9718C55.1824 98.3455 54.2285 98.8794 53.1013 98.6748C50.9817 98.3011 51.29 97.3223 51.3189 96.824C51.6465 91.3875 51.791 91.3697 51.1166 87.6861C50.7601 85.7108 51.2129 83.7266 50.8757 81.7513C50.5288 79.7315 49.6135 77.8096 49.3534 75.7809C49.0836 73.6989 49.5461 71.5545 50.6541 69.686C51.0973 68.9386 51.7813 68.4581 52.6003 68.1645H52.6292Z" fill="#CCBCAB"/>
<path d="M55.8961 87.4185C56.0214 86.502 56.0792 85.5856 56.137 84.6691C56.1755 83.9662 56.0985 83.1476 56.3104 82.4625C56.5031 81.8396 56.8307 81.1901 57.0812 80.5762C58.0639 78.1382 59.4706 75.9316 59.9234 73.3334C60.1932 71.7852 60.1354 70.1213 58.6516 69.0002C58.1699 68.6354 57.5918 68.3952 57.0041 68.1905C56.9078 68.1549 56.8018 68.1283 56.7054 68.1016C57.1775 70.068 57.6207 71.8475 57.3799 73.8317C56.8789 77.3374 53.3333 79.4373 52.8323 82.9341C52.3313 85.7368 54.6051 88.5396 53.0828 90.8708C52.6396 91.4492 52.1193 92.0631 51.6087 92.6948C51.5702 93.4867 51.5027 94.4744 51.416 95.8535C51.8496 95.382 52.3698 95.0705 53.0828 95.0705C53.9981 95.1684 54.846 95.1595 55.6649 95.0705C55.5107 93.9494 55.3084 92.7126 55.3084 91.7784C55.3084 90.3103 55.7034 88.8688 55.9154 87.4096L55.8961 87.4185Z" fill="#CCBCAB"/>
<path d="M13.0995 91.4229C13.0995 91.4229 13.0417 91.4318 13.0032 91.4407C12.7816 91.4763 12.5504 91.4941 12.3288 91.4852C11.5869 91.4496 10.8643 91.1204 10.3729 90.5242C10.0068 90.0971 9.78522 89.5455 9.6407 88.976C9.52508 88.5311 9.33239 87.8549 9.59252 87.41C9.80449 87.0541 10.238 86.9473 10.5753 86.8495C11.1822 86.6715 11.7989 86.5469 12.4251 86.5202C12.7045 86.5024 13.0417 86.5647 13.3115 86.4758C13.3982 86.4402 13.4368 86.3423 13.5427 86.3334C13.7065 86.3156 13.8125 86.4758 13.8992 86.6092C14.4966 87.5969 15.1132 88.6824 15.0457 89.8925C15.0457 90.0437 15.0168 90.2039 14.9494 90.3374C14.8241 90.631 14.5255 90.889 14.1786 90.7289C14.0437 90.6666 13.9378 90.5687 13.8414 90.4708C13.6294 90.2662 13.4078 90.0615 13.1959 89.848C13.2344 89.8836 13.1959 90.0793 13.2055 90.1327C13.2055 90.2395 13.2055 90.3374 13.2055 90.4441C13.2055 90.6488 13.2055 90.8534 13.1959 91.0581C13.1959 91.1382 13.2152 91.2894 13.1766 91.3606C13.1573 91.3962 13.1381 91.414 13.0995 91.4229Z" fill="#7A593D"/>
<path d="M69.4801 54.9772C70.5881 54.2565 72.2067 53.7849 73.5459 54.1586C74.0084 54.2832 74.4323 54.5145 74.8563 54.7369C75.4151 55.0395 75.9739 55.3331 76.5327 55.6356C76.1377 55.8581 75.8679 56.2229 75.5789 56.5699C75.0682 57.2016 74.4709 57.7711 73.8254 58.2782C73.3725 58.6252 72.8812 58.9545 72.3223 59.1146C71.5901 59.3193 70.8001 59.2303 70.0486 59.0879C69.5572 58.9989 69.0755 58.8833 68.5841 58.821C68.1409 58.7676 67.7362 58.5719 67.2738 58.6341C67.1485 58.6519 67.0329 58.6875 66.9077 58.7053C66.3585 58.7854 65.79 58.6697 65.6841 58.0914C65.6455 57.8867 65.6841 57.6821 65.7611 57.4863C66.0405 56.819 66.9462 57.1037 67.4183 56.6588C68.0542 56.0627 68.7383 55.4666 69.4898 54.9772H69.4801Z" fill="#AF9C89"/>
<path opacity="0.3" d="M74.4814 55.995C74.4814 55.995 73.9226 57.5343 72.2365 58.1661C70.589 58.7889 67.4385 58.5843 68.2478 57.214C70.0495 54.1621 74.4814 55.995 74.4814 55.995Z" fill="#514A3F"/>
<path d="M68.1711 51.491C68.9996 49.9072 69.4621 48.1899 69.8668 46.4727C71.1 48.1899 70.9555 50.4321 70.599 52.4697C70.4063 53.5552 70.1654 54.6319 69.8764 55.6996C69.6644 56.4915 69.3754 57.3457 68.6432 57.7994C67.1883 58.7159 64.8856 57.3635 65.0013 55.7708C65.0591 54.9433 65.9358 54.4183 66.4754 53.8578C67.1594 53.1548 67.7182 52.3451 68.1614 51.491H68.1711Z" fill="#674521"/>
<path d="M70.6085 52.4252C70.965 50.4054 71.0903 48.181 69.8666 46.4727C69.462 48.1899 68.9995 49.9161 68.1709 51.491C68.1035 51.6155 68.0264 51.749 67.959 51.8736C67.9686 51.8736 67.9783 51.8914 67.9879 51.8914C68.9417 52.3274 69.7896 52.5854 70.6085 52.4252Z" fill="#EF5F50"/>
<path d="M62.5438 68.9477C62.0332 70.4426 61.2431 71.8484 60.694 73.3343C60.2122 74.6423 60.0388 76.3773 59.2198 77.5429C58.478 78.6018 56.9461 79.5271 55.8766 80.3101C54.7108 81.1643 53.4872 81.8227 52.2347 82.3121C48.1304 83.9404 43.8429 83.8158 41.1549 83.1218C41.0778 83.104 41.0103 83.0862 40.9333 83.0595C34.1023 81.1643 23.6872 73.1564 21.8181 69.1969C21.8181 69.1969 19.9297 64.7747 17.5307 64.0095C16.6539 63.7337 15.6905 63.7337 14.8137 63.4312C12.7904 62.7371 9.36049 64.2053 8.84022 62.2656C8.72461 61.8296 8.6668 61.4025 8.64753 60.9754C8.58972 59.3204 9.17744 57.7277 9.4183 56.0816C9.70734 54.1597 10.719 52.3446 12.1064 50.9032C12.405 50.5918 12.7326 50.2892 13.0602 50.0045C13.2047 49.8799 13.3589 49.7554 13.513 49.6308C16.7888 47.0416 21.0473 45.5379 25.354 45.4578C28.4275 45.3955 31.79 49.2482 35.9233 51.6506C37.8695 52.7806 39.8156 55.272 44.739 55.4499C45.4616 55.4766 46.1745 55.4499 46.8971 55.4855C47.3499 55.5122 47.7931 55.5745 48.2363 55.6546C50.2596 56.0372 52.1576 56.9447 53.9979 57.8345C54.8457 58.2438 55.7417 58.7954 56.657 59.2136C57.0424 59.3916 57.4374 59.5518 57.8325 59.6585C58.979 59.9788 59.9714 60.2547 60.9445 60.9754C63.7867 63.0841 63.488 66.1005 62.5245 68.9477H62.5438Z" fill="#CCBCAB"/>
<path d="M26.2117 64.4573C25.6047 64.7954 24.9785 65.1869 24.6605 65.7741C24.2848 66.4859 24.4389 67.3223 24.4486 68.1053C24.4582 69.0663 24.2655 70.1073 24.8147 70.917C25.5084 71.958 27.0692 72.1627 27.9845 73.0347C29.1503 74.138 29.0539 76.0599 30.3161 77.0653C31.5108 78.0085 33.6593 77.4924 34.1988 76.1311C34.4493 75.5171 34.3915 74.8231 34.5939 74.2003C35.0949 72.6965 36.8773 71.9491 38.4863 71.442C38.8138 71.3352 39.1414 71.2373 39.4112 71.0416C40.2012 70.4721 40.182 69.3154 39.681 68.5235C39.18 67.7227 38.3321 67.18 37.571 66.5838C36.8098 65.9877 36.068 65.2581 35.9331 64.3505C35.7693 63.2294 36.0198 62.3396 34.8636 61.6011C34.1025 61.1117 33.4762 61.1562 32.638 61.4498C30.451 62.2328 28.2061 63.3362 26.2021 64.4573H26.2117Z" fill="#CCBCAB"/>
<path d="M62.5437 68.9466C62.033 70.4414 61.243 71.8473 60.6938 73.3332C60.2121 74.6411 60.0387 76.3762 59.2197 77.5418C58.526 76.9457 57.9479 76.2783 57.6782 75.4419C57.4277 74.6856 57.4758 73.8759 57.5047 73.084C57.5047 72.9417 57.5047 72.7904 57.4277 72.6748C57.3313 72.5413 57.1579 72.4879 56.9845 72.4701C56.0306 72.3633 55.2888 73.1018 54.8456 73.787C54.3735 74.5166 54.0941 74.9526 53.41 75.4953C52.0515 76.572 51.618 78.6807 51.8588 80.2467C51.9648 80.9318 52.1961 81.6259 52.2346 82.3021C48.1302 83.9304 43.8428 83.8058 41.1547 83.1118C41.0777 83.094 41.0102 83.0762 40.9331 83.0495C41.0006 82.7381 41.068 82.4355 41.1066 82.1241C41.3763 80.1488 40.4899 78.1824 40.5574 76.1894C40.6152 74.6856 41.2318 73.1997 42.282 72.0608C42.9179 71.3668 43.7272 70.7617 44.0837 69.9076C44.6039 68.6263 43.9102 67.1849 42.9082 66.1794C42.388 65.6545 41.781 65.1918 41.4727 64.5422C41.174 63.9016 41.2125 63.1631 41.3667 62.4691C41.8292 60.3158 43.284 58.385 45.2013 57.0949C46.1262 56.472 47.1571 55.9915 48.2458 55.6445C50.2691 56.0271 52.1672 56.9347 54.0074 57.8245C54.8552 58.2338 55.7512 58.7854 56.6665 59.2036C57.0519 59.3816 57.4469 59.5417 57.842 59.6485C58.9885 59.9688 59.9809 60.2446 60.954 60.9654C63.7962 63.0741 63.4975 66.0904 62.534 68.9377L62.5437 68.9466Z" fill="#CCBCAB"/>
<path d="M60.9638 60.974C60.2026 60.4134 59.2777 60.2088 58.3239 60.0931C57.2544 59.9597 56.3199 60.0753 55.5394 60.8494C54.9228 61.4723 54.5567 62.2997 54.5374 63.1361L49.5081 63.1005C48.6121 63.1005 47.2536 62.2019 46.5021 62.6557C46.2516 64.0259 49.6719 66.8376 52.4949 66.0279C54.5182 65.4495 55.2119 66.2859 56.4933 68.0477C59.5956 72.3186 57.765 75.6107 53.5354 77.5593C51.2617 78.7249 49.8454 79.9528 47.3211 79.4901C45.8084 79.0274 44.7968 82.0616 42.7735 80.8871C40.3841 79.4812 37.7442 77.3903 37.7057 74.7565C36.8771 76.6785 30.2774 74.0803 29.4295 73.5109C23.9667 69.8272 24.3232 66.6507 23.8125 58.9453C22.8009 60.3423 22.8009 61.9794 21.7892 63.3853C21.0281 64.1594 20.3826 64.9958 19.8623 65.8677C21.057 67.3714 21.8374 69.1955 21.8374 69.1955C23.7258 73.1994 34.3432 81.3409 41.1742 83.1204C44.6812 84.0369 50.9052 83.9657 55.8959 80.3087C56.9557 79.5346 58.4877 78.6093 59.2392 77.5415C60.0581 76.3759 60.2315 74.6409 60.7133 73.3329C61.2624 71.847 62.0525 70.4412 62.5535 68.9463C63.5266 66.0991 63.8156 63.0827 60.9734 60.974H60.9638Z" fill="#C1AE99"/>
<g style="mix-blend-mode:multiply" opacity="0.2">
<path d="M23.8895 60.3867C23.8606 59.9063 23.8317 59.4258 23.8027 58.9453C22.7911 60.3423 22.7911 61.9794 21.7795 63.3853C21.0183 64.1594 20.3728 64.9958 19.8525 65.8677C21.0472 67.3714 21.8276 69.1955 21.8276 69.1955C22.2805 70.1564 23.2439 71.3576 24.5253 72.6478C23.0705 68.7684 22.926 64.5687 23.8991 60.3867H23.8895Z" fill="#D1C7C1"/>
</g>
<path d="M23.9093 58.752C23.4854 60.3803 23.312 63.3343 20.8359 67.8544C20.0555 69.2869 19.0342 70.8796 17.7046 72.6413C17.1651 73.3621 16.6062 74.0739 16.0378 74.7768C15.874 74.9725 15.6717 75.195 15.4404 75.4174C14.8816 75.978 14.2072 76.5919 13.8604 77.1169C13.475 77.7041 13.6099 78.5583 13.5424 80.676C13.4172 84.4753 14.0627 85.3295 13.9953 86.7264C13.9278 88.0522 12.9451 89.0487 11.4324 88.853C10.8736 88.7818 10.2666 88.6038 9.84271 88.2479C9.38988 87.8653 9.38025 87.2692 9.40915 86.7353C9.4766 85.4807 9.81381 78.496 9.45733 77.2771C9.2261 76.503 9.22609 75.7378 9.15865 74.937C9.08157 74.0205 9.4766 73.5044 9.77527 72.6413C10.469 70.5949 9.89089 69.1623 9.58258 68.0412C9.17792 66.5642 8.94669 64.927 8.79253 63.4055C8.51313 60.496 8.73473 59.6507 8.73473 59.6507C8.73473 59.6507 16.5581 53.618 19.6797 55.0417C20.5179 55.4243 24.4296 56.7856 23.9189 58.752H23.9093Z" fill="#CCBCAB"/>
<path d="M42.6676 107.202C42.4556 107.309 42.0992 107.309 41.9065 107.318C41.1742 107.336 40.4324 107.078 39.8928 106.553C39.4978 106.17 39.228 105.663 39.0353 105.138C38.8908 104.72 38.6403 104.088 38.8523 103.652C39.0257 103.296 39.4496 103.163 39.7676 103.047C40.3457 102.834 40.943 102.673 41.55 102.593C41.8198 102.558 42.1666 102.593 42.4171 102.487C42.5038 102.451 42.5231 102.353 42.6291 102.335C42.7929 102.309 42.9085 102.451 43.0048 102.576C43.6792 103.474 44.3826 104.462 44.4211 105.619C44.4211 105.761 44.4211 105.912 44.3729 106.046C44.2477 106.402 43.9297 106.66 43.5251 106.473C43.3902 106.41 43.2842 106.321 43.1782 106.224C43.0048 106.072 42.8507 105.912 42.6965 105.734C42.764 106.126 42.8699 106.606 42.8121 107.007C42.8025 107.096 42.735 107.167 42.6483 107.211L42.6676 107.202Z" fill="#7A593D"/>
<path d="M40.1059 74.2231C40.79 73.974 41.5704 73.8761 42.3701 73.8672C43.0927 73.8672 43.796 74.0273 44.4608 74.2498C45.0581 74.4455 45.6362 74.6947 46.1083 75.0506C47.592 76.1717 47.6498 77.8267 47.3801 79.3838C46.9272 81.9819 45.5206 84.1885 44.5379 86.6265C44.2874 87.2493 43.9694 87.89 43.7671 88.5128C43.5551 89.1979 43.6418 90.0165 43.5937 90.7195C43.5359 91.6359 43.4877 92.5613 43.3528 93.4688C43.1505 94.9281 42.7554 96.3695 42.7458 97.8376C42.7458 99.8841 43.7093 103.301 43.0156 104.022C42.6591 104.395 41.7053 104.929 40.578 104.724C38.4584 104.351 38.7667 103.372 38.7956 102.874C39.1232 97.4372 39.2677 97.4194 38.5933 93.7358C38.2368 91.7605 38.6896 89.7763 38.3524 87.801C38.0056 85.7812 37.0903 83.8593 36.8301 81.8306C36.5604 79.7486 37.7743 74.4989 37.7743 74.4989C37.7743 74.4989 39.2677 74.4989 40.0866 74.2142L40.1059 74.2231Z" fill="#CCBCAB"/>
<path d="M43.7847 88.5207C43.9774 87.8979 44.305 87.2483 44.5555 86.6344C45.5382 84.1964 46.9449 81.9898 47.3977 79.3828C47.4844 78.8845 47.5037 78.3951 47.5229 77.8879C47.5326 77.4698 47.7542 77.1761 48.0047 76.8469C48.1685 76.6245 48.3034 76.3842 48.4382 76.144C48.6117 75.8326 48.7755 75.5123 48.8718 75.1741C49.0067 74.667 48.9585 74.142 48.8622 73.6348C48.7658 73.101 48.6309 72.5938 48.5924 72.0688C48.5828 71.8642 48.5057 71.6773 48.3997 71.4905C48.3323 71.3748 48.2745 71.1524 48.1974 71.0634C47.7156 70.5384 47.1568 70.058 46.4728 69.791C45.7887 69.5241 44.9601 69.5152 44.3339 69.88C43.592 70.3071 43.0043 71.2236 42.4551 71.8464C41.7903 72.6116 41.1544 73.4035 40.5475 74.2132C39.9308 75.0318 39.3431 75.886 39.0059 76.8291C38.6687 77.7723 38.6013 78.84 39.0059 79.7565C39.2371 80.2725 39.6225 80.7263 39.8634 81.2513C40.0368 81.625 40.1332 82.0165 40.2006 82.4169C40.5282 84.2053 40.3837 86.1272 39.1697 87.622C38.8999 88.058 38.688 88.5029 38.5049 88.9656C38.582 90.5583 38.3411 92.1599 38.6302 93.7526C39.1504 96.6443 39.1793 97.2761 39.0059 100.043C39.2853 100.043 39.5262 99.9632 39.6707 99.7585C41.694 98.1213 39.1697 95.5588 40.6823 93.4589C41.3857 92.5959 42.9465 92.1332 43.5727 91.3324C43.5824 91.1366 43.6016 90.9409 43.6113 90.7362C43.6498 90.0333 43.5727 89.2147 43.7847 88.5296V88.5207Z" fill="#CCBCAB"/>
<path d="M75.9932 69.919C75.9932 70.4351 75.9643 70.9956 75.8005 71.4939C75.2899 73.0866 72.5826 74.9462 68.9888 74.3145C67.4955 74.0564 67.322 73.2912 66.744 72.6951C66.6765 72.6239 66.6091 72.5616 66.532 72.4993C65.318 71.5295 63.5838 70.2304 62.206 69.6788C60.7705 69.1004 59.2193 68.5221 57.8801 67.8013C56.6757 67.1518 55.8279 65.9773 55.404 64.7672C54.8741 63.2635 54.7584 61.4484 55.3076 59.9536C55.8279 58.5566 56.8203 57.3554 58.1017 56.4746C60.1539 55.0509 63.3333 53.6362 65.8961 54.4726C69.8174 55.7627 70.7809 57.6135 71.4168 60.5052C71.86 62.525 71.7058 62.0534 72.6115 63.6194C73.8929 65.826 74.7022 67.0361 75.2032 67.8191C75.8391 68.7979 75.9836 69.1182 75.9836 69.9101L75.9932 69.919Z" fill="#CCBCAB"/>
<path d="M71.427 60.5161C71.1958 59.4572 70.8875 58.3895 70.2901 57.4463C70.0107 57.0015 69.6639 56.6011 69.2592 56.2452C68.8353 55.8715 68.3728 55.391 67.7947 55.7825C67.1492 56.2274 66.5904 56.7968 66.2725 57.4908C66.2147 57.6065 66.1761 57.7311 66.1376 57.8556C66.022 58.2293 65.8967 58.9056 66.1376 59.2526C66.2917 59.4839 66.6097 59.6797 66.812 59.8665C67.0432 60.0801 67.2648 60.3025 67.4768 60.5428C67.8044 60.9076 68.0934 61.2902 68.4499 61.6194C68.9027 62.0287 69.4519 62.3401 70.03 62.5803C70.4346 62.7494 70.8586 62.8829 71.3018 62.9006C71.3788 62.9006 71.4559 62.9006 71.5234 62.8829C71.7257 62.8117 71.8028 62.5892 71.8413 62.3935C71.8895 62.1799 71.7257 61.8774 71.6679 61.655C71.5715 61.2724 71.4945 60.8898 71.4174 60.5072L71.427 60.5161Z" fill="#CCBCAB"/>
<path d="M66.3884 62.8082C66.3306 62.7637 66.2631 62.7192 66.1861 62.6747C65.4635 62.2387 64.789 62.1587 63.9412 62.2476C63.2282 62.3188 62.4189 62.4879 61.7637 62.1142C61.4169 61.9184 61.3109 61.6426 61.1471 61.3312C61.0026 61.0553 60.781 60.8062 60.6461 60.5037C60.3571 59.8809 60.3956 59.1245 60.8099 58.5551C61.1857 58.0301 61.7927 57.692 62.2069 57.1937C62.6405 56.6688 62.6405 56.1616 62.7561 55.5477C62.8139 55.2095 63.1993 54.6668 62.7561 54.391C62.2744 54.0973 61.099 54.6668 60.6558 54.8803C59.9139 55.2273 59.1817 55.6011 58.4976 56.037C57.6112 56.5887 56.8019 57.2471 56.0215 57.9234C55.1544 58.6797 54.1138 59.6851 54.0464 60.8596C54.0175 61.4202 54.4221 61.9807 54.6341 62.4968C54.8942 63.1552 55.1062 63.8314 55.2411 64.5255C55.27 64.6678 56.0022 66.8567 57.7943 67.8176C58.8155 68.3604 59.779 68.9654 60.8388 68.6184C62.0721 68.218 62.9006 67.435 64.3169 67.4884C66.6582 67.5774 68.1901 64.1784 66.3884 62.8082Z" fill="#CCBCAB"/>
<path d="M52.9087 59.8702C51.5984 59.5321 49.9124 59.5855 48.7755 60.3507C48.3805 60.6176 48.0625 60.9557 47.7446 61.3027C47.3206 61.7565 46.9063 62.2103 46.4824 62.6641C46.9353 62.7531 47.3303 63.02 47.7157 63.2513C48.4286 63.6873 49.1898 64.0432 49.9894 64.3191C50.5386 64.5148 51.1167 64.6661 51.7044 64.6394C52.4752 64.6127 53.1881 64.2835 53.8433 63.9187C54.2672 63.6873 54.6912 63.4293 55.1343 63.2157C55.5294 63.0289 55.8377 62.7175 56.3001 62.6374C56.4254 62.6196 56.5506 62.6107 56.6759 62.5929C57.2251 62.495 57.7164 62.2192 57.6105 61.6408C57.5719 61.4362 57.4563 61.2493 57.3118 61.0981C56.8011 60.5553 56.0593 61.0981 55.4523 60.8223C54.6333 60.4574 53.7759 60.1015 52.8991 59.8702H52.9087Z" fill="#AF9C89"/>
<path d="M54.1514 55.9848C52.8314 55.273 51.6175 54.3922 50.2012 53.8672C50.7311 55.5044 51.7427 56.9725 52.8892 58.3071C53.4673 58.9834 54.0936 59.6418 54.8644 60.1312C55.6351 60.6117 56.5793 60.9142 57.5042 60.8074C58.4292 60.7006 59.3156 60.1312 59.6046 59.3126C59.9611 58.2982 59.2481 57.2572 58.1498 57.0882C56.666 56.8568 55.5002 56.7145 54.1514 55.9848Z" fill="#674521"/>
<path d="M54.1514 55.9848C52.8314 55.273 51.6175 54.3922 50.2012 53.8672C50.6058 55.1129 51.2899 56.2607 52.0992 57.3373C53.2746 57.8623 54.4308 56.1361 54.1514 55.9848Z" fill="#EF5F50"/>
<path d="M18.5723 55.7724C18.3315 56.4665 17.975 57.1605 18.0135 57.899C18.0328 58.3528 18.2159 58.7977 18.2062 59.2515C18.2062 60.6929 16.4431 61.6271 14.8823 61.6449C13.3214 61.6716 11.8088 61.1111 10.2576 61.0488C9.72772 61.0221 9.17855 61.0488 8.65827 60.9865C8.60047 59.3315 9.18818 57.7388 9.42905 56.0928C9.71809 54.1709 10.7297 52.3557 12.1171 50.9143C12.4158 50.6029 12.7434 50.3004 13.0709 50.0156C13.0035 50.852 13.2925 51.7329 14.0248 52.2134C15.3447 53.0764 17.58 52.4002 18.4856 53.6459C18.9288 54.2509 18.8036 55.0695 18.5627 55.7724H18.5723Z" fill="#CCBCAB"/>
<path d="M20.3351 56.5009C20.258 56.9636 20.2195 57.4619 20.4893 57.8534C20.9132 58.4584 21.867 58.494 22.6185 58.3071C23.37 58.1203 24.1312 57.7911 24.8923 57.9067C25.8847 58.058 26.5976 58.9122 27.5707 59.1346C27.8212 59.1969 28.1006 59.2058 28.3415 59.099C28.7654 58.9122 28.9196 58.4406 29.0256 58.0135C29.2953 56.9369 29.4688 55.6734 28.6787 54.8459C28.1584 54.3032 27.2913 54.054 26.9156 53.4223C26.7229 53.102 26.6843 52.7283 26.5784 52.3724C26.4724 52.0165 26.2604 51.6605 25.8847 51.536C24.9212 51.2246 22.9461 52.0609 22.2139 52.6927C21.1155 53.6536 20.5278 55.1485 20.3158 56.4831L20.3351 56.5009Z" fill="#CCBCAB"/>
<path d="M20.835 67.8559C20.0546 69.2973 19.0333 70.89 17.7037 72.6518C17.1642 73.3725 16.6053 74.0843 16.0369 74.7872C15.8731 74.983 15.6708 75.2054 15.4395 75.4279C14.9867 74.6716 14.7651 73.8085 14.8037 72.9454C14.8518 71.8866 15.2758 70.8366 15.0927 69.7956C15.0734 69.6621 15.0349 69.5198 14.9289 69.4219C14.8133 69.3151 14.6495 69.2706 14.4954 69.2617C14.0425 69.2173 13.5897 69.3329 13.1272 69.3329C12.6744 69.3329 12.1638 69.1995 11.9422 68.8258C11.8266 68.6211 11.8169 68.372 11.8458 68.1406C12.0674 65.5603 15.507 62.6685 18.3588 64.0833C19.8137 64.804 20.623 66.3433 20.835 67.8559Z" fill="#CCBCAB"/>
<path d="M75.9944 69.9167C75.9944 70.4327 75.9655 70.9933 75.8017 71.4915C75.2911 73.0842 72.5837 74.9439 68.99 74.3121C68.5757 74.2409 68.1711 74.1164 67.8339 73.885C67.6123 73.7338 67.2751 73.4757 67.2269 73.2177C67.1691 72.8796 67.3136 72.4347 67.4677 72.1233C67.6508 71.7585 67.9302 71.4382 68.2674 71.189C68.9129 70.7174 69.7319 70.4861 70.5412 70.3793C70.9073 70.3259 71.2927 70.2993 71.6396 70.1658C72.4681 69.8455 72.9306 68.9913 73.7399 68.6354C74.0193 68.5108 74.3276 68.4485 74.6263 68.3862C74.8094 68.3507 74.9924 68.3151 75.1755 68.3329C75.9173 68.3951 76.0041 69.3917 75.9944 69.9167Z" fill="#514A3F"/>
<path opacity="0.3" d="M48.0438 62.3377C48.0438 62.3377 48.9687 63.7168 50.7608 63.9838C52.5143 64.2418 55.5299 63.3787 54.4027 62.2131C51.888 59.615 48.0342 62.3377 48.0342 62.3377H48.0438Z" fill="#514A3F"/>
<path d="M70.098 71.635C69.8475 71.5994 69.6548 71.6617 69.5585 71.7774C69.4621 71.893 69.4621 72.0443 69.5006 72.2044C69.5103 72.2489 69.5295 72.3023 69.5874 72.3557C69.6355 72.4002 69.703 72.4269 69.7704 72.4625C70.1173 72.6226 70.4545 72.7917 70.8013 72.9519C70.8495 72.9785 70.8977 72.9963 70.9458 73.0052C71.0036 73.0052 71.0325 72.9785 71.0518 72.9519C71.1771 72.7917 71.1289 72.5604 71.0904 72.3379C71.0807 72.2756 71.0711 72.2133 71.0229 72.1511C70.8977 71.9464 70.5412 71.7951 70.2329 71.6706L70.098 71.6439V71.635Z" fill="#241D19"/>
<path d="M74.5678 70.0932C74.6449 69.9153 74.7509 69.8174 74.8472 69.7996C74.9436 69.7818 75.0399 69.853 75.117 69.942C75.1363 69.9687 75.1652 70.0043 75.1748 70.0577C75.1748 70.111 75.1748 70.1644 75.1748 70.2178C75.1363 70.5114 75.1074 70.8051 75.0688 71.0987C75.0688 71.1432 75.0592 71.1877 75.0399 71.2144C75.0207 71.2499 74.9918 71.2588 74.9725 71.2588C74.8376 71.2588 74.7124 71.1432 74.6064 71.0186C74.5775 70.983 74.5486 70.9474 74.5197 70.894C74.4522 70.725 74.4908 70.4225 74.5389 70.1733L74.5775 70.0666L74.5678 70.0932Z" fill="#241D19"/>
<path d="M32.1745 57.0446C33.1187 56.9912 34.0147 56.4573 34.4579 55.6921C34.5543 55.5319 34.6313 55.354 34.7855 55.2383C34.9493 55.1138 35.1805 55.0871 35.3443 54.9625C35.5755 54.7845 35.6237 54.4731 35.5659 54.2062C35.1034 51.786 32.0492 50.7806 29.9393 52.0885C29.4961 52.3644 29.1299 52.8448 29.2937 53.3164C29.3997 53.6367 29.7562 53.8592 30.1127 53.9037C30.71 53.9837 31.3845 53.3431 31.7506 53.8859C32.0203 54.2774 31.5868 54.8735 31.4615 55.265C31.2303 55.9946 30.9124 57.1335 32.1649 57.0624L32.1745 57.0446Z" fill="#CCBCAB"/>
<path d="M20.7387 46.9438C20.5942 47.0951 20.4497 47.2641 20.4304 47.4688C20.363 47.9759 21.047 48.323 21.5866 48.2518C22.1261 48.1806 22.5982 47.8514 23.1088 47.6556C23.7351 47.4154 24.4384 47.3798 25.0839 47.5488C25.2477 47.5933 25.4115 47.6467 25.5753 47.6022C25.7006 47.5666 25.7969 47.4866 25.8644 47.3887C26.6737 46.2765 24.7467 46.0807 24.0627 46.0362C22.8198 45.9562 21.6347 46.0273 20.7387 46.9438Z" fill="#CCBCAB"/>
<path d="M36.6172 58.737C36.9255 58.8349 37.3012 58.9239 37.5614 58.737C37.9082 58.4968 37.8023 57.9629 38.0528 57.6337C38.2165 57.4202 38.5056 57.3223 38.7657 57.2333C39.2764 57.0731 39.787 56.9041 40.2976 56.7439C40.3651 56.7261 40.4325 56.6994 40.4903 56.7261C40.5674 56.7528 40.5963 56.824 40.6348 56.8952C40.8564 57.4202 41.0877 57.954 41.3093 58.479C41.3767 58.6391 41.4442 58.7993 41.4442 58.9684C41.4442 59.4577 40.8275 59.8225 40.3073 59.7069C40.3843 59.2353 40.3747 58.6125 39.893 58.4523C39.4498 58.301 38.9969 58.7192 38.891 59.1463C38.785 59.5734 38.891 60.0183 38.8332 60.4543C38.8139 60.5699 38.785 60.6945 38.6886 60.7835C38.4478 61.0059 38.0335 60.828 37.8023 60.6055C37.4843 60.303 37.2145 60.0806 36.7424 60.0628C36.7424 59.9382 36.675 58.7637 36.6172 58.7459V58.737Z" fill="#CCBCAB"/>
<path d="M39.2573 63.5763C39.0068 63.5763 38.7852 63.7542 38.6792 63.9589C38.5732 64.1635 38.5539 64.4126 38.5443 64.644C38.525 64.9643 38.5828 65.3736 38.9201 65.4448C39.1417 65.4893 39.3536 65.3469 39.5078 65.1868C40.0088 64.644 40.0762 63.8076 39.6908 63.1937C39.5945 63.1314 39.4403 63.1581 39.3825 63.2559L39.2669 63.5674L39.2573 63.5763Z" fill="#CCBCAB"/>
<g style="mix-blend-mode:multiply" opacity="0.4">
<path d="M11.1049 76.6371C10.0932 72.1972 14.1398 68.469 12.6175 64.0291C11.1434 59.9361 10.4112 54.9623 12.0201 51.0117C10.6809 52.4443 9.70783 54.2149 9.42842 56.0923C9.255 57.2935 8.88888 58.4591 8.73473 59.6514C8.73473 59.6514 8.51313 60.4967 8.79253 63.4062C8.93705 64.9277 9.16829 66.5649 9.58258 68.0419C9.89089 69.1631 10.4786 70.5956 9.77527 72.6421C9.4766 73.5051 9.08157 74.0212 9.15865 74.9377C9.22609 75.7385 9.23573 76.5037 9.45733 77.2778C9.81381 78.4879 9.4766 85.4815 9.40915 86.736C9.38025 87.2699 9.38988 87.866 9.84271 88.2486C10.2666 88.6046 10.8736 88.7825 11.4324 88.8537C12.9451 89.0583 13.9278 88.0529 13.9953 86.7271C14.0627 85.3391 13.4172 84.476 13.5424 80.6767C13.6099 78.559 13.475 77.696 13.8604 77.1176C14.2072 76.5926 14.8816 75.9787 15.4404 75.4181C15.6717 75.1957 15.874 74.9733 16.0378 74.7775C16.6062 74.0746 17.1651 73.3628 17.7046 72.6421C19.0342 70.8803 20.0458 69.2876 20.8359 67.8551C20.8937 67.7572 20.9322 67.6593 20.99 67.5615C20.99 67.5615 20.99 67.5793 20.9996 67.5882C20.99 67.4903 20.9707 67.3924 20.9611 67.2945C17.4252 70.3287 11.1049 77.0998 11.1049 76.6371Z" fill="#D1C7C1"/>
</g>
<defs>
<linearGradient id="paint0_linear_4255_36849" x1="58.8614" y1="71.3347" x2="58.8614" y2="8.86955" gradientUnits="userSpaceOnUse">
<stop stop-color="#F2EFFA"/>
<stop offset="1" stop-color="white"/>
</linearGradient>
<linearGradient id="paint1_linear_4255_36849" x1="77.9028" y1="43.6203" x2="74.0909" y2="36.4485" gradientUnits="userSpaceOnUse">
<stop stop-color="#0072BC"/>
<stop offset="1" stop-color="#C9EDFF"/>
</linearGradient>
<linearGradient id="paint2_linear_4255_36849" x1="58.8614" y1="35.8959" x2="58.8614" y2="13.9664" gradientUnits="userSpaceOnUse">
<stop stop-color="#2F97F7"/>
<stop offset="1" stop-color="#79D3FE"/>
</linearGradient>
<linearGradient id="paint3_linear_4255_36849" x1="87.9478" y1="37.6715" x2="75.756" y2="14.6976" gradientUnits="userSpaceOnUse">
<stop offset="0.03" stop-color="#2F878A"/>
<stop offset="0.07" stop-color="#348C8E"/>
<stop offset="0.36" stop-color="#60B7B0"/>
<stop offset="0.63" stop-color="#80D6CA"/>
<stop offset="0.85" stop-color="#93E9D9"/>
<stop offset="1" stop-color="#9BF0DF"/>
</linearGradient>
<linearGradient id="paint4_linear_4255_36849" x1="82.7408" y1="74.3559" x2="82.7408" y2="16.2054" gradientUnits="userSpaceOnUse">
<stop stop-color="#2F878A"/>
<stop offset="0.13" stop-color="#259A92"/>
<stop offset="0.34" stop-color="#17B69E"/>
<stop offset="0.56" stop-color="#0DCAA7"/>
<stop offset="0.78" stop-color="#07D6AC"/>
<stop offset="1" stop-color="#06DAAE"/>
</linearGradient>
<linearGradient id="paint5_linear_4255_36849" x1="88.0776" y1="41.8351" x2="86.2214" y2="38.3616" gradientUnits="userSpaceOnUse">
<stop offset="0.03" stop-color="#A996EB"/>
<stop offset="0.68" stop-color="#D6CEF2"/>
<stop offset="1" stop-color="#E9E5F6"/>
</linearGradient>
<linearGradient id="paint6_linear_4255_36849" x1="80.6862" y1="47.7551" x2="80.6862" y2="34.5974" gradientUnits="userSpaceOnUse">
<stop stop-color="#DFDAEF"/>
<stop offset="1" stop-color="white"/>
</linearGradient>
</defs>
</svg>
