<svg width="32" height="33" viewBox="0 0 32 33" fill="none" xmlns="http://www.w3.org/2000/svg">
<path d="M27.9639 9.062C27.3447 9.88803 26.5962 10.6086 25.7472 11.1958C25.7472 11.4116 25.7472 11.6274 25.7472 11.8551C25.754 15.7736 24.1888 19.5309 21.4026 22.2848C18.6162 25.0387 14.8418 26.5587 10.9256 26.504C8.66149 26.5116 6.42639 25.9947 4.39539 24.9936C4.28587 24.9457 4.21525 24.8375 4.21566 24.7179V24.586C4.21566 24.4139 4.35514 24.2744 4.52719 24.2744C6.75273 24.2009 8.89886 23.4293 10.662 22.0687C8.64754 22.028 6.83509 20.8347 6.00097 18.9997C5.95885 18.8996 5.97195 18.7845 6.03559 18.6964C6.09922 18.6083 6.20417 18.5597 6.3125 18.5683C6.92473 18.6297 7.54307 18.5728 8.13377 18.4004C5.91002 17.9388 4.23911 16.0927 3.99998 13.8331C3.99149 13.7247 4.04006 13.6197 4.12817 13.556C4.21626 13.4924 4.33115 13.4792 4.43134 13.5215C5.02809 13.7848 5.67229 13.9235 6.32449 13.9289C4.37595 12.6501 3.53431 10.2175 4.27557 8.0071C4.35209 7.79231 4.53591 7.63363 4.7595 7.58939C4.98307 7.54514 5.21345 7.62184 5.36593 7.79132C7.99535 10.5898 11.6082 12.2574 15.4427 12.4425C15.3446 12.0506 15.2963 11.6478 15.299 11.2438C15.3348 9.1251 16.6458 7.23775 18.618 6.4653C20.5902 5.69286 22.8334 6.18818 24.2975 7.71939C25.2954 7.52927 26.2602 7.19407 27.1611 6.72442C27.2271 6.68322 27.3108 6.68322 27.3768 6.72442C27.418 6.79044 27.418 6.87416 27.3768 6.94019C26.9404 7.9395 26.2032 8.77763 25.268 9.33772C26.087 9.24275 26.8915 9.04956 27.6644 8.76232C27.7295 8.71803 27.815 8.71803 27.88 8.76232C27.9346 8.78726 27.9754 8.83495 27.9915 8.8927C28.0076 8.95044 27.9975 9.01238 27.9639 9.062Z" fill="#2E3A59"/>
</svg>
